<svg version="1.1" id="Layer_1" xmlns="http://www.w3.org/2000/svg" xmlns:xlink="http://www.w3.org/1999/xlink" x="0" y="0" width="24.999" height="25" viewBox="0 0 24.999 25" xml:space="preserve"><defs><path id="SVGID_1_" d="M0 0h25v25H0z"/></defs><clipPath id="SVGID_2_"><use xlink:href="#SVGID_1_" overflow="visible"/></clipPath><path clip-path="url(#SVGID_2_)" fill-rule="evenodd" clip-rule="evenodd" fill="#FF8000" d="M.005 16v-5.197a.506.506 0 01.222-.224c1.064-.489 1.694-1.324 1.978-2.451.206-.815.332-1.644.463-2.472.244-1.531.85-2.913 1.67-4.213.213-.337.42-.678.611-1.029.088-.161.182-.318.354-.406h7.047c.604.443 1.31.536 2.026.589.97.071 1.903-.071 2.792-.472.135-.061.293-.055.43-.117h3.399c.094.13.006.219-.074.304-1.13 1.219-2.483 2.043-4.133 2.353-.563.106-1.129.201-1.683.357-.664.188-1.18.72-1.241 1.292-.134 1.24.476 2.046 1.54 2.523.689.31 1.44.4 2.181.502a12.33 12.33 0 014.345 1.468c.916.507 1.833 1.021 2.827 1.37a.578.578 0 01.236.176V15.4c-.118.132-.269.07-.4.051a11.08 11.08 0 00-2.009-.139c-1.333.036-2.582.349-3.687 1.126-1.03.729-1.718 1.687-1.873 2.964-.12.976.069 1.883.688 2.68.333.429.675.845 1.071 1.216.454.426.844.916 1.293 1.349.095.093.188.196.119.35h-2.949c-.328-.115-.561-.377-.839-.564-.334-.223-.686-.407-1.073-.504-.572-.145-1.015.096-1.398.495-.181.189-.295.442-.538.573h-3.349c-.082-.11-.07-.24-.059-.361.101-1.037-.322-1.897-.898-2.708a40.36 40.36 0 00-2.06-2.689c-.623-.74-1.286-1.441-2.142-1.922-.535-.298-1.116-.47-1.71-.606-.955-.221-1.925-.366-2.889-.539C.17 16.147.071 16.105.005 16"/><path clip-path="url(#SVGID_2_)" fill-rule="evenodd" clip-rule="evenodd" fill="#F60" d="M24.994 10.353c-.592-.127-1.121-.408-1.656-.675-1.198-.597-2.337-1.314-3.617-1.742-.905-.302-1.847-.418-2.78-.583-.761-.136-1.527-.262-2.176-.738-.827-.606-1.169-1.422-.991-2.421.125-.704.649-1.077 1.297-1.279.621-.194 1.269-.272 1.902-.407 1.146-.244 2.155-.764 3.06-1.505.291-.238.545-.512.816-.772.065-.063.138-.123.148-.223h2.448c.075.159-.032.271-.106.386-.374.581-.82 1.108-1.274 1.627-.549.633-1.136 1.236-1.6 1.94a2.123 2.123 0 00-.246.49c-.181.519.078.903.41 1.251.489.513 1.061.931 1.627 1.353.802.598 1.623 1.163 2.547 1.559.092.039.13.125.191.19v1.549z"/><path clip-path="url(#SVGID_2_)" fill-rule="evenodd" clip-rule="evenodd" fill="#EE4D00" d="M24.994 17.749c0 2.357-.001 4.715.006 7.072 0 .149-.03.182-.181.18-.689-.01-1.382-.005-2.074-.005-.085-.066-.174-.126-.22-.231-.338-.775-.949-1.308-1.589-1.821-.681-.549-1.346-1.116-1.802-1.881-.517-.865-.58-2.119.077-2.94.604-.757 1.396-1.162 2.361-1.229a5.973 5.973 0 012.918.51c.192.083.393.149.504.345"/><path clip-path="url(#SVGID_2_)" fill-rule="evenodd" clip-rule="evenodd" fill="#F60" d="M.005 16c.923.167 1.848.324 2.769.502 1.037.2 2.038.496 2.877 1.18.738.602 1.356 1.318 1.946 2.06a39.486 39.486 0 011.6 2.132c.389.562.754 1.145.865 1.836.068.427.078.858-.011 1.286H7.052c-.13-.12-.07-.268-.044-.399.257-1.285-.004-2.451-.833-3.467-.795-.973-1.783-1.59-3.079-1.684-.912-.066-1.785.102-2.665.276-.143.028-.291.096-.426-.024V16zm24.989 1.749c-.483-.194-.95-.433-1.462-.562-.986-.251-1.979-.333-2.94.049-1.655.656-2.21 2.241-1.355 3.768.36.639.901 1.121 1.452 1.592.561.479 1.187.885 1.602 1.519.183.28.343.568.455.883h-2.549c-.302-.453-.726-.796-1.086-1.198-.473-.531-1.004-1.011-1.44-1.582-.929-1.211-.995-2.521-.478-3.889.375-.987 1.114-1.683 1.999-2.219.83-.504 1.742-.762 2.706-.862 1.043-.109 2.073-.024 3.097.155v2.346z"/><path clip-path="url(#SVGID_2_)" fill-rule="evenodd" clip-rule="evenodd" fill="#EE4D00" d="M24.994 8.804c-.518-.169-.986-.435-1.443-.724-1.069-.676-2.092-1.412-2.998-2.3-.195-.19-.371-.404-.456-.675-.137-.44.025-.817.253-1.176.335-.527.749-.995 1.164-1.458.698-.779 1.396-1.557 1.932-2.463.477 0 .949.004 1.424-.003.108-.002.131.02.13.128-.009.491-.005.983-.005 1.474-.181.503-.57.866-.866 1.292-.27.384-.494.786-.61 1.242-.189.755.064 1.392.556 1.947.225.254.454.507.734.706.09.065.126.173.187.26v1.75zM.005 19.698c.856-.2 1.718-.396 2.602-.395 1.27.003 2.38.393 3.286 1.344.658.691 1.133 1.456 1.276 2.398.091.6.065 1.208-.092 1.804-.013.048-.017.098-.025.146H4.753c-.131-.167-.057-.353-.039-.528.041-.393.05-.781-.047-1.166-.224-.879-.929-1.411-1.894-1.44-.663-.02-1.308.104-1.955.218-.18.031-.361.059-.541.094-.107.021-.198.009-.272-.075v-2.4z"/><path clip-path="url(#SVGID_2_)" fill-rule="evenodd" clip-rule="evenodd" fill="#F60" d="M5.303.007c-.331.663-.729 1.287-1.116 1.917-.803 1.303-1.262 2.72-1.487 4.227-.138.927-.26 1.864-.634 2.737-.361.84-.981 1.429-1.809 1.806-.083.037-.168.072-.252.108V9.003c.113-.277.39-.402.573-.616.481-.562.713-1.232.865-1.938.186-.869.264-1.759.498-2.619.213-.784.538-1.519.927-2.228.232-.424.439-.86.653-1.293a.608.608 0 01.283-.302h1.499z"/><path clip-path="url(#SVGID_2_)" fill-rule="evenodd" clip-rule="evenodd" fill="#D43300" d="M.005 22.097c.555-.094 1.11-.194 1.667-.277.601-.09 1.206-.146 1.799.042a1.952 1.952 0 011.379 1.797c.023.449.001.896-.097 1.336H1.804c-.492-.28-1.008-.485-1.586-.492a.284.284 0 01-.213-.106v-2.3z"/><path clip-path="url(#SVGID_2_)" fill-rule="evenodd" clip-rule="evenodd" fill="#EE4D00" d="M3.804.007c-.499 1.069-1.13 2.074-1.542 3.184-.259.696-.389 1.423-.508 2.153-.144.876-.254 1.762-.698 2.557-.255.457-.593.836-1.051 1.102V6.704c.159-.761.28-1.531.331-2.306.062-.967.365-1.85.84-2.683.274-.483.576-.95.853-1.433a.646.646 0 01.275-.275h1.5z"/><path clip-path="url(#SVGID_2_)" fill-rule="evenodd" clip-rule="evenodd" fill="#D43300" d="M24.994 7.054c-.731-.524-1.391-1.105-1.607-2.039-.113-.478-.02-.932.173-1.359.347-.772.898-1.408 1.435-2.049v5.447zM2.304.007C1.896.815 1.357 1.548.971 2.368.665 3.015.517 3.695.45 4.403c-.071.74-.101 1.49-.386 2.193-.015.038-.039.072-.059.108C.005 4.553.008 2.402 0 .25-.001.061.019-.006.235 0c.69.019 1.379.007 2.069.007"/><path clip-path="url(#SVGID_2_)" fill-rule="evenodd" clip-rule="evenodd" fill="#BB1A00" d="M13.399 24.996c.332-.61.756-1.113 1.493-1.22.34-.05.653.075.956.213a4.293 4.293 0 011.399 1.007h-3.848zm4.2-24.989c-.674.431-1.419.627-2.205.7A6.912 6.912 0 0113.228.55c-.346-.078-.695-.185-.877-.543h5.248zM.005 24.396c.531-.018 1.044.054 1.513.327a.828.828 0 01.286.272c-.558 0-1.116-.004-1.674.003-.107.002-.136-.019-.128-.127.012-.159.003-.317.003-.475"/><path clip-path="url(#SVGID_2_)" fill-rule="evenodd" clip-rule="evenodd" fill="#F90" d="M8.761.149c.657.092 1.396.15 2.085.455.594.262.824.75.908 1.357.18 1.289.273 2.594.7 3.841.469 1.369 1.392 2.225 2.789 2.605 1.052.286 2.132.455 3.169.799 1.321.439 2.542 1.065 3.603 1.983.21.182.392.379.546.607.311.457.212.757-.232 1.078-.324.234-.694.394-1.059.56-1.372.627-2.725 1.284-3.905 2.239a7.758 7.758 0 00-1.866 2.221c-.415.729-.743 1.508-1.249 2.187-.433.58-1.015.793-1.707.708-1.727-.213-3.354-1.682-3.792-3.379-.156-.608-.076-1.202.022-1.804.071-.432.155-.859.099-1.31-.074-.603-.435-.969-.924-1.244-.496-.278-1.055-.349-1.602-.451-.539-.1-1.084-.164-1.617-.305-.842-.221-1.25-.732-1.328-1.593-.103-1.123.023-2.237.096-3.355.064-.975.225-1.929.551-2.854.34-.962.879-1.804 1.525-2.585.489-.591 1.05-1.087 1.739-1.432.433-.217.892-.308 1.449-.328"/><path clip-path="url(#SVGID_2_)" fill-rule="evenodd" clip-rule="evenodd" fill="#FFB300" d="M4.6 7.124c-.01-1.338.391-2.541 1.247-3.57.562-.676 1.292-1.117 2.181-1.178.56-.039 1.072.193 1.531.52.472.335.747.82.986 1.324.486 1.027.734 2.139 1.12 3.202.188.517.411 1.014.77 1.445.475.57 1.115.82 1.806.981.819.19 1.644.367 2.411.718.323.147.646.308.904.567.586.587.585 1.26.019 1.873-.621.671-1.39 1.131-2.177 1.565-.441.245-.894.475-1.403.574-.445.087-.919-.114-1.133-.521-.268-.509-.489-1.039-.72-1.563-.29-.665-.672-1.263-1.312-1.654-.449-.276-.957-.366-1.466-.454-.826-.144-1.667-.201-2.473-.452-.489-.151-.959-.342-1.346-.684-.537-.477-.766-1.111-.894-1.797-.054-.298-.046-.596-.051-.896"/><path clip-path="url(#SVGID_2_)" fill-rule="evenodd" clip-rule="evenodd" fill="#FC0" d="M8.103 9.009c-.863-.068-1.672-.385-2.051-1.364-.279-.721-.198-1.432.118-2.126.173-.38.419-.694.763-.933.888-.618 1.731-.318 2.287.389.495.628.75 1.381.772 2.176.033 1.244-.503 1.784-1.889 1.858"/></svg>