<svg version="1.1" id="Layer_1" xmlns="http://www.w3.org/2000/svg" xmlns:xlink="http://www.w3.org/1999/xlink" x="0" y="0" width="688.158" height="292.331" viewBox="0 0 688.158 292.331" xml:space="preserve"><defs><path id="SVGID_1_" d="M0 0h688.158v292.331H0z"/></defs><clipPath id="SVGID_2_"><use xlink:href="#SVGID_1_" overflow="visible"/></clipPath><path clip-path="url(#SVGID_2_)" fill="#010101" d="M124.228 140.506h-.07l-7.972 18.977h-1.02l-7.702-18.249h-.064l-.78 13.23c-.201 3.091 1.394 3.091 4.003 3.733v.942H100.44v-.942c2.511-.753 3.188-.845 3.627-3.566l2.008-14.516c.275-2.516-1.598-2.559-3.592-3.1v-.958h8.919v.697c-.888 1.177.548 3.726 1.022 4.838l4.779 10.998 5.493-12.654c.402-.912 1.159-2.317.279-3.182v-.697h9.602v.958c-3.398.717-3.936 1.258-3.769 4.513l.576 10.971c.239 3.857.272 5.006 4.449 5.699v.942h-13.104v-.942c4.652-.547 4.38-1.664 4.139-5.966l-.64-11.726zm22.591 10.146l-2.452-6.25-2.316 6.25h4.768zm-5.279 1.613l-.476 1.38c-1.623 4.66-.523 4.737 2.415 5.082v.757h-8.369v-.757c1.452-.455 2.076-.497 2.689-1.927l5.941-13.899-.261-.811c1.048-.372 1.912-1.153 2.559-2.076h.511l5.038 13.12c1.747 4.417 1.551 4.746 4.328 5.593v.757h-9.155v-.757c2.61-.455 2.771-.964 1.298-4.757l-.647-1.705h-5.871zm28.584-6.109h-.803c-.513-2.218-1.16-4.67-3.936-4.67-1.635 0-2.743 1.212-2.743 2.797 0 4.367 8.858 4.077 8.858 9.7 0 3.886-3.709 5.5-7.168 5.5-1.904 0-3.79-.518-5.455-1.372l-.885-5.338.835-.161c.88 2.637 2.847 5.635 6.02 5.635 1.779 0 3.099-1.154 3.099-2.908 0-4.563-8.857-4.181-8.857-9.503 0-3.581 3.419-5.583 6.695-5.583 1.629 0 3.216.394 4.588 1.21l-.248 4.693zm4.005.22l.622-6.056h.565c.271.474.646.721 1.051.789.432.1.885.067 1.374.067h11.384c.969 0 1.885.141 2.417-.856h.58l.611 6.056-.749.131c-1.073-3.833-3.074-4.218-6.796-4.218v11.224c0 4.867.359 4.676 4.042 5.216v.756h-11.62v-.756c3.685-.54 4.04-.349 4.04-5.216v-11.224c-3.728 0-5.66.384-6.76 4.218l-.761-.131zm28.003 4.407v3.561c0 2.75.022 4 3.609 4 3.495 0 5.004-1.956 5.763-5.047h.801c.062 2.082-.32 4.17-.97 6.187H195.02v-.754c3.206-.546 3.55-.347 3.55-5.217v-6.367c0-4.866-.344-4.686-3.55-5.223v-.75h15.94l-.502 4.713h-.838c-.2-3.528-2.588-3.586-5.527-3.586h-1.961v6.881h2.277c2.324 0 3.537-.194 4.212-2.65h.698c-.137 2.292-.238 4.557-.116 6.848h-.743c-.543-2.645-1.803-2.595-4.145-2.595h-2.183zm20.211-1.238c2.505-.193 5.011-1.277 5.011-4.175 0-2.78-2.584-3.535-5.011-3.535v7.71zm-3.55-3.532c0-3.63-.191-4.134-3.554-4.417v-.744h8.374c3.314 0 7.777 0 7.777 4.28 0 2.113-1.622 3.677-3.504 4.414 1.99 3.932 4.771 8.133 9.218 9.185l-.124.755c-2.391-.141-5.16.104-7.265-1.354-1.369-.959-2.923-3.495-3.731-5.002-1.278-2.433-1.086-2.263-3.641-2.646v2.699c0 3.658-.159 4.9 4.17 5.218v.754h-11.274v-.754c3.197-.54 3.554-.348 3.554-5.218v-7.17zm37.403 3.454c0 3.792 1.777 8.781 6.328 8.781 4.247 0 5.726-4.344 5.726-7.879 0-3.819-1.826-8.884-6.431-8.884-4.138 0-5.623 4.61-5.623 7.982m16.419.261c0 6.003-4.521 9.759-10.449 9.759-5.836 0-10.331-3.615-10.331-9.568 0-5.836 4.523-9.665 10.313-9.665 5.649-.001 10.467 3.281 10.467 9.474m10.163 1.385v2.398c0 3.655-.155 4.904 4.253 5.216v.757h-11.358v-.757c3.198-.54 3.542-.357 3.542-5.216v-6.365c0-4.867-.344-4.688-3.542-5.227v-.743h15.936l-.646 4.876h-.857c-.142-3.538-2.271-3.764-5.279-3.764h-2.049v7.211h2.314c2.319 0 3.554-.157 4.194-2.61h.742a98.452 98.452 0 00-.167 7.043h-.706c-.479-2.819-1.628-2.819-4.168-2.819h-2.209zm70.544-.461l-2.446-6.25-2.327 6.25h4.773zm-5.275 1.613l-.493 1.38c-1.612 4.66-.502 4.737 2.423 5.082v.757h-8.368v-.757c1.453-.455 2.072-.497 2.689-1.927l5.948-13.899-.27-.811c1.054-.372 1.928-1.153 2.552-2.076h.526l5.03 13.12c1.747 4.417 1.559 4.746 4.327 5.593v.757h-9.156v-.757c2.622-.455 2.78-.964 1.294-4.757l-.635-1.705h-5.867zm18.995-5.785c0-2.782-.083-4.722-3.493-5.316v-.738h6.192c3.388 4.418 8.073 8.871 11.948 13.407l.061-.063-.16-8.559c-.069-3.192-.858-3.612-4.049-4.047v-.738h8.194v.738c-2.373.232-2.515 1.354-2.515 5.75v11.987l-1.206.581c-2.645-3.226-9.052-9.695-13.489-14.485-.074 3.003.06 5.833.169 8.772.099 3.318.699 3.524 3.869 4.2v.759h-8.835v-.759c1.979-.386 3.313-.264 3.313-3.909v-7.58zm32.084 4.172l-2.443-6.25-2.311 6.25h4.754zm-5.271 1.613l-.485 1.38c-1.611 4.66-.511 4.737 2.429 5.082v.757h-8.376v-.757c1.457-.455 2.075-.497 2.693-1.927l5.947-13.899-.265-.811c1.04-.372 1.91-1.153 2.56-2.076h.501l5.039 13.12c1.749 4.417 1.562 4.746 4.341 5.593v.757h-9.157v-.757c2.608-.455 2.771-.964 1.291-4.757l-.649-1.705h-5.869zm34.655 4.655h1.438v.623c-2.85 1.193-5.936 1.944-9.051 1.944-5.576 0-10.627-3.512-10.627-9.326 0-6.498 5.684-9.908 11.523-9.908 2.402 0 4.632.57 6.863 1.435v5.14h-.797c-.812-3.214-2.994-5.336-6.517-5.336-4.312 0-6.699 3.748-6.699 7.703 0 4.948 3.227 9.052 8.308 9.052 1.914 0 1.839-.46 1.998-1.6v-1.397c0-3.502-.2-3.745-3.904-4.257v-.754h9.498v.754c-1.823.471-2.034.784-2.034 2.675v3.252zm12.188-6.137v3.561c0 2.75.02 4 3.602 4 3.495 0 5.002-1.956 5.761-5.047h.809c.05 2.082-.328 4.17-.968 6.187h-16.311v-.754c3.211-.546 3.537-.347 3.537-5.217v-6.367c0-4.866-.326-4.686-3.537-5.223v-.75h15.931l-.507 4.713h-.832c-.197-3.528-2.588-3.586-5.522-3.586h-1.962v6.881h2.274c2.323 0 3.534-.194 4.208-2.65h.702c-.144 2.292-.249 4.557-.107 6.848h-.763c-.531-2.645-1.791-2.595-4.136-2.595h-2.179zm31.686-6.359h-.062l-6.317 15.062h-.806l-6.122-14.5h-.049l-.623 10.513c-.159 2.457 1.112 2.457 3.175 2.963v.752h-8.074v-.752c1.996-.598 2.523-.678 2.877-2.826l1.587-11.546c.228-1.969-1.264-2.005-2.85-2.44v-.742h7.075v.537c-.699.937.446 2.958.813 3.846l3.805 8.711 4.363-10.04c.314-.71.902-1.83.209-2.517v-.537H479v.742c-2.692.571-3.13.998-2.985 3.583l.454 8.701c.183 3.08.221 3.986 3.521 4.528v.752h-10.381v-.752c3.688-.43 3.461-1.321 3.285-4.737l-.51-9.301zm16.826 6.359v3.561c0 2.75.021 4 3.607 4 3.487 0 4.99-1.956 5.763-5.047h.792c.062 2.082-.312 4.17-.962 6.187h-16.317v-.754c3.215-.546 3.562-.347 3.562-5.217v-6.367c0-4.866-.348-4.686-3.562-5.223v-.75h15.942l-.509 4.713h-.836c-.194-3.528-2.585-3.586-5.532-3.586h-1.948v6.881h2.292c2.302 0 3.515-.194 4.199-2.65h.689c-.132 2.292-.237 4.557-.108 6.848h-.755c-.527-2.645-1.81-2.595-4.143-2.595h-2.174zm16.363-4.303c0-2.782-.101-4.722-3.506-5.316v-.738h6.192c3.396 4.418 8.084 8.871 11.961 13.407l.059-.063-.166-8.559c-.062-3.192-.87-3.612-4.053-4.047v-.738h8.193v.738c-2.374.232-2.507 1.354-2.507 5.75v11.987l-1.213.581c-2.632-3.226-9.035-9.695-13.495-14.485-.068 3.003.062 5.833.164 8.772.117 3.318.711 3.524 3.896 4.2v.759h-8.839v-.759c1.968-.386 3.313-.264 3.313-3.909v-7.58zm21.124-.104l.622-6.056h.566c.268.474.644.721 1.041.789.444.1.886.067 1.372.067H541.7c.968 0 1.872.141 2.419-.856h.557l.629 6.056-.756.131c-1.087-3.833-3.062-4.218-6.785-4.218v11.224c0 4.867.345 4.676 4.035 5.216v.756h-11.636v-.756c3.687-.54 4.039-.349 4.039-5.216v-11.224c-3.711 0-5.634.384-6.746 4.218l-.759-.131zm41.544 7.136c0 4.869.339 4.677 3.565 5.217v.756h-10.671v-.756c3.206-.54 3.56-.348 3.56-5.217v-6.366c0-4.871-.354-4.689-3.56-5.223v-.746h10.671v.746c-3.227.533-3.565.352-3.565 5.223v6.366zm9.276-7.032c0-2.782-.083-4.722-3.504-5.316v-.738h6.2c3.381 4.418 8.065 8.871 11.946 13.407l.054-.063-.173-8.559c-.045-3.192-.859-3.612-4.033-4.047v-.738h8.178v.738c-2.354.232-2.494 1.354-2.494 5.75v11.987l-1.205.581c-2.644-3.226-9.06-9.695-13.491-14.485-.08 3.003.046 5.833.164 8.772.1 3.318.69 3.524 3.876 4.2v.759h-8.836v-.759c1.966-.386 3.318-.264 3.318-3.909v-7.58zM40.742 185.011c0 6.146.439 5.908 4.48 6.597v.935H31.789v-.935c4.041-.688 4.48-.45 4.48-6.597v-8.004c0-6.154-.439-5.912-4.48-6.588v-.952h13.434v.952c-4.041.676-4.48.434-4.48 6.588v8.004zm10.704-4.713c0-2.768-.078-4.721-3.508-5.316v-.739h6.204c3.387 4.413 8.068 8.871 11.949 13.416l.054-.061-.168-8.57c-.051-3.213-.857-3.602-4.034-4.046v-.739h8.186v.739c-2.369.227-2.501 1.357-2.501 5.748v11.983l-1.211.586c-2.634-3.229-9.046-9.695-13.492-14.487-.074 3.021.057 5.844.159 8.786.113 3.31.704 3.521 3.879 4.194v.745h-8.826v-.745c1.959-.381 3.309-.266 3.309-3.904v-7.59zm21.123-.871l.618-6.048h.563c.281.469.643.719 1.062.804.42.08.879.057 1.365.057h11.396c.959 0 1.879.131 2.405-.86h.577l.617 6.048-.75.144c-1.084-3.833-3.081-4.199-6.786-4.199v11.202c0 4.875.336 4.677 4.033 5.225v.747H76.043v-.747c3.687-.548 4.039-.35 4.039-5.225v-11.202c-3.711 0-5.66.366-6.76 4.199l-.753-.145zm27.984 4.429v3.555c0 2.734.017 4.001 3.606 4.001 3.501 0 5.003-1.961 5.763-5.065h.803c.057 2.104-.321 4.178-.968 6.195H93.448v-.744c3.198-.55 3.547-.355 3.547-5.226v-6.354c0-4.874-.349-4.689-3.547-5.237v-.738h15.926l-.502 4.694h-.832c-.193-3.512-2.581-3.562-5.523-3.562h-1.964v6.848h2.286c2.311 0 3.524-.178 4.195-2.623h.711c-.139 2.281-.245 4.548-.118 6.828h-.752c-.525-2.626-1.801-2.571-4.139-2.571h-2.183zm20.2-.92c2.505-.192 4.999-1.271 4.999-4.185 0-2.771-2.576-3.521-4.999-3.521v7.706zm-3.55-3.531c0-3.642-.201-4.146-3.557-4.431v-.733h8.378c3.311 0 7.774 0 7.774 4.29 0 2.106-1.615 3.679-3.501 4.404 1.994 3.937 4.77 8.131 9.214 9.175l-.111.76c-2.4-.131-5.177.111-7.271-1.344-1.37-.965-2.929-3.507-3.745-5.014-1.268-2.406-1.069-2.259-3.63-2.637v2.695c0 3.667-.162 4.889 4.166 5.225v.742h-11.274v-.742c3.196-.55 3.557-.354 3.557-5.225v-7.165z"/><path clip-path="url(#SVGID_2_)" fill="#010101" d="M138.72 180.298c0-2.768-.074-4.721-3.502-5.316v-.739h6.19c3.392 4.413 8.084 8.871 11.949 13.416l.065-.061-.158-8.57c-.06-3.213-.87-3.602-4.047-4.046v-.739h8.186v.739c-2.362.227-2.497 1.357-2.497 5.748v11.983l-1.223.586c-2.63-3.229-9.042-9.695-13.483-14.487-.083 3.021.056 5.844.166 8.786.101 3.31.7 3.521 3.875 4.194v.745h-8.828v-.745c1.966-.381 3.307-.266 3.307-3.904v-7.59zm32.075 3.419l-2.446-6.239-2.322 6.239h4.768zm-5.272 1.6l-.487 1.394c-1.616 4.65-.511 4.736 2.417 5.085v.75h-8.367v-.75c1.461-.46 2.083-.505 2.692-1.938l5.954-13.899-.279-.806c1.058-.38 1.921-1.174 2.555-2.09h.518l5.037 13.137c1.751 4.416 1.557 4.726 4.334 5.596v.75h-9.166v-.75c2.627-.46 2.789-.975 1.297-4.76l-.64-1.719h-5.865zm13.928-5.89l.626-6.048h.554c.276.469.652.719 1.058.804.428.08.885.057 1.37.057h11.384c.973 0 1.883.131 2.424-.86h.563l.628 6.048-.756.144c-1.076-3.833-3.082-4.199-6.785-4.199v11.202c0 4.875.348 4.677 4.036 5.225v.747h-11.63v-.747c3.689-.548 4.043-.35 4.043-5.225v-11.202c-3.721 0-5.654.366-6.756 4.199l-.759-.145zm28.07 7.145c0 4.872.353 4.675 3.558 5.224v.747h-10.668v-.747c3.203-.549 3.552-.352 3.552-5.224v-6.354c0-4.88-.349-4.69-3.552-5.242v-.734h10.668v.734c-3.205.552-3.558.362-3.558 5.242v6.354zm11.046-3.591c0 3.811 1.776 8.791 6.316 8.791 4.264 0 5.742-4.344 5.742-7.872 0-3.814-1.835-8.887-6.433-8.887-4.146.001-5.625 4.608-5.625 7.968m16.42.271c0 6.012-4.522 9.757-10.435 9.757-5.861 0-10.348-3.608-10.348-9.558 0-5.848 4.519-9.676 10.304-9.676 5.668 0 10.479 3.279 10.479 9.477m6.317-2.954c0-2.768-.08-4.721-3.502-5.316v-.739h6.194c3.388 4.413 8.072 8.871 11.953 13.416l.051-.061-.16-8.57c-.06-3.213-.868-3.602-4.042-4.046v-.739h8.185v.739c-2.363.227-2.501 1.357-2.501 5.748v11.983l-1.21.586c-2.639-3.229-9.051-9.695-13.485-14.487-.09 3.021.045 5.844.157 8.786.111 3.31.698 3.521 3.875 4.194v.745h-8.828v-.745c1.967-.381 3.313-.266 3.313-3.904v-7.59zm32.074 3.419l-2.438-6.239-2.323 6.239h4.761zm-5.272 1.6l-.489 1.394c-1.617 4.65-.513 4.736 2.42 5.085v.75h-8.368v-.75c1.451-.46 2.07-.505 2.692-1.938l5.952-13.899-.276-.806c1.055-.38 1.911-1.174 2.561-2.09h.517l5.028 13.137c1.745 4.416 1.564 4.726 4.336 5.596v.75h-9.152v-.75c2.606-.46 2.776-.975 1.284-4.76l-.64-1.719h-5.865zm31.846 7.224h-16.111v-.746c3.204-.549 3.547-.351 3.547-5.224v-6.351c0-4.884-.343-4.691-3.547-5.242v-.737h10.66v.737c-3.72.329-3.56 1.571-3.56 5.242v9.903c0 .875-.409 1.214 2.451 1.214 4.609 0 5.665-1.729 7.81-5.438l.757.299-2.007 6.343zm30.786-11.126l-3.083-7.885-2.924 7.885h6.007zm-6.644 2.039l-.618 1.721c-2.038 5.878-.634 5.982 3.052 6.427v.943H315.98v-.943c1.839-.59 2.615-.643 3.402-2.439l7.475-17.523-.329-1.021c1.324-.47 2.409-1.453 3.223-2.616h.652l6.35 16.538c2.197 5.569 1.959 5.965 5.458 7.062v.943h-11.539v-.943c3.288-.59 3.498-1.228 1.62-6.013l-.809-2.135h-7.389zm26.804-.518c2.497-.192 5.008-1.271 5.008-4.185 0-2.771-2.586-3.521-5.008-3.521v7.706zm-3.555-3.531c0-3.642-.193-4.146-3.555-4.431v-.733h8.376c3.312 0 7.773 0 7.773 4.29 0 2.106-1.608 3.679-3.492 4.404 1.986 3.937 4.763 8.131 9.198 9.175l-.101.76c-2.404-.131-5.17.111-7.278-1.344-1.358-.965-2.926-3.507-3.727-5.014-1.282-2.406-1.084-2.258-3.64-2.637v2.695c0 3.667-.166 4.889 4.174 5.225v.742h-11.284v-.742c3.208-.55 3.555-.354 3.555-5.225v-7.165zm17.696.022l.614-6.048h.572c.263.469.648.719 1.052.804.436.08.874.057 1.379.057h11.386c.949 0 1.879.131 2.41-.86h.572l.62 6.048-.753.144c-1.082-3.833-3.075-4.199-6.778-4.199v11.202c0 4.875.342 4.677 4.031 5.225v.747h-11.64v-.747c3.709-.548 4.046-.35 4.046-5.225v-11.202c-3.717 0-5.654.366-6.762 4.199l-.749-.145zm33.716.255h-.804c-.515-2.207-1.157-4.665-3.929-4.665-1.645 0-2.753 1.217-2.753 2.789 0 4.37 8.863 4.08 8.863 9.708 0 3.88-3.728 5.487-7.155 5.487-1.921 0-3.805-.5-5.475-1.364l-.894-5.339.843-.16c.889 2.647 2.839 5.638 6.03 5.638 1.78 0 3.104-1.163 3.104-2.926 0-4.541-8.874-4.17-8.874-9.504 0-3.582 3.429-5.563 6.72-5.563 1.609 0 3.189.4 4.569 1.198l-.245 4.701zm41.144-5.769h-.067l-7.978 18.98h-1.01l-7.717-18.267h-.056l-.777 13.242c-.214 3.085 1.385 3.085 4.01 3.736v.936h-10.188v-.936c2.509-.75 3.186-.852 3.629-3.573l2.003-14.52c.276-2.521-1.589-2.563-3.591-3.091v-.96h8.915v.689c-.88 1.176.547 3.722 1.018 4.847l4.791 10.996 5.497-12.656c.397-.925 1.153-2.312.276-3.187v-.689h9.589v.96c-3.395.715-3.931 1.253-3.76 4.512l.569 10.964c.234 3.873.279 5.024 4.449 5.708v.936h-13.103v-.936c4.651-.554 4.375-1.666 4.144-5.985l-.643-11.706zm-109.128-33.407h-.067l-7.978 18.977h-1.011L314 141.221h-.057l-.786 13.239c-.207 3.089 1.394 3.089 4.015 3.735v.936h-10.185v-.936c2.508-.75 3.184-.845 3.624-3.583l2.004-14.506c.279-2.518-1.591-2.561-3.585-3.091v-.958h8.915v.695c-.884 1.172.545 3.711 1.016 4.84l4.79 10.991 5.498-12.65c.396-.925 1.153-2.312.27-3.181v-.695h9.595v.958c-3.392.717-3.932 1.252-3.763 4.513l.572 10.962c.234 3.878.28 5.021 4.45 5.705v.936h-13.101v-.936c4.651-.548 4.369-1.661 4.144-5.984l-.645-11.705zm132.057 43.211l-2.445-6.239-2.318 6.239h4.763zm-5.27 1.6l-.498 1.394c-1.602 4.65-.511 4.736 2.432 5.085v.75h-8.371v-.75c1.446-.46 2.072-.505 2.686-1.936l5.959-13.901-.273-.806c1.047-.38 1.904-1.174 2.549-2.09h.514l5.042 13.137c1.746 4.416 1.557 4.726 4.328 5.596v.75h-9.152v-.75c2.62-.46 2.778-.975 1.294-4.76l-.643-1.719h-5.867zm18.975-5.019c0-2.768-.079-4.721-3.492-5.316v-.739h6.191c3.403 4.413 8.079 8.871 11.959 13.416l.045-.061-.159-8.57c-.056-3.213-.854-3.602-4.035-4.046v-.739h8.179v.739c-2.364.227-2.501 1.357-2.501 5.748v11.983l-1.213.586c-2.646-3.229-9.04-9.695-13.478-14.487-.087 3.021.05 5.844.153 8.786.112 3.312.704 3.521 3.879 4.194v.745h-8.835v-.745c1.971-.381 3.307-.266 3.307-3.904v-7.59zm32.084 3.419l-2.456-6.239-2.312 6.239h4.768zm-5.271 1.6l-.483 1.394c-1.621 4.65-.508 4.736 2.42 5.085v.75H496.9v-.75c1.467-.46 2.071-.505 2.701-1.936l5.95-13.901-.269-.806c1.04-.38 1.904-1.174 2.556-2.09h.512l5.03 13.137c1.751 4.416 1.562 4.726 4.334 5.596v.75h-9.145v-.75c2.606-.46 2.768-.975 1.293-4.76l-.65-1.719h-5.866zm34.635 5.135h1.454v.617c-2.871 1.178-5.946 1.933-9.057 1.933-5.574 0-10.625-3.5-10.625-9.311 0-6.494 5.674-9.91 11.52-9.91 2.392 0 4.626.567 6.854 1.425v5.141h-.798c-.813-3.202-2.998-5.331-6.513-5.331-4.302 0-6.713 3.732-6.713 7.701 0 4.963 3.236 9.051 8.338 9.051 1.89 0 1.813-.469 1.979-1.591v-1.396c0-3.506-.193-3.74-3.905-4.256v-.753h9.504v.753c-1.834.46-2.038.776-2.038 2.665v3.262zm12.167-6.595v3.554c0 2.734.033 4.001 3.615 4.001 3.488 0 4.991-1.96 5.767-5.066h.794c.052 2.106-.322 4.18-.96 6.197h-16.312v-.746c3.195-.549 3.551-.355 3.551-5.225v-6.354c0-4.874-.355-4.69-3.551-5.238v-.734h15.937l-.509 4.691h-.838c-.2-3.512-2.584-3.562-5.529-3.562h-1.965v6.847h2.283c2.336 0 3.541-.176 4.211-2.622h.697c-.12 2.282-.244 4.549-.106 6.829h-.769c-.517-2.627-1.788-2.571-4.136-2.571h-2.18zm31.678-6.094h-.062l-6.311 15.065h-.814l-6.104-14.501h-.056l-.623 10.499c-.146 2.461 1.101 2.461 3.163 2.972v.747h-8.069v-.747c1.996-.607 2.533-.677 2.89-2.839l1.581-11.518c.215-1.997-1.262-2.016-2.853-2.46v-.742h7.09v.535c-.7.938.414 2.963.804 3.848l3.798 8.724 4.358-10.034c.318-.737.912-1.846.212-2.537v-.535h7.619v.742c-2.685.572-3.123.998-2.979 3.589l.448 8.704c.186 3.066.218 3.976 3.525 4.523v.747h-10.4v-.747c3.695-.436 3.48-1.329 3.307-4.737l-.524-9.298zm16.814 6.094v3.554c0 2.734.034 4.001 3.611 4.001 3.495 0 5.008-1.96 5.759-5.066h.817c.049 2.106-.338 4.18-.975 6.197h-16.315v-.746c3.203-.549 3.555-.355 3.555-5.225v-6.354c0-4.874-.352-4.69-3.555-5.238v-.734h15.934l-.505 4.691h-.832c-.194-3.512-2.587-3.562-5.536-3.562h-1.958v6.847h2.291c2.314 0 3.526-.176 4.198-2.622h.696c-.119 2.282-.232 4.549-.102 6.829h-.754c-.534-2.627-1.803-2.571-4.148-2.571h-2.181zm16.353-3.559c0-2.768-.074-4.721-3.498-5.316v-.739h6.196c3.387 4.413 8.072 8.871 11.95 13.416l.055-.061-.165-8.57c-.06-3.213-.854-3.602-4.043-4.046v-.739h8.186v.739c-2.36.227-2.501 1.357-2.501 5.748v11.983l-1.206.586c-2.641-3.229-9.047-9.695-13.484-14.487-.092 3.021.05 5.844.15 8.786.105 3.312.705 3.521 3.883 4.194v.745h-8.836v-.745c1.974-.381 3.313-.266 3.313-3.904v-7.59zm21.12-.871l.625-6.048h.573c.27.469.64.719 1.048.804.421.08.869.057 1.373.057h11.38c.97 0 1.885.131 2.426-.86h.561l.622 6.048-.754.144c-1.084-3.833-3.062-4.199-6.783-4.199v11.202c0 4.875.343 4.677 4.027 5.225v.747h-11.619v-.747c3.69-.548 4.037-.35 4.037-5.225v-11.202c-3.711 0-5.654.366-6.755 4.199l-.761-.145zM0 210.238h688.158v2.022H0zm57.964 43.519h-3.791v7.202H46.15v-7.202h-3.861v7.202H38.84v3.597h3.449v8.379h3.861v-8.379h8.023v8.379h3.858v-19.178zm4.933 0v7.202h-3.5v3.597h3.5v8.379h12.631v-3.61h-8.847v-4.769h8.281v-3.597h-8.281v-3.621h8.847v-3.581zm146.041-7.048h8.855v3.413h-8.855zm19.02 13.853l2.628 5.443h-5.234l2.606-5.443zm-9.997 12.374h4.439l1.576-3.52h7.985l1.567 3.52h4.417l-9.987-20.342-9.997 20.342zm-12.788-19.179v7.202h-3.261v3.597h3.261v8.379h12.623v-3.61h-8.857v-4.769h8.276v-3.597h-8.276v-3.621h8.857v-3.581zm-128.619 9.494c0 5.708 4.599 10.159 10.448 10.159 3.289 0 6.233-1.389 8.279-3.935l.147-.205-3.141-2.27-.158.176c-1.209 1.609-3.077 2.538-5.126 2.538-3.455 0-6.373-2.946-6.373-6.463 0-3.494 2.918-6.291 6.373-6.291 2.083 0 3.867.945 5.077 2.652l3.349-2.214-.147-.194c-2.046-2.549-4.99-3.94-8.279-3.94-5.85 0-10.449 4.319-10.449 9.987m39.812-1.928l-9.146-8.07v19.682h3.829v-11.306l5.317 4.672 5.312-4.672v11.306h3.845v-19.682zm21.395 8.37c-3.439 0-6.351-2.801-6.351-6.291 0-3.457 2.912-6.401 6.351-6.401 3.451 0 6.354 2.944 6.354 6.401-.001 3.491-2.904 6.291-6.354 6.291m0-16.43c-5.852 0-10.441 4.445-10.441 10.14 0 5.7 4.589 10.008 10.441 10.008 5.883 0 10.467-4.308 10.467-10.008 0-5.695-4.584-10.14-10.467-10.14m12.271 19.673h3.838v-11.149l12.248 11.947v-19.977h-3.859v10.52l-12.227-11.338zm33.072-19.179h-14.915v3.664h5.569v15.514h3.847v-15.514h5.572v-3.664zm59.057 0h-3.792v19.178h11.1v-3.685h-7.252v-15.493zm-53.065 7.211v-3.64h6.015c1.696 0 2.296 1.111 2.296 2.022 0 .879-.6 1.617-2.296 1.617h-6.015zm7.445 3.505l.254-.038c2.861-.577 4.447-2.192 4.447-5.114 0-3.6-2.336-5.579-6.427-5.579h-9.575v7.218h-3.106v3.597h3.106v8.377h3.856v-8.377h3.164l4.815 8.377h4.558c-.123-.19-5.092-8.461-5.092-8.461m253.303 6.102c.277 0 .578.004.578-.352 0-.274-.227-.316-.441-.316h-.458v.668h.321zm-.322 1.132h-.271v-2.019h.777c.457 0 .653.184.653.544 0 .353-.216.527-.453.564l.56.91h-.309l-.539-.91h-.419v.911zm1.801-1.021c0-.824-.62-1.479-1.426-1.479-.827 0-1.433.654-1.433 1.479 0 .821.605 1.479 1.433 1.479.806-.001 1.426-.658 1.426-1.479m.268 0c0 .934-.758 1.693-1.693 1.693s-1.712-.76-1.712-1.693c0-.938.776-1.711 1.712-1.711s1.693.773 1.693 1.711M270.04 229.172h1.006v63.159h-1.006zm203.801 0h1.005v63.159h-1.005zm-102.267 22.456l-.781-.021c-.739-3.647-1.091-7.729-6.267-7.889-3.263-.102-6.169 1.974-6.095 5.098.211 7.503 15.099 5.53 14.864 16.302-.104 5.266-5.363 8.239-11.202 8.239-3.451 0-6.354-1.288-8.435-2.633l-1.115-7.199.865.009c1.057 4.052 4.092 8.366 9.353 8.376 3.414.009 6.171-1.839 6.211-4.999.201-9.792-14.319-7.191-14.67-15.824-.268-6.381 5.493-8.77 10.457-8.605 2.562.077 5.145.752 7.333 1.953l-.518 7.193zm23.156 14.827l6.91-17.348c1.058-2.409 1.636-4.587.677-5.249l.085-.698h9.533v.669c-2.754.551-4.439 1.61-4.237 4.675l1.188 15.861c.548 6.065.385 7.039 5.058 7.812v.65h-14.281v-.65c3.337-.533 5.459-.916 5.205-4.759l-1.293-19.067h-.088l-10.037 24.477h-.472l-10.753-23.451h-.076s-.443 11.392-.681 18.273c-.051 1.681-.01 3.659 5.252 4.527v.65h-12.09v-.65c3.837-.657 4.513-2.979 4.783-6.068l1.069-12.161.424-6.031c.122-2.963-2.232-3.882-4.785-4.088l-.02-.669h9.359l.045.488c-.935.992.259 3.62.546 4.311l8.679 18.496zm53.009-23.293v.668c-3.852.444-4.129 2.872-4.28 8.624l-.252 9.565c-.133 5.632-2.473 11.336-11.889 11.336-13.145 0-11.782-9.755-11.782-13.263v-9.768c-.134-4.496-.176-5.802-5.263-6.495v-.668h14.629v.668c-5.545.81-5.628 1.689-5.628 6.495v8.936c0 .832-1.365 12.087 10.264 12.087 9.145 0 8.274-8.975 8.274-14.305v-4.589c0-5.546-.436-8.072-6.369-8.624v-.668h12.296zm-116.606 27.744h.237v.244h-.237z"/><path clip-path="url(#SVGID_2_)" fill="#010101" d="M329.89 269.471v.242h1.234v1.194h.244v-1.436z"/><path clip-path="url(#SVGID_2_)" fill="#010101" d="M329.891 269.714v.264h.973v.928h.261v-1.192zm-25.789 1.191h26.579v.018h-26.579zm24.839-18.558l.86.387v1.37h-.796v.553h1.332v-2.273l-1.396-.645zm.711 17.124h.24v.241h-.24z"/><path clip-path="url(#SVGID_2_)" fill="#010101" d="M328.94 253.702h.443v-.707l-.443-.206zm-6.682 14.329h-16.456v.227h23.2v-.227zm6.439-15.804l.244.12v-.608l-.244-.121zm-.256-.123l.253.117v-.603l-.253-.12z"/><path clip-path="url(#SVGID_2_)" fill="#010101" d="M328.109 246.333l.06.163.02.082h.515v5.039l.239.124v-5.408z"/><path clip-path="url(#SVGID_2_)" fill="#010101" d="M328.188 246.577l.084.26h.169v4.659l.26.12v-5.039z"/><path clip-path="url(#SVGID_2_)" fill="#010101" d="M327.929 246.577h-10.14l.565.26h9.919l-.086-.26zm-1.737 7.997h2.008v.082h-2.008z"/><path clip-path="url(#SVGID_2_)" fill="#010101" d="M327.845 246.333l.086.245h.261l-.024-.082-.058-.163z"/><path clip-path="url(#SVGID_2_)" fill="#010101" d="M327.563 246.333h-20.584l-.1.245h10.143l.381-.181.387.181h10.139l-.082-.245zm-1.375 21.561h2.01v-13.239H329v13.377h-6.74v-.138h2.031v-13.239h1.897zm-3.929-13.32h2.027v.082h-2.027z"/><path clip-path="url(#SVGID_2_)" fill="#010101" d="M322.263 267.894v.138h-3.926v-.138h2.043v-13.239h1.883zm-3.926-13.32h2.041v.082h-2.041zm1.151-15.442h.506v-.104l-.506-.102z"/><path clip-path="url(#SVGID_2_)" fill="#010101" d="M316.456 267.894v-13.239h1.883v13.377h-3.906v-.138zm-1.642-30.348v1.481l.51-.101v-.968l2.079-.57 2.086.57v.968l.505.101v-1.481l-2.591-.665zm1.62 9.291h1.92l10.084 4.662v.605l-10.956-5.041-.082-.038-11.046 5.103v-.611zm.588-.26l-.593.26h1.925l-.564-.26zm0 0h.768l-.387-.184zm-2.592 7.997h2.023v.082h-2.023z"/><path clip-path="url(#SVGID_2_)" fill="#010101" d="M314.814 239.027v.105h.51v-.206zm-2.269 28.867v-13.239h1.888v13.377h-3.929v-.138zm-2.043-13.32h2.042v.082h-2.042zm-3.907 0h2.019v.082h-2.019z"/><path clip-path="url(#SVGID_2_)" fill="#010101" d="M317.403 239.228a10.808 10.808 0 00-10.164 7.105h-.259c1.539-4.291 5.627-7.364 10.423-7.364 4.8 0 8.883 3.073 10.445 7.364h-.283a10.804 10.804 0 00-10.162-7.105"/><path clip-path="url(#SVGID_2_)" fill="#010101" d="M317.403 238.969c-4.796 0-8.884 3.072-10.423 7.371h-.264a11.295 11.295 0 018.098-7.311v.103h.506v-.202a9.96 9.96 0 012.083-.208c.708 0 1.417.064 2.085.208v.202h.505v-.103c3.725.871 6.804 3.583 8.122 7.311h-.267c-1.562-4.299-5.645-7.371-10.445-7.371m-10.525 7.608h-.244l-.098.26h9.895l.591-.26z"/><path clip-path="url(#SVGID_2_)" fill="#010101" d="M306.719 246.333l-.063.163-.023.082h.248l.096-.245zm-.915 7.771v.551h.792v-.085h2.025v.085h1.876v-.085h2.048v.085h1.884v-.085h2.028v.085h1.879v-.085h2.043v.085h1.882v-.085h2.031v.085h1.895v-.085h2.002v.085h.818v-.551z"/><path clip-path="url(#SVGID_2_)" fill="#010101" d="M305.807 268.031v-13.377h.786v13.236h2.025v-13.236h1.884v13.377zm22.631-14.671h-22.084v-.812l11.046-5.081 11.038 5.081v.812zm-11.038-5.286l-10.967 5.065h21.922l-10.955-5.065z"/><path clip-path="url(#SVGID_2_)" fill="#010101" d="M328.441 253.359h-22.088v-.806l-.244.116v.952h22.585v-.952l-.253-.116zm-22.333-1.743v.61l.25-.098v-.611zm0-5.039v5.039l.25-.1v-4.679h.176l.099-.26z"/><path clip-path="url(#SVGID_2_)" fill="#010101" d="M328.697 253.624h-22.59v-.953l-.264.118v.913h23.098v-.913l-.244-.118zm-22.853-1.886v.61l.264-.121v-.61z"/><path clip-path="url(#SVGID_2_)" fill="#010101" d="M305.844 246.333v5.408l.264-.124v-5.039h.528l.018-.082.064-.163zm-.445 6.663v.706h.445v-.913zm0 15.543v.933h.165v-.711h23.653v.711h.166v-.933z"/><path clip-path="url(#SVGID_2_)" fill="#010101" d="M305.162 268.294v1.177h.24v-.932h23.982v.932h.273v-1.177zm24.221 1.177h-.166v.107h-23.652v-.107h-.404v.244h24.486v-.244z"/><path clip-path="url(#SVGID_2_)" fill="#010101" d="M304.893 269.471h.269v.241h-.269zm24.114-1.44v.228h-23.198v-.228h-.918v1.44h.266v-1.176h24.493v1.176h.239v-1.44zm.642 1.683H304.89v.264h25v-.264zm-25.199-17.33v2.271h1.354v-.551h-.806v-1.372l.116-.044.739-.346v-.604z"/><path clip-path="url(#SVGID_2_)" fill="#010101" d="M329.891 269.977H303.94v.93h.166v-.788h26.577v.788h.181v-.93z"/><path clip-path="url(#SVGID_2_)" fill="#010101" d="M303.679 269.714v1.192h.261v-.928h.952v-.264zm27.188 1.192h-.184v.019h-26.579v-.019h-.424v.244h27.447v-.244z"/><path clip-path="url(#SVGID_2_)" fill="#010101" d="M303.439 270.906h.247v.244h-.247z"/><path clip-path="url(#SVGID_2_)" fill="#010101" d="M303.433 269.471v1.436h.247v-1.194h1.211v-.242zm27.694 1.678h-27.692v.266h27.935v-.266z"/><path clip-path="url(#SVGID_2_)" fill="#010101" d="M332.179 271.414v.827h-29.526v-.827h-.187v.952h29.88v-.952z"/><path clip-path="url(#SVGID_2_)" fill="#010101" d="M331.368 271.149v.266h.977v.951h-29.88v-.951h.968v-.266h-1.211v1.459h30.384v-1.459z"/><path clip-path="url(#SVGID_2_)" fill="#010101" d="M331.368 270.906v.243h1.238v1.459h-30.384v-1.459h1.211v-.243h-1.471v1.959h30.885v-1.959z"/><path clip-path="url(#SVGID_2_)" fill="#18150E" d="M320.246 286.041c-15.081 0-27.308-12.226-27.308-27.308s12.227-27.308 27.308-27.308c15.083 0 27.308 12.226 27.308 27.308s-12.226 27.308-27.308 27.308"/><path clip-path="url(#SVGID_2_)" fill="#FFF" d="M320.243 285.1c-14.536 0-26.363-11.829-26.363-26.362 0-14.537 11.827-26.363 26.363-26.363 14.541 0 26.366 11.826 26.366 26.363 0 14.533-11.825 26.362-26.366 26.362m0-51.545c-13.883 0-25.179 11.295-25.179 25.183 0 13.883 11.296 25.178 25.179 25.178 13.884 0 25.185-11.295 25.185-25.178 0-13.888-11.301-25.183-25.185-25.183"/><path clip-path="url(#SVGID_2_)" fill="#FFF" d="M307.861 254.857h24.795v15.284h-24.795z"/><path clip-path="url(#SVGID_2_)" fill="#18150E" d="M308.698 255.501h2.174v14.246h-2.174zm4.188 0h2.175v14.246h-2.175zm4.181 0h2.177v14.246h-2.177zm4.193 0h2.173v14.246h-2.173zm4.183 0h2.178v14.246h-2.178zm4.185 0h2.175v14.246h-2.175zm-21.435-8.542h24.125v7.516h-24.125z"/><path clip-path="url(#SVGID_2_)" fill="#FFF" d="M332.736 254.891h-24.954v-8.345h24.954v8.345zm-24.129-.831h23.298v-6.684h-23.298v6.684z"/><path clip-path="url(#SVGID_2_)" fill="#18150E" d="M320.251 254.771h13.026v-1.087l-13.026-6.018-13.029 6.018v1.087z"/><path clip-path="url(#SVGID_2_)" fill="#FFF" d="M334.341 255.839h-28.186v-2.832l14.096-6.514 14.09 6.514v2.832zm-24.628-2.131h21.073l-10.535-4.869-10.538 4.869z"/><path clip-path="url(#SVGID_2_)" fill="#18150E" d="M333.574 255.07h-26.647v-1.571l13.321-6.156 13.326 6.156v1.571zm-26.055-.592h25.463v-.604l-12.733-5.88-12.729 5.88v.604zm12.738-15.636c-5.241 0-9.68 3.398-11.24 8.113h22.478a11.83 11.83 0 00-11.238-8.113"/><path clip-path="url(#SVGID_2_)" fill="#FFF" d="M332.071 247.37h-23.626l.181-.545a12.23 12.23 0 0111.632-8.401c5.291 0 9.971 3.377 11.632 8.401l.181.545zm-22.466-.826h21.304a11.406 11.406 0 00-10.651-7.29 11.403 11.403 0 00-10.653 7.29"/><path clip-path="url(#SVGID_2_)" fill="#FFF" d="M317.34 237.212v1.802h.829v-1.162l2.082-.547 2.084.547v1.162h.827v-1.802l-2.911-.763zm-13.306 36.022h32.447v1.536h-32.447z"/><path clip-path="url(#SVGID_2_)" fill="#FFF" d="M303.615 275.188h33.276v-2.364h-33.276v2.364zm.834-1.541h31.616v.712h-31.616v-.712z"/><path clip-path="url(#SVGID_2_)" fill="#FFF" d="M305.598 271.695h29.319v1.539h-29.319z"/><path clip-path="url(#SVGID_2_)" fill="#FFF" d="M305.183 273.647h30.149v-2.366h-30.149v2.366zm.828-1.535h28.493v.706h-28.493v-.706z"/><path clip-path="url(#SVGID_2_)" fill="#FFF" d="M307.158 270.163h26.194v1.54h-26.194z"/><path clip-path="url(#SVGID_2_)" fill="#FFF" d="M306.743 272.124h27.026v-2.373h-27.026v2.373zm.832-1.539h25.364v.706h-25.364v-.706z"/><path clip-path="url(#SVGID_2_)" fill="#18150E" d="M304.485 273.503h31.547v.877h-31.547zm1.581-1.398h28.388v.875h-28.388zm1.554-1.445h25.273v.875H307.62zm12.626-21.91l11.345 5.17h-22.689z"/><path clip-path="url(#SVGID_2_)" fill="#010101" d="M39.184 94.812h13.774l3.843-84.242H42.708V0h25.625l34.431 71.589L137.357 0h25.465v10.57h-14.093l3.843 84.242h13.612v10.57h-38.756v-10.57h13.452l-2.722-73.671-33.953 69.346h-3.202L67.051 21.141l-2.563 73.671h13.294v10.57H39.184zm146.153 0h13.773l3.845-84.242H188.86V0h25.625l34.432 71.589L283.51 0h25.466v10.57h-14.094l3.844 84.242h13.614v10.57h-38.758v-10.57h13.451l-2.723-73.671-33.952 69.346h-3.201l-33.952-69.346-2.564 73.671h13.293v10.57h-38.597z"/><path clip-path="url(#SVGID_2_)" fill="#821645" d="M334.05 94.812h14.254V10.57H334.05V0h40.36v10.57h-14.254v84.242h14.254v10.57h-40.36zm133.202-35.874l-17.94-49.167-18.096 49.167h36.036zm-71.431 35.874h10.09l31.551-84.4h-12.011V0h48.045v10.412h-12.011l31.55 84.4h10.092v10.57h-35.236V94.971h12.331l-9.447-25.944h-43.082l-9.45 25.944h12.812v10.411h-35.232v-10.57zm126.151 0h13.773l3.845-84.242h-14.097V0h25.625l34.435 71.589L620.146 0h25.466v10.57h-14.096l3.843 84.242h13.615v10.57h-38.759v-10.57h13.453l-2.722-73.671-33.954 69.346h-3.201l-33.954-69.346-2.562 73.671h13.294v10.57h-38.597z"/><path clip-path="url(#SVGID_2_)" d="M557.908 250.561v-8.949h1.42c2.317 0 3.794 2.377 3.691 4.688-.084 2.109-.387 4.261-3.346 4.261h-1.765zm8.758-4.299c-.155-3.571-3.656-4.854-6.935-4.854h-8.612v.203h2.721v19.551h-2.67v.194h9.701c3.518 0 7.16-1.676 7.228-5.447.031-3.646-4.221-5.263-5.606-5.244 1.031-.137 4.308-1.185 4.173-4.403m-2.704 9.361c.021 2.627-.173 5.539-3.833 5.539h-2.221v-10.405h1.746c2.945 0 4.261 2.367 4.308 4.866m5.445-.986c.022 3.899 2.999 7.26 6.909 7.271 3.549.024 6.893-3.423 6.854-7.438-.034-3.869-2.991-7.211-6.768-7.274-3.426-.057-7.042 3.468-6.995 7.441m3.724-.048c0-3.077.199-7.238 3.271-7.214 3.061 0 3.15 4.244 3.098 7.333-.061 2.979.174 7.006-3.184 7.027-3.212.044-3.185-4.11-3.185-7.146m15.022.21c0 3.131.202 6.521 3.459 6.445 2.942-.034 3.94-3.707 3.715-4.865h.226c-.045 2.541-1.119 5.342-4.99 5.463-3.533.129-6.061-3.125-6.086-6.866-.027-3.82 2.803-7.279 6.628-7.286 2.167-.049 4.194 1.548 4.223 3.714.011 1.355-.861 2.34-2.056 2.34-1.116 0-2.041-.944-2.041-2.062 0-1.12.888-2.056 1.999-2.09.657-.008 1.412.517 1.57.688-.681-1.433-1.803-2.298-3.409-2.298-3.159-.023-3.238 3.74-3.238 6.817m12.135 0c0 3.131.205 6.521 3.442 6.445 2.959-.034 3.95-3.707 3.724-4.865h.227c-.042 2.541-1.108 5.342-4.979 5.463-3.559.129-6.079-3.125-6.108-6.866-.003-3.82 2.822-7.279 6.637-7.286 2.178-.049 4.202 1.548 4.224 3.714.025 1.355-.854 2.34-2.046 2.34-1.127 0-2.052-.944-2.052-2.062 0-1.12.877-2.056 2.001-2.09.666-.008 1.424.517 1.564.688-.668-1.433-1.79-2.298-3.391-2.298-3.174-.023-3.243 3.74-3.243 6.817m8.623-.162c.023 3.899 3.012 7.26 6.93 7.271 3.552.024 6.887-3.423 6.847-7.438-.018-3.869-3.003-7.211-6.763-7.274-3.425-.057-7.045 3.468-7.014 7.441m3.755-.048c0-3.077.176-7.238 3.259-7.214 3.083 0 3.156 4.244 3.094 7.333-.033 2.979.163 7.006-3.178 7.027-3.207.044-3.175-4.11-3.175-7.146m24.617 6.574h2.335v.195h-7.566v-.195h1.606v-10.898c0-1.112-.364-2.454-1.49-2.441-1.996.011-2.867 3.246-2.867 4.688v8.652h1.74v.195h-7.411v-.195h2.174V247.89h-2.445v-.2h5.942v3.085c.215-1.579 1.655-3.546 3.733-3.459 2.689.108 4.249 2.014 4.249 4.992v8.855zm7.166-20.405a2.093 2.093 0 012.043 2.091 2.085 2.085 0 01-2.043 2.097c-1.187.034-2.187-.976-2.161-2.148.027-1.144.997-2.062 2.161-2.04m1.895 20.405h2.388v.195h-8.363v-.195h2.368v-13.29h-2.328v-.184h5.936v13.474zm-139.427-17.642c-.981-1.748-2.917-2.866-4.983-2.866-3.049 0-5.205 2.143-5.205 5.162 0 1.622.747 2.81 2.101 3.646l3.684 1.962c1.753.856 4.112 1.825 4.112 4.147 0 2.7-2.359 4.799-5.028 4.799-2.465 0-4.063-1.512-4.916-3.681l-1.151.528c.949 2.617 3.167 4.371 6.009 4.371 3.307 0 6.382-2.559 6.382-5.929 0-1.832-.784-3.08-2.332-4.061l-3.873-2.028c-1.653-.78-3.694-1.661-3.694-3.803 0-2.15 1.648-3.892 3.857-3.892 1.893 0 3.218.94 4.136 2.401l.901-.756zm6.015 16.564v-17.938h2.358c2.535 0 4.658.453 6.611 2.212 1.906 1.745 2.932 4.197 2.932 6.782a9.162 9.162 0 01-2.7 6.498c-1.945 1.924-4.159 2.445-6.843 2.445h-2.358zm-1.293 1.242h3.687c3.021 0 5.422-.558 7.676-2.725 2.049-1.963 3.137-4.655 3.137-7.461 0-2.919-1.105-5.646-3.241-7.654-2.243-2.077-4.608-2.562-7.571-2.562h-3.687v20.402zm27.73-7.941h-7.984l4.009-9.845 3.975 9.845zm.503 1.218l2.723 6.723h1.335l-8.536-21.073-8.52 21.073h1.296l2.74-6.723h8.962zm-37.614 13.248h1.335a2.526 2.526 0 00-.335-1.164 2.425 2.425 0 00-.837-.8 3.594 3.594 0 00-1.216-.487 7.236 7.236 0 00-1.51-.147c-.479 0-.956.05-1.416.147-.459.1-.863.234-1.239.43a2.416 2.416 0 00-.855.758 1.808 1.808 0 00-.327 1.079c0 .367.094.69.305.942.178.24.428.453.754.598.32.162.696.293 1.093.393.41.084.815.18 1.227.267.43.055.854.129 1.24.187.419.076.776.185 1.093.289.326.093.576.24.764.43.201.166.303.391.303.68 0 .3-.087.555-.245.734l-.616.469a3.436 3.436 0 01-.879.233 8.158 8.158 0 01-.941.068 5.61 5.61 0 01-1.163-.115 3.225 3.225 0 01-.984-.363 2.159 2.159 0 01-.686-.604 1.702 1.702 0 01-.246-.911h-1.344c0 .498.111.936.346 1.315.231.352.553.654.961.894a4.36 4.36 0 001.369.517c.533.11 1.105.166 1.705.166.48 0 .978-.033 1.446-.129a4.35 4.35 0 001.348-.422c.365-.2.702-.447.955-.742.235-.325.401-.703.401-1.143a1.72 1.72 0 00-.322-1.019 2.292 2.292 0 00-.775-.66 4.475 4.475 0 00-1.069-.425 12.235 12.235 0 00-1.256-.269c-.408-.068-.817-.142-1.214-.208-.418-.06-.776-.166-1.102-.25a2.731 2.731 0 01-.775-.379.808.808 0 01-.281-.629c0-.267.06-.5.197-.656l.534-.442c.229-.117.488-.196.764-.238.295-.042.584-.079.866-.079.745 0 1.335.144 1.793.42.475.248.761.675.834 1.265m8.472 1.776h1.307c-.063-.34-.172-.649-.364-.896a2.03 2.03 0 00-.718-.662 3.277 3.277 0 00-1.006-.355 5.18 5.18 0 00-1.225-.134c-.576 0-1.127.087-1.591.261-.438.16-.823.385-1.122.675-.285.297-.525.615-.669 1.008a3.59 3.59 0 00-.22 1.258c0 .439.074.848.22 1.232.146.365.394.687.684.955.297.269.679.473 1.107.619.464.143.997.211 1.56.211.998 0 1.745-.188 2.322-.596.563-.394.924-.969 1.063-1.7h-1.286c-.076.472-.281.826-.646 1.071-.354.247-.832.382-1.461.382-.397 0-.735-.062-1.021-.188a1.706 1.706 0 01-.69-.478l-.399-.7a2.807 2.807 0 01-.119-.809c0-.302.042-.597.119-.88.084-.275.21-.534.376-.739.184-.223.453-.385.74-.521.295-.126.693-.195 1.14-.195.542 0 .963.105 1.274.308.314.224.537.499.625.873m2.761-4.183v8.232h1.256v-3.361c0-.271.042-.509.132-.734l.428-.604.684-.389a3.287 3.287 0 011.031-.146c.482 0 .858.11 1.138.332.269.21.421.5.421.865v4.036h1.237v-3.92c0-.318-.036-.605-.126-.858a1.288 1.288 0 00-.439-.708 1.923 1.923 0 00-.806-.45c-.332-.112-.742-.161-1.251-.161l-.7.049-.708.205-.606.3-.396.46h-.037v-3.148h-1.258zm7.819 5.272c0 .424.078.829.233 1.214.161.368.406.7.716.987.326.284.705.489 1.161.663.469.145 1 .219 1.612.219a5.36 5.36 0 001.6-.219c.453-.174.844-.379 1.164-.663a3.32 3.32 0 00.72-.987c.147-.385.231-.79.231-1.214 0-.45-.084-.851-.231-1.234a3.053 3.053 0 00-.72-.99 3.31 3.31 0 00-1.164-.661 4.8 4.8 0 00-1.6-.253c-.612 0-1.144.09-1.612.253a3.323 3.323 0 00-1.161.661c-.31.288-.555.598-.716.99a3.22 3.22 0 00-.233 1.234m1.336 0c0-.366.067-.685.185-.972.116-.276.29-.523.495-.711.237-.194.478-.337.768-.439.299-.095.602-.151.938-.151.334 0 .632.057.908.151.289.103.556.245.782.439.209.188.384.435.488.711.146.287.211.605.211.972 0 .349-.065.678-.211.945a1.864 1.864 0 01-.488.719 2.671 2.671 0 01-.782.429 2.606 2.606 0 01-.908.145c-.337 0-.64-.044-.938-.145a2.703 2.703 0 01-.768-.429 2.065 2.065 0 01-.495-.719 2.39 2.39 0 01-.185-.945m7.174 0c0 .424.071.829.23 1.214.161.368.381.7.72.987.313.284.688.489 1.159.663.466.145 1 .219 1.601.219.621 0 1.146-.074 1.595-.219.479-.174.856-.379 1.177-.663.312-.287.562-.619.714-.987.152-.385.224-.79.224-1.214 0-.45-.071-.851-.224-1.234-.152-.393-.402-.702-.714-.99a3.144 3.144 0 00-1.177-.661c-.448-.163-.974-.253-1.595-.253-.601 0-1.135.09-1.601.253a3.072 3.072 0 00-1.159.661 2.473 2.473 0 00-.72.99c-.158.383-.23.784-.23 1.234m1.327 0c0-.366.053-.685.179-.972.121-.276.298-.523.521-.711.207-.194.461-.337.75-.439.295-.095.605-.151.933-.151.326 0 .635.057.929.151.3.103.54.245.758.439a2.237 2.237 0 01.701 1.683c0 .349-.061.678-.195.945a2.128 2.128 0 01-.506.719 2.317 2.317 0 01-.758.429 2.833 2.833 0 01-.929.145c-.327 0-.638-.044-.933-.145a2.26 2.26 0 01-.75-.429 1.955 1.955 0 01-.521-.719c-.126-.267-.179-.597-.179-.945m7.648-5.272h1.266v8.234h-1.266zm6.92 5.272c0 .424.07.829.245 1.214.148.368.391.7.708.987.31.284.693.489 1.167.663a5.43 5.43 0 001.609.219c.607 0 1.145-.074 1.603-.219.458-.174.84-.379 1.156-.663.313-.287.552-.619.708-.987.155-.385.237-.79.237-1.214 0-.45-.082-.851-.237-1.234-.156-.393-.395-.702-.708-.99a3.196 3.196 0 00-1.156-.661 4.78 4.78 0 00-1.603-.253c-.604 0-1.144.09-1.609.253a3.069 3.069 0 00-1.167.661c-.317.288-.56.598-.708.99-.175.383-.245.784-.245 1.234m1.349 0a2.5 2.5 0 01.174-.972c.121-.276.305-.523.513-.711.225-.194.468-.337.761-.439.293-.095.611-.151.933-.151s.632.057.911.151c.297.103.556.245.764.439.239.188.391.435.52.711.112.287.183.605.183.972 0 .349-.07.678-.183.945-.129.287-.28.521-.52.719-.208.188-.467.321-.764.429-.279.101-.59.145-.911.145s-.64-.044-.933-.145a2.466 2.466 0 01-.761-.429 2.135 2.135 0 01-.513-.719c-.119-.267-.174-.597-.174-.945m8.084-2.128v5.089h1.27v-5.089h1.479v-.862h-1.479v-.844l.245-.521c.157-.091.415-.158.717-.158l.359.04.354.055v-.853l-.424-.066-.386-.013c-.696 0-1.217.126-1.58.374-.361.237-.556.603-.556 1.087v.899h-1.282v.862h1.283zm8.241-3.144v8.233h1.33v-6.853h.015l3.308 6.853h1.201l3.313-6.853h.028v6.853h1.314v-8.233h-1.921l-3.346 6.922-3.323-6.922zm17.4 5.164v1.003l-.129.442-.431.435a2.305 2.305 0 01-.73.332c-.295.097-.632.134-1.062.134l-.56-.042-.471-.154-.33-.27-.118-.411.197-.575.566-.344c.227-.069.498-.123.779-.145.276-.052.565-.082.843-.091.284-.033.565-.082.821-.119l.625-.195zm2.037 3.049v-.767l-.388.063-.337-.154-.067-.512v-3.083c0-.343-.079-.612-.262-.832-.144-.216-.37-.374-.654-.503a3.613 3.613 0 00-.934-.245 14.07 14.07 0 00-1.015-.047c-.438 0-.822.031-1.222.105a3.017 3.017 0 00-1.024.348 2.305 2.305 0 00-.722.607 1.81 1.81 0 00-.267.94h1.236c.047-.446.234-.741.568-.888.374-.163.813-.247 1.351-.247l.597.047.542.132.416.279.156.537-.21.427-.563.213c-.237.049-.51.087-.827.105-.307.05-.647.074-.981.134-.332.045-.648.098-.975.164a3.432 3.432 0 00-.818.321l-.572.519c-.163.218-.231.486-.231.821 0 .292.058.558.216.773l.519.519c.25.146.521.222.814.283.312.067.636.079.995.079.522 0 1.029-.069 1.466-.19.471-.153.877-.4 1.232-.717 0 .316.087.563.269.717.202.121.465.19.784.19.392.003.698-.03.908-.138m1.178-5.934v5.953h1.248v-3.359c0-.271.048-.511.129-.737l.45-.601c.177-.171.422-.306.692-.393.276-.096.611-.141.998-.141.492 0 .861.109 1.15.332.266.21.411.5.411.862v4.036h1.253v-3.921c0-.318-.031-.605-.138-.857a1.554 1.554 0 00-.426-.706 2.039 2.039 0 00-.813-.447c-.326-.119-.756-.163-1.262-.163-1.127 0-1.95.364-2.484 1.063h-.042v-.922h-1.166zm12.976 2.885v1.003l-.129.442-.43.435c-.18.129-.427.245-.717.332-.299.097-.666.134-1.076.134l-.565-.042-.461-.154-.34-.27-.105-.411.198-.575.562-.344c.227-.069.487-.123.77-.145a5.7 5.7 0 01.842-.091c.29-.033.577-.082.821-.119l.63-.195zm2.033 3.049v-.767l-.382.063-.35-.154-.056-.512v-3.083c0-.343-.087-.612-.253-.832-.152-.216-.387-.374-.652-.503a4.255 4.255 0 00-.927-.245 15.217 15.217 0 00-1.027-.047c-.439 0-.842.031-1.222.105a2.775 2.775 0 00-1.014.348c-.297.147-.561.354-.72.607-.178.264-.272.554-.289.94h1.248c.027-.446.232-.741.58-.888.357-.163.806-.247 1.348-.247l.568.047.556.132.41.279.15.537-.187.427-.571.213c-.247.049-.52.087-.832.105-.316.05-.637.074-.972.134-.346.045-.663.098-.989.164a4.042 4.042 0 00-.827.321l-.556.519a1.427 1.427 0 00-.231.821c0 .292.068.558.192.773l.542.519c.239.146.519.222.818.283.314.067.633.079 1 .079.515 0 1.007-.069 1.454-.19.466-.153.864-.4 1.21-.717 0 .316.104.563.291.717.192.121.463.19.784.19.406.003.678-.03.906-.138m4.258-.772c-.421 0-.764-.067-1.034-.191a1.98 1.98 0 01-.675-.524c-.168-.239-.3-.481-.354-.753a3.349 3.349 0 01-.102-.793c0-.289.047-.573.118-.832.095-.263.216-.494.411-.692.171-.194.41-.35.691-.471a2.849 2.849 0 011.048-.185c.383 0 .728.068 1 .185.275.126.51.276.675.5l.382.68c.085.242.11.509.11.771 0 .269-.034.559-.135.838a2.78 2.78 0 01-.362.753c-.203.202-.43.394-.723.524-.293.122-.648.19-1.05.19m3.53.287v-5.45h-1.189v.858h-.019a1.955 1.955 0 00-.942-.742 3.5 3.5 0 00-1.341-.258c-.65 0-1.213.103-1.663.292a3.065 3.065 0 00-1.104.756 2.54 2.54 0 00-.581 1.014 3.364 3.364 0 00-.189 1.101c0 .395.062.787.211 1.153.149.371.352.676.645.956.286.265.635.479 1.069.645.42.16.926.234 1.5.234.495 0 .966-.074 1.398-.259.45-.168.761-.434.975-.811h.042v.401c0 .328-.048.626-.124.916-.09.26-.216.494-.409.681a1.543 1.543 0 01-.718.464c-.277.118-.637.19-1.051.19l-.65-.072-.627-.15-.492-.3-.211-.447h-1.256c.024.315.135.59.314.808.191.246.446.406.756.548.292.137.636.234.995.306.379.05.736.079 1.098.079 1.215 0 2.119-.24 2.701-.714.578-.488.862-1.226.862-2.199m8.417-1.38h-1.233a1.418 1.418 0 01-.687.869c-.34.195-.772.295-1.29.295-.421 0-.781-.062-1.104-.158a2.194 2.194 0 01-.748-.429l-.434-.63-.114-.731h5.746a3.644 3.644 0 00-.143-1.146 2.941 2.941 0 00-.557-1.113c-.275-.35-.639-.624-1.102-.843-.427-.205-1.009-.326-1.687-.326-.51 0-.994.084-1.441.235a3.422 3.422 0 00-1.132.628 2.958 2.958 0 00-.745.996c-.18.378-.272.794-.272 1.245.027.456.104.881.248 1.254.147.391.388.715.693.983.307.279.692.497 1.129.658.461.146.995.219 1.593.219.888 0 1.601-.152 2.162-.498.592-.331.938-.844 1.118-1.508m-1.214-1.664h-4.396l.216-.645.416-.547.664-.349c.271-.097.572-.145.896-.145.332 0 .6.048.85.145.274.076.499.203.686.349l.479.54.189.652zm2.636-2.405v5.953h1.276v-3.699l.093-.427.358-.515.639-.412c.272-.118.585-.178.947-.178.268 0 .499.045.688.106l.45.27.227.429.068.514v3.912h1.251v-3.699c0-.464.191-.848.537-1.127.36-.264.85-.404 1.458-.404.316 0 .563.045.753.106l.464.285.227.418.062.509v3.912h1.256v-4.368c0-.306-.062-.558-.21-.775l-.52-.557a2.328 2.328 0 00-.806-.292c-.284-.073-.626-.103-1.027-.103-.486 0-.968.081-1.389.263a2.328 2.328 0 00-1.012.75 1.396 1.396 0 00-.809-.778 3.49 3.49 0 00-1.273-.234c-1.09 0-1.914.339-2.493 1.013h-.037v-.871h-1.178zm19.184 4.069h-1.258c-.1.391-.325.664-.68.869-.339.195-.755.295-1.3.295-.416 0-.779-.062-1.096-.158a2.439 2.439 0 01-.746-.429l-.431-.63-.118-.731h5.739a3.097 3.097 0 00-.14-1.146 2.827 2.827 0 00-.556-1.113c-.273-.35-.64-.624-1.082-.843-.463-.205-1.011-.326-1.704-.326-.516 0-1.003.084-1.442.235a3.54 3.54 0 00-1.135.628 3.12 3.12 0 00-.739.996 2.95 2.95 0 00-.271 1.245c.026.456.101.881.257 1.254.154.391.377.715.691.983.318.279.681.497 1.145.658.44.146.97.219 1.591.219.858 0 1.573-.152 2.161-.498.564-.331.936-.844 1.114-1.508m-1.228-1.664h-4.399l.202-.645.426-.547.667-.349c.287-.097.563-.145.9-.145.315 0 .6.048.85.145.29.076.509.203.693.349l.463.54.198.652zm2.64-2.405v5.953h1.256v-3.359c0-.271.056-.511.14-.737l.423-.601c.19-.171.416-.306.688-.393.303-.096.64-.141 1.023-.141.475 0 .856.109 1.139.332.27.21.413.5.413.862v4.036h1.264v-3.921c0-.318-.053-.605-.132-.857a1.448 1.448 0 00-.442-.706c-.198-.192-.474-.348-.83-.447-.322-.119-.741-.163-1.236-.163-1.147 0-1.978.364-2.493 1.063h-.034v-.922h-1.179zm9.987 0v-1.801h-1.256v1.801h-1.312v.863h1.312v3.794c0 .275.023.506.1.664l.318.395.562.208c.236.016.521.029.841.029h.956v-.866h-1.065l-.279-.093-.157-.148-.019-.277v-3.705h1.521v-.863h-1.522zM522.666 231.55h.846v4.745h-.846zm2.555 0h1.119l2.298 3.525h.015v-3.525h.842v4.744h-1.07l-2.347-3.639h-.013v3.639h-.844zm11.918 1.113c-.178-.187-.344-.312-.51-.374a1.376 1.376 0 00-.491-.095c-.245 0-.466.045-.666.132s-.371.205-.515.36a1.64 1.64 0 00-.328.54 1.795 1.795 0 00-.118.664c0 .255.037.486.118.703.075.216.188.399.328.558a1.568 1.568 0 001.181.503c.191 0 .379-.048.561-.137.179-.092.351-.24.505-.443l.698.498a1.933 1.933 0 01-.784.644 2.436 2.436 0 01-.984.201c-.366 0-.706-.061-1.013-.176a2.353 2.353 0 01-.789-.506 2.315 2.315 0 01-.518-.779 2.673 2.673 0 01-.191-1.014c0-.379.067-.723.191-1.034.126-.31.297-.574.518-.796.222-.218.487-.386.789-.505a2.807 2.807 0 011.013-.176c.32 0 .617.055.893.169.273.115.531.307.768.582l-.656.481zm1.748 1.281c0-.381.062-.726.188-1.035a2.248 2.248 0 011.308-1.302c.31-.117.644-.179 1.01-.179.374-.003.711.05 1.019.166.311.113.577.279.8.497.222.222.396.483.522.793.123.308.186.652.186 1.032 0 .371-.062.708-.186 1.011a2.351 2.351 0 01-.522.784c-.223.222-.489.39-.8.514a2.796 2.796 0 01-1.019.189c-.366 0-.7-.058-1.01-.176a2.25 2.25 0 01-1.308-1.285 2.58 2.58 0 01-.188-1.009m.885-.053c0 .252.037.489.116.702.075.217.189.401.33.556a1.558 1.558 0 001.181.503 1.6 1.6 0 00.671-.134c.2-.087.372-.211.516-.369.143-.154.253-.339.332-.556.077-.213.116-.45.116-.702a1.88 1.88 0 00-.116-.664 1.684 1.684 0 00-.332-.542 1.552 1.552 0 00-.516-.36c-.202-.086-.426-.129-.671-.129s-.47.043-.666.129c-.2.087-.369.208-.515.36a1.645 1.645 0 00-.33.542 1.854 1.854 0 00-.116.664m5.623-2.341h.841v3.983h2.019v.761h-2.86zm4.147 0h.846v3.983h2.015v.761h-2.861zm5.685 0h.729l2.047 4.745h-.968l-.44-1.082h-2.061l-.425 1.082h-.946l2.064-4.745zm1.072 2.935l-.729-1.93-.746 1.93h1.475zm2.902-2.934h1.849c.179 0 .354.021.529.063.174.042.331.11.469.208.134.096.244.22.331.371.082.153.124.335.124.551a.97.97 0 01-.228.663 1.246 1.246 0 01-.597.374v.017c.147.015.284.057.414.124a1.127 1.127 0 01.613 1.021c0 .258-.054.475-.155.646a1.198 1.198 0 01-.406.416 1.762 1.762 0 01-.577.226 3.198 3.198 0 01-.657.067h-1.709v-4.747zm.843 1.93h.771c.283 0 .493-.056.635-.166a.514.514 0 00.208-.432c0-.206-.07-.358-.216-.458-.145-.101-.377-.153-.701-.153h-.696v1.209zm0 2.09h.778c.106 0 .223-.005.344-.021.123-.01.235-.044.342-.092a.696.696 0 00.253-.214.62.62 0 00.099-.37c0-.248-.081-.425-.242-.522-.166-.1-.418-.147-.763-.147h-.811v1.366zm3.915-1.627c0-.381.062-.726.188-1.035.124-.312.298-.577.518-.795.223-.22.485-.389.79-.507.31-.117.644-.179 1.012-.179.37-.003.709.05 1.017.166.311.113.576.279.8.497.222.222.396.483.521.793.127.308.187.652.187 1.032 0 .371-.06.708-.187 1.011-.126.306-.3.566-.521.784-.224.222-.489.39-.8.514a2.797 2.797 0 01-1.017.189c-.368 0-.702-.058-1.012-.176a2.346 2.346 0 01-.79-.503 2.304 2.304 0 01-.518-.782 2.599 2.599 0 01-.188-1.009m.886-.053c0 .252.036.489.114.702.079.217.19.401.332.556a1.57 1.57 0 001.181.503c.244 0 .471-.042.671-.134.2-.087.371-.211.516-.369.143-.154.252-.339.332-.556a2.088 2.088 0 000-1.366 1.701 1.701 0 00-.332-.542 1.562 1.562 0 00-.516-.36 1.694 1.694 0 00-.671-.129c-.245 0-.466.043-.666.129a1.6 1.6 0 00-.515.36 1.701 1.701 0 00-.332.542 1.853 1.853 0 00-.114.664m5.621-2.342h1.649c.228 0 .449.025.659.067.214.042.4.112.566.216.166.102.298.242.397.416.098.173.147.394.147.663 0 .344-.096.634-.284.865-.193.231-.461.374-.817.423l1.263 2.097h-1.022l-1.098-2.011h-.616v2.011h-.845v-4.747zm1.503 2.012c.121 0 .24-.005.36-.016.121-.01.232-.04.331-.079a.574.574 0 00.245-.194.619.619 0 00.093-.366c0-.14-.025-.25-.085-.335a.546.546 0 00-.228-.191 1.046 1.046 0 00-.312-.085 3.198 3.198 0 00-.331-.021h-.732v1.287h.659zm4.924-2.011h.729l2.047 4.745h-.965l-.441-1.082h-2.06l-.426 1.082h-.948l2.064-4.745zm1.074 2.935l-.731-1.93-.743 1.93h1.474zm3.257-2.171h-1.453v-.763h3.75v.763h-1.453v3.981h-.844zm3.525-.764h.843v4.745h-.843zm2.3 2.394c0-.381.062-.726.188-1.035.124-.312.298-.577.518-.795a2.31 2.31 0 01.79-.507c.31-.117.644-.179 1.01-.179.372-.003.713.05 1.021.166.308.113.573.279.797.497.222.222.398.483.521.793.124.308.187.652.187 1.032 0 .371-.062.708-.187 1.011a2.29 2.29 0 01-.521.784c-.224.222-.489.39-.797.514a2.819 2.819 0 01-1.021.189c-.366 0-.7-.058-1.01-.176a2.376 2.376 0 01-.79-.503 2.304 2.304 0 01-.518-.782 2.58 2.58 0 01-.188-1.009m.886-.053c0 .252.036.489.114.702.076.217.19.401.332.556a1.558 1.558 0 001.181.503c.244 0 .469-.042.671-.134.2-.087.371-.211.516-.369.143-.154.252-.339.332-.556.079-.213.116-.45.116-.702 0-.236-.037-.459-.116-.664a1.701 1.701 0 00-.332-.542 1.562 1.562 0 00-.516-.36 1.7 1.7 0 00-.671-.129c-.245 0-.47.043-.666.129-.2.087-.369.208-.515.36a1.65 1.65 0 00-.332.542 1.853 1.853 0 00-.114.664m5.622-2.341h1.118l2.299 3.525h.012v-3.525h.845v4.744h-1.073l-2.345-3.639h-.012v3.639h-.844zm8.13 0h.923l.892 3.417h.015l1.065-3.417h.83l1.045 3.417h.012l.933-3.417h.858l-1.38 4.744h-.805l-1.097-3.612h-.017l-1.095 3.612h-.78zm7.752 0h.845v4.745h-.845zm3.526.764h-1.453v-.763h3.751v.763h-1.453v3.981h-.845zm3.545-.764h.844v1.891h2.217v-1.891h.849v4.744h-.849v-2.088h-2.217v2.088h-.844z"/></svg>