<svg version="1.1" id="Layer_1" xmlns="http://www.w3.org/2000/svg" x="0" y="0" width="226.346" height="39.117" viewBox="0 0 226.346 39.117" xml:space="preserve"><path fill="#FFF" d="M36.44 0L23.6 26.572 10.819 0H1.308v3.924h5.23L5.112 35.193H0v3.924h14.327v-3.924H9.392l.952-27.346 12.602 25.741h1.189L36.737 7.847l1.011 27.346h-4.994v3.924h14.387v-3.924h-5.053L40.661 3.924h5.232V0zm54.25 0L77.85 26.572 65.069 0h-9.511v3.924h5.23l-1.426 31.269H54.25v3.924h14.326v-3.924h-4.935l.953-27.346 12.602 25.741h1.189L90.987 7.847l1.011 27.346h-4.994v3.924h14.387v-3.924h-5.053L94.911 3.924h5.232V0zm18.76 0v3.924h5.291v31.269h-5.291v3.924h14.981v-3.924h-5.291V3.924h5.291V0zm42.784 3.626l6.659 18.25h-13.376l6.717-18.25zM143.377 0v3.865h4.459l-11.712 31.328h-3.746v3.924h13.079v-3.864h-4.756l3.508-9.631h15.992l3.506 9.631h-4.577v3.864h13.079v-3.924h-3.745L156.752 3.865h4.459V0h-17.834zm72.269 0l-12.841 26.572L190.023 0h-9.51v3.924h5.23l-1.426 31.269h-5.113v3.924h14.326v-3.924h-4.933l.952-27.346 12.601 25.741h1.188l12.604-25.741 1.011 27.346h-4.994v3.924h14.387v-3.924h-5.054l-1.427-31.269h5.234V0z"/></svg>