<svg version="1.1" id="Layer_1" xmlns="http://www.w3.org/2000/svg" xmlns:xlink="http://www.w3.org/1999/xlink" x="0" y="0" width="493.596" height="209.681" viewBox="0 0 493.596 209.681" xml:space="preserve"><defs><path id="SVGID_1_" d="M0 0h493.596v209.681H0z"/></defs><clipPath id="SVGID_2_"><use xlink:href="#SVGID_1_" overflow="visible"/></clipPath><path clip-path="url(#SVGID_2_)" fill="#FFF" d="M89.104 100.782h-.05l-5.718 13.612h-.732l-5.524-13.09h-.046l-.56 9.49c-.144 2.217 1 2.217 2.871 2.678v.677h-7.303v-.677c1.801-.54 2.287-.605 2.602-2.559l1.44-10.411c.197-1.805-1.146-1.836-2.576-2.224v-.688h6.397v.5c-.637.844.393 2.672.733 3.47l3.428 7.889 3.94-9.077c.288-.654.831-1.662.2-2.282v-.5h6.887v.687c-2.437.514-2.823.902-2.703 3.237l.413 7.869c.171 2.768.195 3.59 3.191 4.088v.677h-9.399v-.677c3.337-.392 3.142-1.193 2.969-4.278l-.46-8.411zm16.205 7.276l-1.759-4.482-1.661 4.482h3.42zm-3.787 1.157l-.341.99c-1.164 3.343-.375 3.398 1.732 3.645v.543H96.91v-.543c1.042-.325 1.489-.355 1.929-1.382l4.261-9.969-.187-.582c.752-.267 1.371-.827 1.835-1.489h.367l3.614 9.411c1.253 3.168 1.112 3.403 3.104 4.011v.543h-6.567v-.543c1.872-.325 1.988-.691.931-3.411l-.464-1.224h-4.211zm20.502-4.381h-.576c-.368-1.591-.832-3.35-2.823-3.35-1.173 0-1.968.87-1.968 2.007 0 3.132 6.354 2.924 6.354 6.958 0 2.787-2.66 3.944-5.141 3.944-1.366 0-2.719-.371-3.913-.983l-.635-3.829.599-.115c.631 1.891 2.042 4.041 4.318 4.041 1.276 0 2.223-.828 2.223-2.086 0-3.273-6.353-2.998-6.353-6.816 0-2.569 2.452-4.005 4.802-4.005 1.168 0 2.307.283 3.291.868l-.178 3.366zm2.874.159l.446-4.344h.405c.195.34.464.516.754.566.31.071.635.048.986.048h8.165c.695 0 1.352.101 1.734-.614h.416l.438 4.344-.537.094c-.77-2.75-2.205-3.027-4.875-3.027v8.05c0 3.491.258 3.354 2.899 3.74v.544h-8.334v-.544c2.643-.386 2.898-.249 2.898-3.74v-8.05c-2.674 0-4.06.277-4.849 3.027l-.546-.094zm20.085 3.161v2.553c0 1.971.016 2.869 2.589 2.869 2.506 0 3.589-1.403 4.133-3.62h.575c.044 1.493-.23 2.991-.696 4.438h-11.702v-.541c2.299-.392 2.546-.249 2.546-3.742v-4.567c0-3.49-.247-3.361-2.546-3.746v-.538h11.433l-.36 3.38h-.601c-.144-2.53-1.856-2.572-3.964-2.572h-1.407v4.936h1.633c1.667 0 2.537-.139 3.021-1.901h.501c-.098 1.644-.171 3.268-.083 4.91h-.533c-.39-1.895-1.293-1.858-2.973-1.858h-1.566zm14.497-.89c1.797-.138 3.594-.915 3.594-2.994 0-1.994-1.853-2.536-3.594-2.536v5.53zm-2.546-2.533c0-2.604-.137-2.965-2.549-3.168v-.534h6.006c2.377 0 5.578 0 5.578 3.07 0 1.516-1.163 2.638-2.513 3.166 1.427 2.82 3.422 5.834 6.612 6.589l-.089.541c-1.715-.101-3.701.074-5.211-.973-.982-.688-2.097-2.506-2.676-3.587-.917-1.744-.779-1.623-2.612-1.897v1.937c0 2.623-.114 3.515 2.991 3.741v.541h-8.086v-.541c2.293-.387 2.549-.25 2.549-3.741v-5.144zm26.828 2.477c0 2.721 1.275 6.297 4.539 6.297 3.046 0 4.107-3.113 4.107-5.649 0-2.739-1.31-6.372-4.613-6.372-2.968 0-4.033 3.306-4.033 5.724m11.777.188c0 4.306-3.242 7-7.495 7-4.186 0-7.41-2.594-7.41-6.863 0-4.186 3.244-6.933 7.397-6.933 4.052 0 7.508 2.354 7.508 6.796m7.289.994v1.72c0 2.621-.111 3.518 3.051 3.741v.543h-8.147v-.543c2.294-.387 2.541-.256 2.541-3.741v-4.566c0-3.491-.247-3.362-2.541-3.749v-.533h11.43l-.463 3.498h-.615c-.102-2.538-1.629-2.7-3.786-2.7h-1.47v5.172h1.66c1.663 0 2.549-.113 3.008-1.872h.532a70.337 70.337 0 00-.119 5.052h-.507c-.343-2.021-1.168-2.021-2.989-2.021h-1.585zm50.6-.332l-1.755-4.482-1.669 4.482h3.424zm-3.784 1.157l-.354.99c-1.156 3.343-.36 3.398 1.738 3.645v.543h-6.002v-.543c1.042-.325 1.487-.355 1.93-1.382l4.266-9.969-.193-.582c.757-.267 1.384-.827 1.831-1.489h.377l3.607 9.411c1.253 3.168 1.118 3.403 3.104 4.011v.543h-6.568v-.543c1.881-.325 1.995-.691.928-3.411l-.454-1.224h-4.21zm13.625-4.148c0-1.995-.06-3.387-2.506-3.813v-.529h4.443c2.428 3.169 5.791 6.363 8.569 9.616l.043-.045-.114-6.139c-.051-2.29-.616-2.591-2.905-2.903v-.529h5.878v.529c-1.701.166-1.804.971-1.804 4.124v8.599l-.865.417c-1.896-2.314-6.492-6.955-9.675-10.39-.054 2.154.042 4.184.122 6.292.069 2.38.501 2.528 2.774 3.014v.544h-6.337v-.544c1.419-.277 2.376-.19 2.376-2.805v-5.438zm23.013 2.991l-1.754-4.482-1.656 4.482h3.41zm-3.781 1.157l-.349.99c-1.154 3.343-.365 3.398 1.744 3.645v.543h-6.009v-.543c1.045-.325 1.488-.355 1.931-1.382l4.267-9.969-.188-.582c.746-.267 1.368-.827 1.834-1.489h.359l3.615 9.411c1.254 3.168 1.121 3.403 3.112 4.011v.543h-6.567v-.543c1.871-.325 1.987-.691.926-3.411l-.466-1.224h-4.209zm24.856 3.34h1.032v.447c-2.044.855-4.258 1.394-6.492 1.394-3.999 0-7.623-2.519-7.623-6.688 0-4.662 4.078-7.107 8.268-7.107 1.722 0 3.32.409 4.922 1.029v3.687h-.572c-.582-2.305-2.146-3.827-4.674-3.827-3.091 0-4.804 2.688-4.804 5.525 0 3.549 2.313 6.493 5.959 6.493 1.372 0 1.317-.33 1.432-1.148v-1.002c0-2.512-.143-2.686-2.801-3.053v-.541h6.812v.541c-1.308.337-1.459.562-1.459 1.918v2.332zm8.743-4.401v2.553c0 1.971.016 2.869 2.583 2.869 2.507 0 3.589-1.403 4.134-3.62h.578c.036 1.493-.233 2.991-.692 4.438h-11.7v-.541c2.304-.392 2.537-.249 2.537-3.742v-4.567c0-3.49-.233-3.361-2.537-3.746v-.538h11.427l-.362 3.38h-.598c-.141-2.53-1.855-2.572-3.962-2.572H316.1v4.936h1.633c1.665 0 2.533-.139 3.018-1.901h.503c-.103 1.644-.177 3.268-.077 4.91h-.546c-.382-1.895-1.285-1.858-2.967-1.858H316.1zm22.727-4.562h-.044l-4.532 10.802h-.575l-4.393-10.399h-.036l-.444 7.541c-.115 1.763.796 1.763 2.275 2.125v.539h-5.792v-.539c1.434-.429 1.812-.486 2.064-2.027l1.138-8.282c.164-1.412-.906-1.438-2.043-1.75v-.532h5.074v.385c-.501.672.319 2.122.583 2.759l2.729 6.249 3.13-7.203c.227-.509.648-1.312.15-1.805v-.385h5.462v.532c-1.932.41-2.245.716-2.142 2.57l.326 6.241c.132 2.209.157 2.859 2.525 3.248v.539h-7.446v-.539c2.646-.308 2.483-.947 2.356-3.398l-.365-6.671zm12.069 4.562v2.553c0 1.971.015 2.869 2.588 2.869 2.501 0 3.579-1.403 4.133-3.62h.568c.045 1.493-.225 2.991-.689 4.438h-11.704v-.541c2.305-.392 2.555-.249 2.555-3.742v-4.567c0-3.49-.25-3.361-2.555-3.746v-.538h11.435l-.364 3.38h-.601c-.139-2.53-1.854-2.572-3.968-2.572h-1.397v4.936h1.645c1.65 0 2.521-.139 3.011-1.901h.494c-.094 1.644-.169 3.268-.077 4.91h-.541c-.379-1.895-1.299-1.858-2.971-1.858h-1.562zm11.737-3.087c0-1.995-.071-3.387-2.515-3.813v-.529h4.442c2.436 3.169 5.799 6.363 8.58 9.616l.04-.045-.118-6.139c-.046-2.29-.623-2.591-2.906-2.903v-.529h5.876v.529c-1.703.166-1.797.971-1.797 4.124v8.599l-.871.417c-1.888-2.314-6.481-6.955-9.68-10.39-.049 2.154.047 4.184.117 6.292.084 2.38.511 2.528 2.795 3.014v.544h-6.34v-.544c1.411-.277 2.376-.19 2.376-2.805v-5.438zm15.151-.074l.446-4.344h.408c.19.34.46.516.747.566.317.071.634.048.981.048h8.179c.693 0 1.343.101 1.734-.614h.4l.451 4.344-.543.094c-.779-2.75-2.196-3.027-4.866-3.027v8.05c0 3.491.248 3.354 2.894 3.74v.544h-8.346v-.544c2.646-.386 2.897-.249 2.897-3.74v-8.05c-2.662 0-4.041.277-4.839 3.027l-.543-.094zm29.799 5.118c0 3.491.243 3.354 2.56 3.741v.541h-7.656v-.541c2.3-.388 2.553-.25 2.553-3.741v-4.566c0-3.495-.253-3.364-2.553-3.747v-.535h7.656v.535c-2.316.383-2.56.252-2.56 3.747v4.566zm6.652-5.044c0-1.995-.059-3.387-2.513-3.813v-.529h4.449c2.423 3.169 5.782 6.363 8.566 9.616l.039-.045-.124-6.139c-.032-2.29-.617-2.591-2.893-2.903v-.529h5.864v.529c-1.688.166-1.787.971-1.787 4.124v8.599l-.865.417c-1.896-2.314-6.498-6.955-9.676-10.39-.059 2.154.032 4.184.116 6.292.071 2.38.495 2.528 2.78 3.014v.544h-6.338v-.544c1.411-.277 2.38-.19 2.38-2.805v-5.438zM29.223 132.704c0 4.409.315 4.238 3.214 4.729v.671h-9.636v-.671c2.898-.491 3.213-.32 3.213-4.729v-5.741c0-4.414-.315-4.24-3.213-4.725v-.684h9.636v.684c-2.899.484-3.214.311-3.214 4.725v5.741zm7.678-3.38c0-1.985-.056-3.387-2.516-3.814v-.53h4.45c2.429 3.166 5.787 6.363 8.57 9.622l.039-.043-.12-6.146c-.037-2.306-.615-2.583-2.894-2.902v-.53h5.872v.53c-1.699.163-1.794.975-1.794 4.123v8.596l-.869.42c-1.889-2.315-6.488-6.954-9.677-10.392-.053 2.168.041 4.192.114 6.302.081 2.374.505 2.526 2.782 3.01v.533h-6.33v-.533c1.405-.273 2.373-.191 2.373-2.802v-5.444zm15.151-.625l.443-4.338h.404c.202.336.461.515.762.576.301.058.63.039.979.039h8.174c.688 0 1.348.096 1.725-.615h.414l.442 4.338-.538.102c-.777-2.749-2.209-3.011-4.867-3.011v8.035c0 3.496.241 3.354 2.893 3.747v.536h-8.339v-.536c2.644-.394 2.897-.251 2.897-3.747v-8.035c-2.662 0-4.06.262-4.849 3.011l-.54-.102zm20.072 3.176v2.549c0 1.962.012 2.87 2.587 2.87 2.511 0 3.588-1.405 4.133-3.633h.576c.041 1.51-.23 2.997-.694 4.442H67.028v-.532c2.294-.396 2.544-.256 2.544-3.748v-4.557c0-3.496-.25-3.364-2.544-3.758v-.529h11.423l-.36 3.368h-.597c-.138-2.52-1.851-2.557-3.961-2.557h-1.409v4.912h1.64c1.657 0 2.527-.127 3.009-1.881h.51c-.1 1.636-.176 3.262-.085 4.896h-.539c-.377-1.883-1.292-1.844-2.969-1.844h-1.566zm14.489-.66c1.797-.139 3.586-.912 3.586-3.002 0-1.987-1.848-2.525-3.586-2.525v5.527zm-2.547-2.532c0-2.612-.144-2.975-2.551-3.178v-.526h6.009c2.375 0 5.576 0 5.576 3.077 0 1.511-1.158 2.638-2.511 3.159 1.43 2.822 3.421 5.832 6.609 6.581l-.08.545c-1.721-.096-3.713.08-5.215-.965-.983-.691-2.101-2.515-2.686-3.596-.91-1.726-.767-1.621-2.604-1.892v1.934c0 2.63-.116 3.506 2.988 3.747v.533h-8.086v-.533c2.292-.394 2.551-.253 2.551-3.747v-5.139z"/><path clip-path="url(#SVGID_2_)" fill="#FFF" d="M99.5 129.324c0-1.985-.053-3.387-2.512-3.814v-.53h4.44c2.433 3.166 5.799 6.363 8.571 9.622l.046-.043-.113-6.146c-.043-2.306-.624-2.583-2.903-2.902v-.53h5.872v.53c-1.694.163-1.791.975-1.791 4.123v8.596l-.877.42c-1.887-2.315-6.486-6.954-9.671-10.392-.06 2.168.04 4.192.119 6.302.072 2.374.502 2.526 2.779 3.01v.533h-6.332v-.533c1.41-.273 2.372-.191 2.372-2.802v-5.444zm23.007 2.452l-1.755-4.476-1.665 4.476h3.42zm-3.782 1.147l-.349.999c-1.159 3.336-.367 3.397 1.733 3.646v.539h-6.001v-.539c1.048-.33 1.494-.361 1.931-1.389l4.271-9.97-.201-.577c.759-.272 1.378-.842 1.833-1.499h.372l3.612 9.422c1.256 3.168 1.117 3.39 3.109 4.013v.539h-6.574v-.539c1.884-.33 2-.697.93-3.414l-.459-1.231h-4.207zm9.99-4.224l.449-4.338h.397c.198.336.468.515.759.576.307.058.635.039.983.039h8.165c.698 0 1.351.096 1.739-.615h.404l.45 4.338-.542.102c-.772-2.749-2.211-3.011-4.867-3.011v8.035c0 3.496.25 3.354 2.895 3.747v.536h-8.342v-.536c2.646-.394 2.9-.251 2.9-3.747v-8.035c-2.669 0-4.055.262-4.846 3.011l-.544-.102zm20.134 5.125c0 3.495.253 3.353 2.552 3.746v.536h-7.652v-.536c2.298-.394 2.548-.251 2.548-3.746v-4.559c0-3.501-.25-3.362-2.548-3.759v-.526h7.652v.526c-2.299.396-2.552.258-2.552 3.759v4.559zm7.922-2.576c0 2.733 1.274 6.306 4.531 6.306 3.058 0 4.118-3.115 4.118-5.646 0-2.736-1.316-6.374-4.614-6.374-2.973-.001-4.035 3.303-4.035 5.714m11.778.194c0 4.312-3.244 6.998-7.485 6.998-4.204 0-7.422-2.588-7.422-6.854 0-4.195 3.241-6.94 7.391-6.94 4.066-.001 7.516 2.351 7.516 6.796m4.531-2.118c0-1.985-.057-3.387-2.512-3.814v-.53h4.443c2.43 3.166 5.79 6.363 8.573 9.622l.037-.043-.115-6.146c-.043-2.306-.622-2.583-2.899-2.902v-.53h5.871v.53c-1.695.163-1.794.975-1.794 4.123v8.596l-.868.42c-1.893-2.315-6.492-6.954-9.672-10.392-.065 2.168.032 4.192.112 6.302.08 2.374.501 2.526 2.78 3.01v.533h-6.332v-.533c1.411-.273 2.376-.191 2.376-2.802v-5.444zm23.006 2.452l-1.749-4.476-1.666 4.476h3.415zm-3.781 1.147l-.351.999c-1.16 3.336-.368 3.397 1.736 3.646v.539h-6.002v-.539c1.041-.33 1.485-.361 1.931-1.389l4.269-9.97-.198-.577c.757-.272 1.371-.842 1.837-1.499h.371l3.606 9.422c1.252 3.168 1.122 3.39 3.11 4.013v.539h-6.564v-.539c1.869-.33 1.991-.697.921-3.414l-.459-1.231h-4.207zm22.842 5.182h-11.556v-.535c2.298-.394 2.544-.252 2.544-3.747v-4.556c0-3.502-.246-3.364-2.544-3.76v-.528h7.646v.528c-2.668.235-2.553 1.128-2.553 3.76v7.104c0 .628-.294.87 1.758.87 3.306 0 4.063-1.24 5.602-3.899l.543.214-1.44 4.549zm22.082-7.98l-2.211-5.655-2.097 5.655h4.308zm-4.766 1.462l-.443 1.232c-1.462 4.217-.455 4.292 2.189 4.611v.676h-7.566v-.676c1.319-.424 1.876-.461 2.44-1.75l5.362-12.57-.236-.731c.95-.337 1.728-1.042 2.312-1.876h.467l4.555 11.862c1.576 3.994 1.405 4.277 3.915 5.065v.676h-8.277v-.676c2.359-.424 2.509-.881 1.162-4.312l-.58-1.531h-5.3zm19.226-.372c1.792-.139 3.593-.912 3.593-3.002 0-1.987-1.856-2.525-3.593-2.525v5.527zm-2.55-2.532c0-2.612-.139-2.975-2.55-3.178v-.526h6.008c2.376 0 5.576 0 5.576 3.077 0 1.511-1.154 2.638-2.505 3.159 1.425 2.822 3.416 5.832 6.598 6.581l-.072.545c-1.725-.096-3.708.08-5.221-.965-.975-.691-2.099-2.515-2.673-3.596-.92-1.726-.777-1.62-2.61-1.892v1.934c0 2.63-.119 3.506 2.993 3.747v.533h-8.094v-.533c2.301-.394 2.55-.253 2.55-3.747v-5.139zm12.693.016l.44-4.338h.411c.188.336.464.515.754.576.312.058.627.039.988.039h8.167c.682 0 1.349.096 1.729-.615h.411l.444 4.338-.541.102c-.775-2.749-2.204-3.011-4.86-3.011v8.035c0 3.496.244 3.354 2.891 3.747v.536h-8.349v-.536c2.66-.394 2.901-.251 2.901-3.747v-8.035c-2.665 0-4.055.262-4.85 3.011l-.536-.102zm24.184.182h-.576c-.37-1.583-.831-3.348-2.819-3.348-1.179 0-1.974.873-1.974 2.001 0 3.136 6.357 2.928 6.357 6.964 0 2.782-2.674 3.937-5.133 3.937-1.377 0-2.729-.36-3.927-.979l-.64-3.828.604-.115c.637 1.896 2.035 4.044 4.324 4.044 1.277 0 2.226-.835 2.226-2.1 0-3.258-6.364-2.99-6.364-6.816 0-2.57 2.459-3.991 4.819-3.991 1.154 0 2.289.288 3.277.86l-.174 3.371zm29.51-4.137h-.048l-5.722 13.614h-.725l-5.534-13.103h-.04l-.559 9.498c-.152 2.214.994 2.214 2.876 2.68v.671h-7.308v-.671c1.8-.538 2.287-.61 2.603-2.562l1.438-10.415c.198-1.807-1.141-1.838-2.576-2.216v-.688h6.395v.494c-.631.844.393 2.669.73 3.476l3.437 7.888 3.942-9.078c.285-.663.827-1.658.198-2.285v-.494h6.878v.688c-2.436.512-2.819.898-2.697 3.234l.409 7.865c.168 2.778.2 3.604 3.191 4.094v.671h-9.398v-.671c3.337-.397 3.138-1.194 2.972-4.293l-.462-8.397zm-78.273-23.962h-.048l-5.723 13.612h-.725l-5.534-13.101h-.04l-.564 9.496c-.149 2.217 1 2.217 2.88 2.68v.67h-7.306v-.67c1.799-.538 2.284-.605 2.6-2.569l1.437-10.405c.2-1.806-1.141-1.837-2.571-2.217v-.688h6.394v.498c-.634.841.391 2.662.729 3.472l3.436 7.883 3.943-9.073c.284-.663.827-1.658.194-2.282v-.498h6.882v.687c-2.433.514-2.82.898-2.699 3.237l.41 7.863c.168 2.781.201 3.602 3.192 4.092v.67h-9.397v-.67c3.336-.393 3.134-1.191 2.972-4.292l-.462-8.395zm94.721 30.994l-1.754-4.476-1.663 4.476h3.417zm-3.782 1.147l-.356.999c-1.148 3.336-.366 3.397 1.743 3.646v.539h-6.004v-.539c1.037-.33 1.486-.361 1.927-1.387l4.273-9.972-.196-.577c.752-.272 1.366-.842 1.829-1.499h.368l3.616 9.422c1.253 3.168 1.117 3.39 3.104 4.013v.539h-6.564v-.539c1.879-.33 1.993-.697.928-3.414l-.461-1.231h-4.207zm13.612-3.599c0-1.985-.058-3.387-2.506-3.814v-.53h4.442c2.44 3.166 5.795 6.363 8.578 9.622l.031-.043-.113-6.146c-.039-2.306-.613-2.583-2.896-2.902v-.53h5.867v.53c-1.696.163-1.795.975-1.795 4.123v8.596l-.87.42c-1.896-2.315-6.483-6.954-9.667-10.392-.062 2.168.036 4.192.112 6.302.08 2.375.504 2.526 2.781 3.01v.533h-6.337v-.533c1.413-.273 2.371-.191 2.371-2.802v-5.444zm23.013 2.452l-1.762-4.476-1.659 4.476h3.421zm-3.782 1.147l-.347.999c-1.162 3.336-.364 3.397 1.737 3.646v.539h-6.015v-.539c1.053-.33 1.486-.361 1.938-1.387l4.268-9.972-.191-.577c.744-.272 1.364-.842 1.831-1.499h.367l3.608 9.422c1.256 3.168 1.12 3.39 3.109 4.013v.539h-6.56v-.539c1.869-.33 1.985-.697.927-3.414l-.466-1.231h-4.206zm24.843 3.683h1.043v.443c-2.059.845-4.265 1.386-6.495 1.386-3.999 0-7.621-2.51-7.621-6.678 0-4.658 4.07-7.107 8.263-7.107 1.715 0 3.317.405 4.917 1.021v3.687h-.573c-.583-2.296-2.15-3.822-4.671-3.822-3.086 0-4.815 2.676-4.815 5.522 0 3.561 2.322 6.493 5.98 6.493 1.355 0 1.302-.338 1.42-1.142v-1c0-2.516-.138-2.684-2.801-3.054v-.54h6.815v.54c-1.314.33-1.462.557-1.462 1.912v2.339zm8.727-4.73v2.548c0 1.962.024 2.87 2.593 2.87 2.502 0 3.581-1.406 4.137-3.633h.569c.037 1.51-.23 2.998-.688 4.443h-11.699v-.533c2.291-.396 2.546-.256 2.546-3.748v-4.558c0-3.495-.255-3.363-2.546-3.757v-.528h11.43l-.364 3.366h-.602c-.143-2.519-1.854-2.556-3.966-2.556h-1.409v4.912h1.638c1.676 0 2.54-.127 3.021-1.881h.501c-.086 1.637-.175 3.263-.077 4.897h-.551c-.371-1.884-1.282-1.844-2.967-1.844h-1.566zm22.722-4.372h-.044l-4.527 10.807h-.583l-4.379-10.401h-.039l-.446 7.531c-.105 1.765.79 1.765 2.269 2.13v.537h-5.789v-.537c1.434-.436 1.817-.484 2.073-2.035l1.134-8.262c.154-1.433-.905-1.445-2.046-1.765v-.532h5.085v.383c-.502.675.297 2.125.577 2.762l2.724 6.257 3.126-7.197c.229-.53.654-1.323.152-1.821v-.383h5.465v.532c-1.925.411-2.24.717-2.136 2.574l.322 6.243c.133 2.199.154 2.852 2.527 3.244v.537h-7.46v-.537c2.65-.312 2.497-.952 2.372-3.397l-.377-6.67zm12.06 4.372v2.548c0 1.962.024 2.87 2.591 2.87 2.509 0 3.593-1.406 4.132-3.633h.586c.034 1.51-.243 2.998-.7 4.443h-11.702v-.533c2.297-.396 2.549-.256 2.549-3.748v-4.558c0-3.495-.252-3.363-2.549-3.757v-.528h11.428l-.36 3.366h-.599c-.139-2.519-1.854-2.556-3.971-2.556h-1.404v4.912h1.645c1.66 0 2.528-.127 3.011-1.881h.499c-.085 1.637-.167 3.263-.073 4.897h-.541c-.383-1.884-1.292-1.844-2.975-1.844h-1.567zm11.729-2.552c0-1.985-.053-3.387-2.509-3.814v-.53h4.446c2.428 3.166 5.79 6.363 8.571 9.622l.037-.043-.117-6.146c-.042-2.306-.613-2.583-2.9-2.902v-.53h5.871v.53c-1.692.163-1.794.975-1.794 4.123v8.596l-.865.42c-1.894-2.315-6.489-6.954-9.671-10.392-.066 2.168.035 4.192.107 6.302.075 2.375.507 2.526 2.785 3.01v.533h-6.338v-.533c1.415-.273 2.376-.191 2.376-2.802v-5.444zm15.15-.625l.448-4.338h.412c.192.336.458.515.751.576.302.058.624.039.984.039h8.162c.696 0 1.353.096 1.74-.615h.403l.446 4.338-.541.102c-.778-2.749-2.197-3.011-4.866-3.011v8.035c0 3.496.246 3.354 2.889 3.747v.536h-8.334v-.536c2.647-.394 2.896-.251 2.896-3.747v-8.035c-2.662 0-4.056.262-4.846 3.011l-.544-.102zM0 150.798h493.596v1.451H0zm41.576 31.215h-2.719v5.166h-5.755v-5.166h-2.769v5.166h-2.474v2.58h2.474v6.01h2.769v-6.01h5.755v6.01h2.767v-13.756zm3.538 0v5.166h-2.51v2.58h2.51v6.01h9.06v-2.589h-6.345v-3.421h5.94v-2.58h-5.94v-2.596h6.345v-2.57zm104.751-5.055h6.352v2.447h-6.352zm13.642 9.936l1.885 3.904h-3.754l1.869-3.904zm-7.17 8.875h3.184l1.13-2.523h5.728l1.124 2.523h3.168l-7.164-14.59-7.17 14.59zm-9.172-13.756v5.166h-2.339v2.58h2.339v6.01h9.054v-2.589h-6.353v-3.421h5.937v-2.58h-5.937v-2.596h6.353v-2.57zm-92.255 6.81c0 4.095 3.299 7.287 7.494 7.287 2.359 0 4.471-.997 5.938-2.823l.106-.147-2.254-1.628-.113.126a4.55 4.55 0 01-3.677 1.822c-2.478 0-4.571-2.115-4.571-4.637 0-2.506 2.093-4.512 4.571-4.512 1.494 0 2.774.678 3.642 1.902l2.402-1.588-.106-.14c-1.467-1.828-3.579-2.827-5.938-2.827-4.195.001-7.494 3.1-7.494 7.165m28.555-1.383l-6.56-5.789v14.118h2.747v-8.109l3.813 3.349 3.81-3.349v8.109h2.76v-14.118zm15.347 6.003c-2.467 0-4.555-2.009-4.555-4.513 0-2.479 2.088-4.59 4.555-4.59 2.475 0 4.558 2.11 4.558 4.59 0 2.504-2.083 4.513-4.558 4.513m0-11.784c-4.197 0-7.489 3.188-7.489 7.271 0 4.09 3.292 7.18 7.489 7.18 4.22 0 7.508-3.09 7.508-7.18 0-4.084-3.288-7.271-7.508-7.271m8.802 14.11h2.753v-7.997l8.785 8.57v-14.329h-2.768v7.546l-8.77-8.132zm23.721-13.756h-10.697v2.628h3.994v11.128h2.76v-11.128h3.996v-2.628zm42.36 0h-2.72v13.756h7.962v-2.643h-5.202v-11.113zm-38.062 5.171v-2.608h4.314c1.217 0 1.647.797 1.647 1.449 0 .631-.43 1.159-1.647 1.159h-4.314zm5.34 2.515l.182-.026c2.052-.414 3.19-1.574 3.19-3.669 0-2.581-1.676-4.002-4.61-4.002h-6.868v5.177h-2.228v2.581h2.228v6.007h2.766v-6.007h2.269l3.454 6.007h3.269c-.088-.135-3.652-6.068-3.652-6.068m181.686 4.377c.199 0 .415.003.415-.251 0-.198-.162-.229-.316-.229h-.327v.479h.228zm-.228.811h-.195v-1.446h.559c.326 0 .469.131.469.39 0 .253-.156.378-.326.405l.401.651h-.222l-.387-.651h-.299v.651zm1.292-.731c0-.591-.446-1.062-1.024-1.062-.593 0-1.027.472-1.027 1.062 0 .589.435 1.06 1.027 1.06.577-.001 1.024-.471 1.024-1.06m.189 0c0 .669-.543 1.215-1.214 1.215s-1.227-.546-1.227-1.215c0-.673.556-1.228 1.227-1.228s1.214.555 1.214 1.228m-130.22-29.777h.722v45.302h-.722zm146.18 0h.721v45.302h-.721zm-73.352 16.108l-.561-.018c-.53-2.614-.783-5.543-4.495-5.656-2.34-.073-4.424 1.415-4.371 3.654.152 5.383 10.829 3.968 10.661 11.694-.074 3.777-3.846 5.909-8.035 5.909-2.474 0-4.557-.923-6.05-1.889l-.799-5.164.62.008c.759 2.904 2.935 6.001 6.709 6.008 2.448.006 4.426-1.319 4.455-3.586.143-7.023-10.272-5.158-10.523-11.352-.191-4.575 3.94-6.289 7.5-6.172 1.838.056 3.69.54 5.261 1.401l-.372 5.163zm16.608 10.635l4.957-12.443c.758-1.728 1.173-3.29.485-3.765l.061-.501h6.839v.479c-1.976.396-3.185 1.155-3.039 3.354l.853 11.377c.392 4.35.276 5.049 3.627 5.603v.468h-10.244v-.468c2.396-.382 3.916-.656 3.734-3.413l-.928-13.677h-.063l-7.199 17.558h-.338l-7.713-16.821h-.054s-.319 8.171-.488 13.105c-.037 1.207-.007 2.625 3.767 3.248v.468h-8.672v-.468c2.752-.471 3.236-2.136 3.432-4.352l.766-8.723.304-4.326c.088-2.125-1.6-2.784-3.432-2.933l-.013-.479h6.714l.031.35c-.672.711.185 2.597.392 3.092l6.221 13.267zm38.022-16.707v.479c-2.763.319-2.961 2.06-3.07 6.187l-.181 6.859c-.096 4.039-1.772 8.132-8.527 8.132-9.428 0-8.45-6.997-8.45-9.514v-7.005c-.097-3.226-.126-4.162-3.775-4.659v-.479h10.492v.479c-3.977.58-4.037 1.211-4.037 4.659v6.408c0 .597-.979 8.67 7.362 8.67 6.561 0 5.937-6.438 5.937-10.261v-3.29c0-3.979-.312-5.791-4.569-6.187v-.479h8.818zM28.105 68.007h9.879l2.758-60.424H30.633V0h18.38l24.696 51.35L98.522 0h18.266v7.583h-10.109l2.757 60.424h9.764v7.582H91.4v-7.582h9.65l-1.953-52.842-24.353 49.74h-2.297l-24.353-49.74-1.839 52.842h9.536v7.582H28.105zm104.832 0h9.879l2.757-60.424h-10.109V0h18.38l24.697 51.35L203.353 0h18.266v7.583H211.51l2.757 60.424h9.765v7.582h-27.8v-7.582h9.648l-1.953-52.842-24.352 49.74h-2.297l-24.353-49.74-1.839 52.842h9.535v7.582h-27.684zm106.667 0h10.224V7.583h-10.224V0h28.95v7.583H258.33v60.424h10.224v7.582h-28.95zm95.542-25.732L322.279 7.009 309.3 42.275h25.846zm-51.235 25.732h7.236l22.632-60.538h-8.615V0h34.461v7.468h-8.614l22.63 60.538h7.237v7.582h-25.273V68.12h8.846l-6.777-18.609h-30.902l-6.777 18.609h9.189v7.468h-25.271v-7.581zm90.484 0h9.879l2.759-60.424h-10.111V0h18.38L420 51.35 444.812 0h18.268v7.583h-10.112l2.757 60.424h9.765v7.582h-27.801v-7.582h9.651l-1.953-52.842-24.354 49.74h-2.296l-24.354-49.74-1.838 52.842h9.536v7.582h-27.686zM240.343 196.255v-1.105h-1.121v-1.098h-.798v-9.979h1.208v-2.029l-1.151-.532v-4.104h-.682c-1.008-2.818-3.36-4.858-6.185-5.549v-1.146l-2.088-.547-2.088.547v1.147c-2.822.693-5.168 2.731-6.175 5.547h-.681v4.097l-1.166.539v2.029h1.223v9.979h-.802v1.098h-1.119v1.105h-1.125v1.695h23.869v-1.695h-1.119zm-19.104-12.423h1.559v10.218h-1.559v-10.218zm3.004 0h1.56v10.218h-1.56v-10.218zm2.999 0h1.561v10.218h-1.561v-10.218zm3.008 0h1.559v10.218h-1.559v-10.218zm3 0h1.562v10.218h-1.562v-10.218zm3.002 0h1.56v10.218h-1.56v-10.218zm1.633-5.829v3.231l-6.99-3.231h6.99zm-9.852-6.832l1.493-.393 1.495.393v.547a8.746 8.746 0 00-1.49-.135 8.85 8.85 0 00-1.498.136v-.548zm1.498 1.007c3.4 0 6.422 2.084 7.64 5.228H221.89a8.18 8.18 0 017.641-5.228m-8.357 5.825h6.983l-6.983 3.227v-3.227zm-1.205 5.52v-1.127l.613-.284.592-.272 8.299-3.836.052-.023.051.023 8.309 3.839.596.274.601.279v1.127h-19.113zm.481 11.128h18.177v.683H220.45v-.683zm-1.138 1.096l20.402-.007v.007h.035v.621h-20.437v-.621zm21.533 1.626h-22.628v-.63h22.628v.63z"/><path clip-path="url(#SVGID_2_)" fill="#FFF" d="M237.885 182.308l-8.361-3.862-8.35 3.858-.592.273-.189.087v.434h18.264v-.434l-.176-.081-.596-.275zm-15.918.238l7.559-3.493 7.556 3.493h-15.115z"/><circle clip-path="url(#SVGID_2_)" fill="none" stroke="#FFF" stroke-miterlimit="10" cx="229.522" cy="186.153" r="18.91"/><path clip-path="url(#SVGID_2_)" fill="#FFF" d="M399.114 179.11v-6.419h1.019c1.661 0 2.721 1.706 2.647 3.363-.061 1.513-.278 3.056-2.4 3.056h-1.266zm6.282-3.084c-.111-2.561-2.623-3.479-4.975-3.479h-6.177v.145h1.951v14.023h-1.915v.14h6.959c2.522 0 5.137-1.202 5.184-3.907.022-2.615-3.027-3.774-4.021-3.763.742-.098 3.09-.85 2.994-3.159m-1.94 6.716c.015 1.885-.125 3.973-2.75 3.973h-1.592v-7.463h1.252c2.112-.001 3.056 1.698 3.09 3.49m3.906-.707c.016 2.796 2.151 5.206 4.955 5.216 2.546.017 4.944-2.455 4.916-5.335-.024-2.776-2.145-5.173-4.853-5.218-2.458-.042-5.052 2.487-5.018 5.337m2.67-.035c0-2.208.145-5.193 2.349-5.175 2.193 0 2.258 3.044 2.22 5.26-.043 2.136.125 5.023-2.283 5.04-2.304.033-2.286-2.948-2.286-5.125m10.776.151c0 2.245.146 4.678 2.481 4.623 2.111-.024 2.828-2.659 2.665-3.49h.163c-.033 1.822-.804 3.832-3.581 3.919-2.535.092-4.348-2.242-4.365-4.925-.021-2.74 2.01-5.222 4.754-5.229 1.554-.033 3.008 1.111 3.029 2.665.007.973-.618 1.68-1.476 1.68-.801 0-1.464-.68-1.464-1.479 0-.804.637-1.475 1.435-1.499.471-.006 1.013.37 1.127.493-.489-1.028-1.293-1.649-2.446-1.649-2.265-.015-2.322 2.684-2.322 4.891m8.703 0c0 2.245.147 4.678 2.471 4.623 2.122-.024 2.832-2.659 2.671-3.49h.161c-.03 1.822-.795 3.832-3.57 3.919-2.552.092-4.36-2.242-4.381-4.925-.002-2.74 2.023-5.222 4.76-5.229 1.562-.033 3.015 1.111 3.03 2.665.018.973-.613 1.68-1.469 1.68a1.49 1.49 0 01-.035-2.978c.478-.006 1.021.37 1.121.493-.479-1.028-1.283-1.649-2.432-1.649-2.276-.015-2.327 2.684-2.327 4.891m6.186-.116c.017 2.796 2.159 5.206 4.97 5.216 2.547.017 4.939-2.455 4.911-5.335-.013-2.776-2.154-5.173-4.851-5.218-2.456-.042-5.053 2.487-5.03 5.337m2.693-.035c0-2.208.126-5.193 2.338-5.175 2.211 0 2.265 3.044 2.22 5.26-.023 2.136.116 5.023-2.28 5.04-2.3.033-2.278-2.948-2.278-5.125m17.657 4.715h1.675v.141h-5.427v-.141h1.151v-7.817c0-.797-.261-1.76-1.068-1.751-1.432.007-2.057 2.329-2.057 3.361v6.207h1.248v.141h-5.315v-.141h1.561v-9.521h-1.755v-.143h4.262v2.213c.155-1.133 1.188-2.544 2.678-2.482 1.93.078 3.048 1.445 3.048 3.58v6.353zm5.141-14.636a1.503 1.503 0 011.465 1.499c0 .822-.649 1.49-1.465 1.506a1.528 1.528 0 01-1.551-1.541c.019-.82.717-1.479 1.551-1.464m1.358 14.636h1.712v.141h-5.997v-.141h1.697v-9.532h-1.669v-.132h4.257v9.664zm-100.007-12.653c-.704-1.254-2.093-2.058-3.575-2.058-2.187 0-3.733 1.537-3.733 3.703 0 1.164.538 2.016 1.508 2.616l2.642 1.407c1.259.613 2.949 1.309 2.949 2.975 0 1.938-1.69 3.442-3.605 3.442-1.769 0-2.914-1.084-3.526-2.641l-.825.38c.68 1.877 2.271 3.135 4.31 3.135 2.371 0 4.577-1.836 4.577-4.253 0-1.314-.562-2.209-1.674-2.912l-2.776-1.455c-1.187-.56-2.65-1.193-2.65-2.728 0-1.544 1.183-2.791 2.767-2.791 1.357 0 2.308.675 2.968 1.723l.643-.543zm4.315 11.879v-12.864h1.691c1.818 0 3.341.323 4.742 1.586 1.368 1.252 2.104 3.01 2.104 4.863a6.566 6.566 0 01-1.938 4.661c-1.396 1.38-2.983 1.754-4.908 1.754h-1.691zm-.928.892h2.645c2.168 0 3.89-.4 5.506-1.955 1.47-1.408 2.249-3.339 2.249-5.353 0-2.093-.793-4.048-2.324-5.488-1.609-1.49-3.304-1.84-5.431-1.84h-2.645v14.636zm19.89-5.696h-5.728l2.876-7.063 2.852 7.063zm.361.874l1.953 4.821h.957l-6.122-15.114-6.111 15.114h.93l1.966-4.821h6.427zm-26.98 9.502h.957a1.798 1.798 0 00-.239-.835 1.734 1.734 0 00-.601-.574 2.587 2.587 0 00-.873-.35 5.261 5.261 0 00-2.098 0 3.502 3.502 0 00-.89.309 1.735 1.735 0 00-.612.543 1.295 1.295 0 00-.235.774c0 .263.069.495.219.677.127.172.308.324.54.429.23.115.501.209.784.281.295.06.585.128.88.19.308.039.612.093.89.134.3.055.557.133.783.208.234.066.414.172.548.308a.59.59 0 01.218.487.778.778 0 01-.176.526l-.442.337c-.19.08-.393.134-.631.168a5.958 5.958 0 01-.674.049c-.284 0-.57-.026-.835-.083a2.31 2.31 0 01-.706-.262 1.534 1.534 0 01-.491-.432 1.221 1.221 0 01-.178-.654h-.963c0 .358.079.672.248.943.166.253.396.471.688.642.284.171.61.292.982.371.384.079.793.119 1.224.119.344 0 .701-.025 1.037-.093.358-.049.672-.159.967-.303.262-.144.504-.32.686-.532.168-.234.287-.504.287-.819 0-.291-.091-.537-.23-.731a1.65 1.65 0 00-.558-.474 3.132 3.132 0 00-.767-.304c-.3-.083-.58-.14-.9-.193-.293-.049-.586-.102-.871-.148-.3-.044-.557-.119-.789-.18a1.953 1.953 0 01-.557-.271.577.577 0 01-.202-.452c0-.19.043-.358.143-.47l.382-.317c.164-.085.352-.142.548-.172.212-.031.419-.057.621-.057.534 0 .958.104 1.286.303.343.179.548.484.6.908m6.077 1.275h.938a1.472 1.472 0 00-.262-.646c-.122-.191-.3-.35-.515-.473a2.352 2.352 0 00-.722-.255 3.7 3.7 0 00-.877-.097c-.415 0-.81.062-1.142.188a2.239 2.239 0 00-.805.483c-.206.213-.378.441-.479.723a2.575 2.575 0 00-.158.903c0 .314.053.607.158.883.104.263.281.493.489.686.213.193.487.338.795.444.332.101.716.151 1.118.151.715 0 1.252-.136 1.665-.428.404-.283.663-.694.763-1.22h-.921c-.055.338-.202.593-.465.769-.253.178-.597.274-1.048.274-.285 0-.527-.046-.733-.136a1.221 1.221 0 01-.493-.342l-.287-.503a1.993 1.993 0 01-.085-.579c0-.219.029-.43.085-.631.06-.198.15-.384.269-.531.133-.16.325-.275.531-.374.211-.09.498-.141.817-.141.389 0 .691.077.914.223.228.162.387.359.45.629m1.981-3.001v5.905h.9v-2.411c0-.194.03-.364.095-.527l.308-.432.489-.28c.223-.069.453-.104.74-.104.346 0 .615.079.815.239.192.15.303.358.303.621v2.895h.887v-2.812c0-.229-.026-.435-.09-.616a.92.92 0 00-.315-.508 1.371 1.371 0 00-.578-.323c-.238-.082-.532-.114-.896-.114l-.503.032-.508.148-.435.216-.285.33h-.026v-2.259h-.901zm5.607 3.781c0 .304.057.595.168.871.115.264.291.502.514.708.234.204.507.351.833.476.337.104.718.157 1.155.157.436 0 .816-.054 1.148-.157.326-.125.604-.271.835-.476.219-.206.389-.444.516-.708.105-.276.166-.567.166-.871 0-.323-.061-.609-.166-.886a2.189 2.189 0 00-.516-.71 2.37 2.37 0 00-.835-.474 3.41 3.41 0 00-1.148-.182c-.438 0-.818.063-1.155.182a2.366 2.366 0 00-.833.474 1.985 1.985 0 00-.514.71 2.322 2.322 0 00-.168.886m.959 0c0-.263.05-.491.133-.696.083-.199.207-.376.354-.511.17-.14.344-.241.552-.314a2.17 2.17 0 01.672-.11c.24 0 .453.042.651.11.208.073.398.175.562.314.15.135.275.312.351.511.104.205.151.434.151.696 0 .249-.047.485-.151.678-.075.206-.2.374-.351.516a1.925 1.925 0 01-1.213.412 2.03 2.03 0 01-.672-.104 1.939 1.939 0 01-.552-.308 1.483 1.483 0 01-.354-.516 1.74 1.74 0 01-.133-.678m5.146 0c0 .304.052.595.166.871.115.264.272.502.516.708.226.204.494.351.832.476a3.86 3.86 0 001.147.157c.445 0 .823-.054 1.146-.157.343-.125.612-.271.843-.476.223-.206.403-.444.512-.708a2.35 2.35 0 00.16-.871c0-.323-.051-.609-.16-.886-.108-.281-.289-.504-.512-.71-.23-.202-.5-.368-.843-.474a3.311 3.311 0 00-1.146-.182c-.431 0-.813.063-1.147.182a2.197 2.197 0 00-.832.474c-.243.206-.4.429-.516.71a2.266 2.266 0 00-.166.886m.952 0c0-.263.037-.491.128-.696a1.4 1.4 0 01.374-.511 1.5 1.5 0 01.538-.314c.212-.068.436-.11.669-.11.234 0 .455.042.667.11.215.073.387.175.543.314a1.612 1.612 0 01.503 1.207c0 .249-.044.485-.14.678a1.532 1.532 0 01-.363.516c-.156.135-.328.23-.543.308a2.052 2.052 0 01-.667.104c-.233 0-.457-.031-.669-.104a1.632 1.632 0 01-.538-.308 1.418 1.418 0 01-.374-.516 1.606 1.606 0 01-.128-.678m5.485-3.78h.907v5.905h-.907zm4.964 3.78c0 .304.05.595.176.871.106.264.28.502.508.708.223.204.497.351.837.476a3.9 3.9 0 001.154.157c.437 0 .821-.054 1.149-.157.33-.125.603-.271.83-.476.224-.206.396-.444.507-.708.111-.276.17-.567.17-.871 0-.323-.059-.609-.17-.886a1.897 1.897 0 00-.507-.71 2.296 2.296 0 00-.83-.474 3.395 3.395 0 00-1.149-.182c-.433 0-.82.063-1.154.182a2.18 2.18 0 00-.837.474 1.815 1.815 0 00-.508.71 2.073 2.073 0 00-.176.886m.968 0c0-.263.039-.491.124-.696.087-.199.22-.376.368-.511.161-.14.336-.241.546-.314a2.042 2.042 0 011.322 0c.213.073.398.175.547.314.173.135.282.312.374.511.08.205.131.434.131.696 0 .249-.051.485-.131.678a1.332 1.332 0 01-.374.516c-.148.135-.334.23-.547.308-.2.072-.423.104-.653.104a2.05 2.05 0 01-.669-.104 1.77 1.77 0 01-.546-.308 1.558 1.558 0 01-.368-.516 1.705 1.705 0 01-.124-.678m5.798-1.526v3.649h.911v-3.649h1.061v-.619h-1.061v-.605l.175-.374c.113-.065.299-.112.517-.112l.256.027.255.04v-.611l-.303-.047-.278-.011c-.499 0-.873.092-1.133.27-.258.17-.399.433-.399.779v.645h-.919v.619h.918zm5.911-2.255v5.905h.953v-4.915h.012l2.373 4.915h.861l2.376-4.915h.021v4.915h.942v-5.905h-1.379l-2.399 4.964-2.384-4.964zm12.48 3.703v.721l-.093.317-.308.312a1.629 1.629 0 01-.525.237c-.211.07-.453.097-.76.097l-.403-.03-.338-.112-.236-.191-.085-.295.143-.413.405-.246c.162-.051.357-.088.559-.104.198-.038.406-.058.604-.065.204-.022.406-.06.59-.085l.447-.143zm1.462 2.187v-.549l-.278.045-.241-.111-.049-.366v-2.211c0-.246-.058-.44-.188-.597-.103-.155-.266-.27-.47-.361a2.53 2.53 0 00-.669-.176 9.873 9.873 0 00-.729-.033c-.313 0-.59.022-.877.075-.27.041-.519.128-.733.249a1.626 1.626 0 00-.519.436 1.272 1.272 0 00-.189.675h.885c.035-.321.168-.532.409-.637.267-.116.583-.177.968-.177l.429.034.389.094.299.2.11.386-.15.306-.404.153c-.17.033-.364.062-.593.075-.219.036-.464.052-.704.096-.238.032-.465.07-.699.117a2.5 2.5 0 00-.587.23l-.41.372c-.117.156-.166.35-.166.59 0 .209.041.399.154.555l.372.372c.18.103.374.158.584.202.225.049.457.057.714.057.376 0 .739-.049 1.052-.136.338-.11.629-.287.884-.514 0 .227.062.403.192.514.146.087.334.136.563.136.28 0 .501-.023.651-.101m.844-4.256v4.27h.896v-2.409c0-.195.033-.367.092-.529l.323-.432c.126-.121.302-.218.497-.28.197-.069.438-.102.715-.102.354 0 .618.079.826.237a.762.762 0 01.295.62v2.895h.897v-2.812c0-.229-.021-.436-.098-.616a1.119 1.119 0 00-.307-.506 1.474 1.474 0 00-.583-.321c-.234-.085-.542-.118-.905-.118-.808 0-1.398.262-1.782.765h-.03v-.661h-.836zm9.308 2.069v.721l-.093.317-.307.312a1.727 1.727 0 01-.515.237c-.215.07-.478.097-.772.097l-.405-.03-.331-.112-.243-.191-.076-.295.142-.413.404-.246a2.53 2.53 0 01.552-.104c.2-.038.41-.058.604-.065.207-.022.413-.06.589-.085l.451-.143zm1.458 2.187v-.549l-.272.045-.252-.111-.039-.366v-2.211a.946.946 0 00-.183-.597c-.108-.155-.276-.27-.468-.361a2.943 2.943 0 00-.665-.176c-.24-.017-.493-.033-.736-.033-.315 0-.604.022-.876.075a1.989 1.989 0 00-.728.249 1.228 1.228 0 00-.724 1.111h.896c.019-.321.166-.532.416-.637.256-.116.577-.177.967-.177l.407.034.399.094.295.2.106.386-.134.306-.41.153a4.686 4.686 0 01-.597.075c-.227.036-.457.052-.696.096-.248.032-.477.07-.71.117a2.976 2.976 0 00-.594.23l-.398.372a1.03 1.03 0 00-.166.59c0 .209.049.399.139.555l.389.372c.172.103.372.158.587.202.225.049.453.057.718.057a3.99 3.99 0 001.042-.136c.335-.11.62-.287.869-.514 0 .227.073.403.208.514.138.087.332.136.563.136.289 0 .485-.023.647-.101m3.053-.553c-.302 0-.547-.049-.741-.138a1.423 1.423 0 01-.484-.376 1.44 1.44 0 01-.253-.54 2.341 2.341 0 01-.073-.568c0-.207.034-.411.085-.597a1.368 1.368 0 01.791-.835c.212-.083.461-.133.752-.133.273 0 .521.05.717.133.197.091.365.198.483.359l.275.487c.06.174.079.364.079.553 0 .193-.025.4-.098.601a1.962 1.962 0 01-.26.54 1.736 1.736 0 01-.517.376 1.954 1.954 0 01-.756.138m2.533.206v-3.909h-.854v.616h-.013a1.406 1.406 0 00-.676-.533 2.524 2.524 0 00-.962-.185c-.466 0-.87.072-1.193.209a2.218 2.218 0 00-.791.542 1.838 1.838 0 00-.417.728 2.414 2.414 0 00-.137.789c0 .283.046.564.151.827.107.267.253.485.463.686.206.19.455.344.767.462.303.116.665.168 1.076.168.356 0 .693-.052 1.003-.184a1.27 1.27 0 00.698-.582h.03v.287c0 .236-.033.449-.088.657a1.216 1.216 0 01-.292.488 1.113 1.113 0 01-.517.332 1.939 1.939 0 01-.754.137l-.466-.052-.45-.106-.352-.216-.152-.32h-.9c.017.226.096.423.225.579.138.176.321.291.542.393.209.099.457.168.714.22.271.035.529.057.787.057.873 0 1.521-.172 1.938-.512.416-.351.62-.881.62-1.578m6.037-.99h-.884a1.017 1.017 0 01-.493.622c-.243.141-.553.213-.925.213a2.79 2.79 0 01-.791-.114 1.55 1.55 0 01-.536-.309l-.312-.45-.08-.524h4.12a2.613 2.613 0 00-.103-.822 2.13 2.13 0 00-.398-.799 2.134 2.134 0 00-.791-.604c-.306-.147-.724-.234-1.209-.234-.365 0-.714.06-1.033.168a2.492 2.492 0 00-.813.451 2.135 2.135 0 00-.534.714c-.129.272-.193.57-.193.893.018.327.072.634.177.899.105.281.278.514.496.706.221.2.497.357.811.473.33.104.714.156 1.144.156.635 0 1.146-.11 1.549-.357.422-.238.67-.606.798-1.082m-.87-1.193h-3.151l.154-.463.298-.393.477-.249c.195-.07.41-.104.642-.104.238 0 .432.034.61.104.197.055.356.145.492.249l.342.387.136.469zm1.89-1.726v4.27h.916v-2.653l.065-.306.257-.371.459-.294c.196-.085.42-.128.68-.128.191 0 .357.032.493.077l.323.192.162.308.049.369v2.806h.897v-2.653c0-.332.138-.607.386-.808.258-.189.609-.291 1.046-.291.227 0 .403.032.54.077l.332.204.163.3.045.365v2.806h.9v-3.133a.95.95 0 00-.15-.557l-.372-.399a1.673 1.673 0 00-.578-.209 2.977 2.977 0 00-.736-.075c-.35 0-.695.06-.997.19a1.666 1.666 0 00-.726.538 1.003 1.003 0 00-.58-.56 2.52 2.52 0 00-.913-.169c-.782 0-1.373.245-1.789.729h-.026v-.625h-.846zm13.761 2.919h-.902a.962.962 0 01-.487.622c-.244.141-.542.213-.932.213-.3 0-.561-.047-.787-.114a1.726 1.726 0 01-.534-.309l-.31-.45-.085-.524h4.116a2.154 2.154 0 00-.1-.822 2.03 2.03 0 00-.398-.799 2.193 2.193 0 00-.775-.604c-.333-.147-.727-.234-1.223-.234-.37 0-.72.06-1.035.168-.31.105-.585.261-.813.451a2.253 2.253 0 00-.531.714c-.124.272-.193.57-.193.893.018.327.071.634.185.899.11.281.27.514.494.706.229.2.49.357.822.473.314.104.694.156 1.14.156.616 0 1.13-.11 1.551-.357.402-.238.668-.606.797-1.082m-.882-1.193h-3.155l.146-.463.306-.393.478-.249a1.92 1.92 0 01.646-.104c.228 0 .432.034.61.104.208.055.365.145.497.249l.332.387.14.469zm1.895-1.726v4.27h.9v-2.409c0-.195.04-.367.1-.529l.305-.432c.136-.121.299-.218.493-.28.217-.069.458-.102.734-.102.34 0 .614.079.815.237a.75.75 0 01.298.62v2.895h.905v-2.812c0-.229-.038-.436-.095-.616a1.034 1.034 0 00-.317-.506 1.377 1.377 0 00-.595-.321c-.231-.085-.532-.118-.888-.118-.823 0-1.418.262-1.788.765h-.024v-.661h-.843zm7.162 0v-1.292h-.9v1.292h-.94v.619h.94v2.722c0 .196.017.362.071.475l.229.284.402.149c.17.011.374.021.604.021h.686v-.622h-.765l-.2-.065-.113-.107-.014-.199v-2.656h1.092v-.619h-1.092zm-89.34-25.946h.605v3.402h-.605zm1.832 0h.803l1.648 2.528h.011v-2.528h.604v3.401h-.768l-1.683-2.608h-.01v2.608h-.605zm8.548.798c-.127-.134-.245-.226-.364-.269a.979.979 0 00-.354-.067c-.176 0-.334.032-.477.095a1.023 1.023 0 00-.368.259 1.14 1.14 0 00-.237.386 1.295 1.295 0 00-.085.477c0 .183.027.349.085.505.055.154.135.287.237.4.101.11.224.197.368.264.143.062.301.097.477.097a.908.908 0 00.403-.099 1.09 1.09 0 00.361-.317l.501.357c-.154.212-.342.364-.562.461s-.455.145-.707.145c-.261 0-.506-.044-.725-.127-.218-.087-.407-.206-.566-.361s-.281-.343-.372-.559a1.918 1.918 0 01-.136-.728c0-.272.047-.521.136-.742.091-.223.213-.411.372-.571.159-.155.349-.276.566-.361a2 2 0 01.725-.127c.23 0 .445.04.641.12.196.083.382.222.552.417l-.471.345zm1.255.918c0-.271.043-.519.134-.742.089-.223.212-.413.372-.57.159-.157.348-.277.566-.362.222-.086.461-.129.724-.129.269-.002.51.036.731.119.223.082.413.2.573.357.159.158.283.346.374.568.089.221.135.469.135.74 0 .267-.046.507-.135.725-.091.22-.215.405-.374.563-.16.158-.351.279-.573.368a2.019 2.019 0 01-.731.136 2.02 2.02 0 01-.724-.126 1.615 1.615 0 01-.938-.922 1.855 1.855 0 01-.134-.725m.634-.037c0 .181.026.351.083.504.055.155.136.287.237.397a1.1 1.1 0 00.847.362c.176 0 .336-.031.481-.096.144-.063.267-.151.371-.266.101-.11.181-.242.237-.397.056-.153.083-.323.083-.504 0-.17-.027-.329-.083-.478a1.276 1.276 0 00-.237-.388 1.118 1.118 0 00-.371-.259c-.146-.063-.306-.093-.481-.093s-.336.029-.478.093a1.086 1.086 0 00-.369.259 1.165 1.165 0 00-.237.388 1.346 1.346 0 00-.083.478m4.033-1.679h.604v2.856h1.448v.545h-2.052zm2.975 0h.606v2.856h1.447v.545h-2.053zm4.077 0h.523l1.467 3.402h-.693l-.316-.776h-1.478l-.306.776h-.678l1.481-3.402zm.769 2.106l-.522-1.385-.535 1.385h1.057zm2.083-2.105h1.325c.129 0 .256.015.38.045a.947.947 0 01.336.149.793.793 0 01.237.266c.059.109.09.239.09.396a.713.713 0 01-.162.476.911.911 0 01-.43.269v.011c.105.012.204.042.296.088s.171.104.232.179a.75.75 0 01.153.249.835.835 0 01.055.306c0 .185-.038.34-.111.463a.85.85 0 01-.291.299 1.3 1.3 0 01-.413.162 2.328 2.328 0 01-.473.047h-1.225v-3.405zm.604 1.384h.554c.202 0 .353-.04.455-.119a.37.37 0 00.148-.31c0-.147-.051-.258-.154-.328-.104-.072-.271-.109-.503-.109h-.5v.866zm0 1.499h.56c.075 0 .158-.003.246-.015a.74.74 0 00.244-.066.48.48 0 00.182-.152.444.444 0 00.071-.267c0-.178-.059-.304-.174-.374-.118-.071-.3-.105-.547-.105h-.582v.979zm2.808-1.168c0-.271.044-.519.134-.742.089-.223.214-.413.372-.57.159-.157.348-.277.566-.362.222-.086.461-.129.726-.129.267-.002.508.036.729.119.223.082.413.2.573.357.159.158.283.346.374.568.091.221.134.469.134.74 0 .267-.043.507-.134.725-.091.22-.215.405-.374.563-.16.158-.351.279-.573.368a2.016 2.016 0 01-.729.136c-.265 0-.504-.042-.726-.126a1.678 1.678 0 01-.566-.361 1.643 1.643 0 01-.372-.561 1.873 1.873 0 01-.134-.725m.635-.037c0 .181.026.351.083.504.057.155.136.287.238.397a1.117 1.117 0 00.846.362c.176 0 .338-.031.481-.096.144-.063.267-.151.371-.266.101-.11.181-.242.237-.397.056-.153.083-.323.083-.504 0-.17-.027-.329-.083-.478a1.276 1.276 0 00-.237-.388 1.118 1.118 0 00-.371-.259c-.144-.063-.306-.093-.481-.093s-.334.029-.478.093a1.091 1.091 0 00-.368.259 1.184 1.184 0 00-.238.388 1.324 1.324 0 00-.083.478m4.032-1.68h1.184c.163 0 .321.018.473.047.152.03.286.082.405.155.12.073.214.174.286.299a.972.972 0 01.105.476.944.944 0 01-.204.621.873.873 0 01-.586.302l.905 1.506h-.733l-.787-1.443h-.442v1.443h-.605v-3.406zm1.078 1.443c.087 0 .172-.004.259-.012a.858.858 0 00.237-.057.434.434 0 00.176-.14.442.442 0 00.066-.263.41.41 0 00-.061-.24.415.415 0 00-.164-.139.803.803 0 00-.223-.06 2.22 2.22 0 00-.238-.015h-.525v.924h.473zm3.531-1.442h.523l1.467 3.402h-.69l-.317-.776h-1.477l-.307.776h-.68l1.481-3.402zm.771 2.106l-.523-1.385-.534 1.385h1.057zm2.336-1.558h-1.042v-.548h2.69v.548h-1.042v2.854h-.606zm2.529-.548h.604v3.402h-.604zm1.65 1.716c0-.271.044-.519.134-.742.089-.223.214-.413.372-.57.159-.157.35-.277.567-.362a1.97 1.97 0 01.723-.129 2.03 2.03 0 01.734.119c.22.082.41.2.57.357.159.158.285.346.374.568.089.221.135.469.135.74 0 .267-.046.507-.135.725a1.661 1.661 0 01-.944.931 2.04 2.04 0 01-.734.136c-.263 0-.502-.042-.723-.126a1.692 1.692 0 01-.567-.361 1.643 1.643 0 01-.372-.561 1.873 1.873 0 01-.134-.725m.634-.037c0 .181.026.351.083.504a1.137 1.137 0 00.606.663c.142.064.302.096.478.096s.336-.031.481-.096c.144-.063.267-.151.371-.266a1.15 1.15 0 00.237-.397c.057-.153.083-.323.083-.504a1.257 1.257 0 00-.32-.866 1.118 1.118 0 00-.371-.259c-.146-.063-.306-.093-.481-.093s-.336.029-.478.093a1.072 1.072 0 00-.368.259 1.151 1.151 0 00-.238.388 1.346 1.346 0 00-.083.478m4.033-1.679h.802l1.649 2.528h.01v-2.528h.606v3.401h-.771l-1.68-2.608h-.01v2.608h-.606zm5.832 0h.662l.64 2.451h.01l.765-2.451h.595l.75 2.451h.008l.67-2.451h.614l-.988 3.401h-.579l-.787-2.589h-.011l-.786 2.589h-.559zm5.56 0h.605v3.402h-.605zm2.529.548h-1.042v-.548h2.691v.548h-1.043v2.854h-.606zm2.542-.548h.607v1.355h1.59v-1.355h.608v3.401h-.608v-1.496h-1.59v1.496h-.607z"/></svg>