<?xml version="1.0" encoding="utf-8"?>
<!-- Generator: Adobe Illustrator 16.0.0, SVG Export Plug-In . SVG Version: 6.00 Build 0)  -->
<!DOCTYPE svg PUBLIC "-//W3C//DTD SVG 1.1//EN" "http://www.w3.org/Graphics/SVG/1.1/DTD/svg11.dtd">
<svg version="1.1" id="Layer_1" xmlns="http://www.w3.org/2000/svg" xmlns:xlink="http://www.w3.org/1999/xlink" x="0px" y="0px"
	 width="24.999px" height="25px" viewBox="0 0 24.999 25" enable-background="new 0 0 24.999 25" xml:space="preserve">
<g>
	<defs>
		<rect id="SVGID_1_" y="0" width="25" height="25"/>
	</defs>
	<clipPath id="SVGID_2_">
		<use xlink:href="#SVGID_1_"  overflow="visible"/>
	</clipPath>
	<path clip-path="url(#SVGID_2_)" fill-rule="evenodd" clip-rule="evenodd" fill="#FF8000" d="M0.005,16v-5.197
		c0.056-0.093,0.114-0.174,0.222-0.224c1.064-0.489,1.694-1.324,1.978-2.451c0.206-0.815,0.332-1.644,0.463-2.472
		c0.244-1.531,0.85-2.913,1.67-4.213c0.213-0.337,0.42-0.678,0.611-1.029c0.088-0.161,0.182-0.318,0.354-0.406h7.047
		c0.604,0.443,1.31,0.536,2.026,0.589c0.97,0.071,1.903-0.071,2.792-0.472c0.135-0.061,0.293-0.055,0.43-0.117h3.399
		c0.094,0.13,0.006,0.219-0.074,0.304c-1.13,1.219-2.483,2.043-4.133,2.353c-0.563,0.106-1.129,0.201-1.683,0.357
		c-0.664,0.188-1.18,0.72-1.241,1.292c-0.134,1.24,0.476,2.046,1.54,2.523c0.689,0.31,1.44,0.4,2.181,0.502
		c1.544,0.213,2.983,0.711,4.345,1.468c0.916,0.507,1.833,1.021,2.827,1.37c0.102,0.035,0.168,0.103,0.236,0.176V15.4
		c-0.118,0.132-0.269,0.07-0.4,0.051c-0.666-0.103-1.335-0.158-2.009-0.139c-1.333,0.036-2.582,0.349-3.687,1.126
		c-1.03,0.729-1.718,1.687-1.873,2.964c-0.12,0.976,0.069,1.883,0.688,2.68c0.333,0.429,0.675,0.845,1.071,1.216
		c0.454,0.426,0.844,0.916,1.293,1.349c0.095,0.093,0.188,0.196,0.119,0.35h-2.949c-0.328-0.115-0.561-0.377-0.839-0.564
		c-0.334-0.223-0.686-0.407-1.073-0.504c-0.572-0.145-1.015,0.096-1.398,0.495c-0.181,0.189-0.295,0.442-0.538,0.573h-3.349
		c-0.082-0.11-0.07-0.24-0.059-0.361c0.101-1.037-0.322-1.897-0.898-2.708c-0.654-0.921-1.331-1.826-2.06-2.689
		c-0.623-0.74-1.286-1.441-2.142-1.922c-0.535-0.298-1.116-0.47-1.71-0.606c-0.955-0.221-1.925-0.366-2.889-0.539
		C0.17,16.147,0.071,16.105,0.005,16"/>
	<path clip-path="url(#SVGID_2_)" fill-rule="evenodd" clip-rule="evenodd" fill="#FF6600" d="M24.994,10.353
		c-0.592-0.127-1.121-0.408-1.656-0.675c-1.198-0.597-2.337-1.314-3.617-1.742c-0.905-0.302-1.847-0.418-2.78-0.583
		c-0.761-0.136-1.527-0.262-2.176-0.738c-0.827-0.606-1.169-1.422-0.991-2.421c0.125-0.704,0.649-1.077,1.297-1.279
		c0.621-0.194,1.269-0.272,1.902-0.407c1.146-0.244,2.155-0.764,3.06-1.505c0.291-0.238,0.545-0.512,0.816-0.772
		c0.065-0.063,0.138-0.123,0.148-0.223h2.448c0.075,0.159-0.032,0.271-0.106,0.386c-0.374,0.581-0.82,1.108-1.274,1.627
		c-0.549,0.633-1.136,1.236-1.6,1.94c-0.102,0.154-0.187,0.316-0.246,0.49c-0.181,0.519,0.078,0.903,0.41,1.251
		c0.489,0.513,1.061,0.931,1.627,1.353c0.802,0.598,1.623,1.163,2.547,1.559c0.092,0.039,0.13,0.125,0.191,0.19V10.353z"/>
	<path clip-path="url(#SVGID_2_)" fill-rule="evenodd" clip-rule="evenodd" fill="#EE4D00" d="M24.994,17.749
		c0,2.357-0.001,4.715,0.006,7.072c0,0.149-0.03,0.182-0.181,0.18c-0.689-0.01-1.382-0.005-2.074-0.005
		c-0.085-0.066-0.174-0.126-0.22-0.231c-0.338-0.775-0.949-1.308-1.589-1.821c-0.681-0.549-1.346-1.116-1.802-1.881
		c-0.517-0.865-0.58-2.119,0.077-2.94c0.604-0.757,1.396-1.162,2.361-1.229c1.015-0.071,1.989,0.091,2.918,0.51
		C24.682,17.487,24.883,17.553,24.994,17.749"/>
	<path clip-path="url(#SVGID_2_)" fill-rule="evenodd" clip-rule="evenodd" fill="#FF6600" d="M0.005,16
		c0.923,0.167,1.848,0.324,2.769,0.502c1.037,0.2,2.038,0.496,2.877,1.18C6.389,18.284,7.007,19,7.597,19.742
		c0.553,0.695,1.095,1.401,1.6,2.132c0.389,0.562,0.754,1.145,0.865,1.836c0.068,0.427,0.078,0.858-0.011,1.286H7.052
		c-0.13-0.12-0.07-0.268-0.044-0.399c0.257-1.285-0.004-2.451-0.833-3.467c-0.795-0.973-1.783-1.59-3.079-1.684
		c-0.912-0.066-1.785,0.102-2.665,0.276c-0.143,0.028-0.291,0.096-0.426-0.024V16z"/>
	<path clip-path="url(#SVGID_2_)" fill-rule="evenodd" clip-rule="evenodd" fill="#FF6600" d="M24.994,17.749
		c-0.483-0.194-0.95-0.433-1.462-0.562c-0.986-0.251-1.979-0.333-2.94,0.049c-1.655,0.656-2.21,2.241-1.355,3.768
		c0.36,0.639,0.901,1.121,1.452,1.592c0.561,0.479,1.187,0.885,1.602,1.519c0.183,0.28,0.343,0.568,0.455,0.883h-2.549
		c-0.302-0.453-0.726-0.796-1.086-1.198c-0.473-0.531-1.004-1.011-1.44-1.582c-0.929-1.211-0.995-2.521-0.478-3.889
		c0.375-0.987,1.114-1.683,1.999-2.219c0.83-0.504,1.742-0.762,2.706-0.862c1.043-0.109,2.073-0.024,3.097,0.155V17.749z"/>
	<path clip-path="url(#SVGID_2_)" fill-rule="evenodd" clip-rule="evenodd" fill="#EE4D00" d="M24.994,8.804
		c-0.518-0.169-0.986-0.435-1.443-0.724c-1.069-0.676-2.092-1.412-2.998-2.3c-0.195-0.19-0.371-0.404-0.456-0.675
		c-0.137-0.44,0.025-0.817,0.253-1.176c0.335-0.527,0.749-0.995,1.164-1.458c0.698-0.779,1.396-1.557,1.932-2.463
		c0.477,0,0.949,0.004,1.424-0.003c0.108-0.002,0.131,0.02,0.13,0.128c-0.009,0.491-0.005,0.983-0.005,1.474
		c-0.181,0.503-0.57,0.866-0.866,1.292c-0.27,0.384-0.494,0.786-0.61,1.242c-0.189,0.755,0.064,1.392,0.556,1.947
		c0.225,0.254,0.454,0.507,0.734,0.706c0.09,0.065,0.126,0.173,0.187,0.26V8.804z"/>
	<path clip-path="url(#SVGID_2_)" fill-rule="evenodd" clip-rule="evenodd" fill="#EE4D00" d="M0.005,19.698
		c0.856-0.2,1.718-0.396,2.602-0.395c1.27,0.003,2.38,0.393,3.286,1.344c0.658,0.691,1.133,1.456,1.276,2.398
		c0.091,0.6,0.065,1.208-0.092,1.804c-0.013,0.048-0.017,0.098-0.025,0.146H4.753c-0.131-0.167-0.057-0.353-0.039-0.528
		c0.041-0.393,0.05-0.781-0.047-1.166c-0.224-0.879-0.929-1.411-1.894-1.44c-0.663-0.02-1.308,0.104-1.955,0.218
		c-0.18,0.031-0.361,0.059-0.541,0.094c-0.107,0.021-0.198,0.009-0.272-0.075V19.698z"/>
	<path clip-path="url(#SVGID_2_)" fill-rule="evenodd" clip-rule="evenodd" fill="#FF6600" d="M5.303,0.007
		C4.972,0.67,4.574,1.294,4.187,1.924C3.384,3.227,2.925,4.644,2.7,6.151C2.562,7.078,2.44,8.015,2.066,8.888
		c-0.361,0.84-0.981,1.429-1.809,1.806c-0.083,0.037-0.168,0.072-0.252,0.108V9.003c0.113-0.277,0.39-0.402,0.573-0.616
		c0.481-0.562,0.713-1.232,0.865-1.938C1.629,5.58,1.707,4.69,1.941,3.83c0.213-0.784,0.538-1.519,0.927-2.228
		C3.1,1.178,3.307,0.742,3.521,0.309C3.587,0.177,3.67,0.07,3.804,0.007H5.303z"/>
	<path clip-path="url(#SVGID_2_)" fill-rule="evenodd" clip-rule="evenodd" fill="#D43300" d="M0.005,22.097
		c0.555-0.094,1.11-0.194,1.667-0.277c0.601-0.09,1.206-0.146,1.799,0.042c0.807,0.257,1.336,0.949,1.379,1.797
		c0.023,0.449,0.001,0.896-0.097,1.336H1.804c-0.492-0.28-1.008-0.485-1.586-0.492c-0.089-0.001-0.156-0.043-0.213-0.106V22.097z"/>
	<path clip-path="url(#SVGID_2_)" fill-rule="evenodd" clip-rule="evenodd" fill="#EE4D00" d="M3.804,0.007
		c-0.499,1.069-1.13,2.074-1.542,3.184C2.003,3.887,1.873,4.614,1.754,5.344C1.61,6.22,1.5,7.106,1.056,7.901
		C0.801,8.358,0.463,8.737,0.005,9.003V6.704c0.159-0.761,0.28-1.531,0.331-2.306c0.062-0.967,0.365-1.85,0.84-2.683
		c0.274-0.483,0.576-0.95,0.853-1.433c0.068-0.12,0.153-0.214,0.275-0.275H3.804z"/>
	<path clip-path="url(#SVGID_2_)" fill-rule="evenodd" clip-rule="evenodd" fill="#D43300" d="M24.994,7.054
		c-0.731-0.524-1.391-1.105-1.607-2.039c-0.113-0.478-0.02-0.932,0.173-1.359c0.347-0.772,0.898-1.408,1.435-2.049V7.054z"/>
	<path clip-path="url(#SVGID_2_)" fill-rule="evenodd" clip-rule="evenodd" fill="#D43300" d="M2.304,0.007
		C1.896,0.815,1.357,1.548,0.971,2.368C0.665,3.015,0.517,3.695,0.45,4.403c-0.071,0.74-0.101,1.49-0.386,2.193
		C0.049,6.634,0.025,6.668,0.005,6.704C0.005,4.553,0.008,2.402,0,0.25C-0.001,0.061,0.019-0.006,0.235,0
		C0.925,0.019,1.614,0.007,2.304,0.007"/>
	<path clip-path="url(#SVGID_2_)" fill-rule="evenodd" clip-rule="evenodd" fill="#BB1A00" d="M13.399,24.996
		c0.332-0.61,0.756-1.113,1.493-1.22c0.34-0.05,0.653,0.075,0.956,0.213c0.532,0.242,1.002,0.575,1.399,1.007H13.399z"/>
	<path clip-path="url(#SVGID_2_)" fill-rule="evenodd" clip-rule="evenodd" fill="#BB1A00" d="M17.599,0.007
		c-0.674,0.431-1.419,0.627-2.205,0.7c-0.731,0.067-1.455,0.004-2.166-0.157c-0.346-0.078-0.695-0.185-0.877-0.543H17.599z"/>
	<path clip-path="url(#SVGID_2_)" fill-rule="evenodd" clip-rule="evenodd" fill="#BB1A00" d="M0.005,24.396
		c0.531-0.018,1.044,0.054,1.513,0.327c0.116,0.068,0.214,0.158,0.286,0.272c-0.558,0-1.116-0.004-1.674,0.003
		C0.023,25-0.006,24.979,0.002,24.871C0.014,24.712,0.005,24.554,0.005,24.396"/>
	<path clip-path="url(#SVGID_2_)" fill-rule="evenodd" clip-rule="evenodd" fill="#FF9900" d="M8.761,0.149
		c0.657,0.092,1.396,0.15,2.085,0.455c0.594,0.262,0.824,0.75,0.908,1.357c0.18,1.289,0.273,2.594,0.7,3.841
		c0.469,1.369,1.392,2.225,2.789,2.605c1.052,0.286,2.132,0.455,3.169,0.799c1.321,0.439,2.542,1.065,3.603,1.983
		c0.21,0.182,0.392,0.379,0.546,0.607c0.311,0.457,0.212,0.757-0.232,1.078c-0.324,0.234-0.694,0.394-1.059,0.56
		c-1.372,0.627-2.725,1.284-3.905,2.239c-0.766,0.62-1.379,1.366-1.866,2.221c-0.415,0.729-0.743,1.508-1.249,2.187
		c-0.433,0.58-1.015,0.793-1.707,0.708c-1.727-0.213-3.354-1.682-3.792-3.379c-0.156-0.608-0.076-1.202,0.022-1.804
		c0.071-0.432,0.155-0.859,0.099-1.31c-0.074-0.603-0.435-0.969-0.924-1.244c-0.496-0.278-1.055-0.349-1.602-0.451
		c-0.539-0.1-1.084-0.164-1.617-0.305c-0.842-0.221-1.25-0.732-1.328-1.593C3.298,9.58,3.424,8.466,3.497,7.348
		c0.064-0.975,0.225-1.929,0.551-2.854c0.34-0.962,0.879-1.804,1.525-2.585c0.489-0.591,1.05-1.087,1.739-1.432
		C7.745,0.26,8.204,0.169,8.761,0.149"/>
	<path clip-path="url(#SVGID_2_)" fill-rule="evenodd" clip-rule="evenodd" fill="#FFB300" d="M4.6,7.124
		c-0.01-1.338,0.391-2.541,1.247-3.57c0.562-0.676,1.292-1.117,2.181-1.178C8.588,2.337,9.1,2.569,9.559,2.896
		c0.472,0.335,0.747,0.82,0.986,1.324c0.486,1.027,0.734,2.139,1.12,3.202c0.188,0.517,0.411,1.014,0.77,1.445
		c0.475,0.57,1.115,0.82,1.806,0.981c0.819,0.19,1.644,0.367,2.411,0.718c0.323,0.147,0.646,0.308,0.904,0.567
		c0.586,0.587,0.585,1.26,0.019,1.873c-0.621,0.671-1.39,1.131-2.177,1.565c-0.441,0.245-0.894,0.475-1.403,0.574
		c-0.445,0.087-0.919-0.114-1.133-0.521c-0.268-0.509-0.489-1.039-0.72-1.563c-0.29-0.665-0.672-1.263-1.312-1.654
		c-0.449-0.276-0.957-0.366-1.466-0.454c-0.826-0.144-1.667-0.201-2.473-0.452c-0.489-0.151-0.959-0.342-1.346-0.684
		C5.008,9.34,4.779,8.706,4.651,8.02C4.597,7.722,4.605,7.424,4.6,7.124"/>
	<path clip-path="url(#SVGID_2_)" fill-rule="evenodd" clip-rule="evenodd" fill="#FFCC00" d="M8.103,9.009
		C7.24,8.941,6.431,8.624,6.052,7.645C5.773,6.924,5.854,6.213,6.17,5.519c0.173-0.38,0.419-0.694,0.763-0.933
		C7.821,3.968,8.664,4.268,9.22,4.975c0.495,0.628,0.75,1.381,0.772,2.176C10.025,8.395,9.489,8.935,8.103,9.009"/>
</g>
</svg>
