<?xml version="1.0" encoding="utf-8"?>
<!-- Generator: Adobe Illustrator 16.0.0, SVG Export Plug-In . SVG Version: 6.00 Build 0)  -->
<!DOCTYPE svg PUBLIC "-//W3C//DTD SVG 1.1//EN" "http://www.w3.org/Graphics/SVG/1.1/DTD/svg11.dtd">
<svg version="1.1" id="Layer_1" xmlns="http://www.w3.org/2000/svg" xmlns:xlink="http://www.w3.org/1999/xlink" x="0px" y="0px"
	 width="226.346px" height="39.117px" viewBox="0 0 226.346 39.117" enable-background="new 0 0 226.346 39.117"
	 xml:space="preserve">
<polygon fill="#FFFFFF" points="36.44,0 23.6,26.572 10.819,0 1.308,0 1.308,3.924 6.538,3.924 5.112,35.193 0,35.193 0,39.117 
	14.327,39.117 14.327,35.193 9.392,35.193 10.344,7.847 22.946,33.588 24.135,33.588 36.737,7.847 37.748,35.193 32.754,35.193 
	32.754,39.117 47.141,39.117 47.141,35.193 42.088,35.193 40.661,3.924 45.893,3.924 45.893,0 "/>
<polygon fill="#FFFFFF" points="90.69,0 77.85,26.572 65.069,0 55.558,0 55.558,3.924 60.788,3.924 59.362,35.193 54.25,35.193 
	54.25,39.117 68.576,39.117 68.576,35.193 63.641,35.193 64.594,7.847 77.196,33.588 78.385,33.588 90.987,7.847 91.998,35.193 
	87.004,35.193 87.004,39.117 101.391,39.117 101.391,35.193 96.338,35.193 94.911,3.924 100.143,3.924 100.143,0 "/>
<polygon fill="#FFFFFF" points="109.45,0 109.45,3.924 114.741,3.924 114.741,35.193 109.45,35.193 109.45,39.117 124.431,39.117 
	124.431,35.193 119.14,35.193 119.14,3.924 124.431,3.924 124.431,0 "/>
<path fill="#FFFFFF" d="M152.234,3.626l6.659,18.25h-13.376L152.234,3.626z M143.377,0v3.865h4.459l-11.712,31.328h-3.746v3.924
	h13.079v-3.864h-4.756l3.508-9.631h15.992l3.506,9.631h-4.577v3.864h13.079v-3.924h-3.745L156.752,3.865h4.459V0H143.377z"/>
<polygon fill="#FFFFFF" points="215.646,0 202.805,26.572 190.023,0 180.513,0 180.513,3.924 185.743,3.924 184.317,35.193 
	179.204,35.193 179.204,39.117 193.53,39.117 193.53,35.193 188.597,35.193 189.549,7.847 202.15,33.588 203.338,33.588 
	215.942,7.847 216.953,35.193 211.959,35.193 211.959,39.117 226.346,39.117 226.346,35.193 221.292,35.193 219.865,3.924 
	225.099,3.924 225.099,0 "/>
</svg>
