<?xml version="1.0" encoding="utf-8"?>
<!-- Generator: Adobe Illustrator 16.0.0, SVG Export Plug-In . SVG Version: 6.00 Build 0)  -->
<!DOCTYPE svg PUBLIC "-//W3C//DTD SVG 1.1//EN" "http://www.w3.org/Graphics/SVG/1.1/DTD/svg11.dtd">
<svg version="1.1" id="Layer_1" xmlns="http://www.w3.org/2000/svg" xmlns:xlink="http://www.w3.org/1999/xlink" x="0px" y="0px"
	 width="493.596px" height="209.681px" viewBox="0 0 493.596 209.681" enable-background="new 0 0 493.596 209.681"
	 xml:space="preserve">
<g>
	<defs>
		<rect id="SVGID_1_" width="493.596" height="209.681"/>
	</defs>
	<clipPath id="SVGID_2_">
		<use xlink:href="#SVGID_1_"  overflow="visible"/>
	</clipPath>
	<path clip-path="url(#SVGID_2_)" fill="#FFFFFF" d="M89.104,100.782h-0.05l-5.718,13.612h-0.732l-5.524-13.09h-0.046l-0.56,9.49
		c-0.144,2.217,1,2.217,2.871,2.678v0.677h-7.303v-0.677c1.801-0.54,2.287-0.605,2.602-2.559l1.44-10.411
		c0.197-1.805-1.146-1.836-2.576-2.224V97.59h6.397v0.5c-0.637,0.844,0.393,2.672,0.733,3.47l3.428,7.889l3.94-9.077
		c0.288-0.654,0.831-1.662,0.2-2.282v-0.5h6.887v0.687c-2.437,0.514-2.823,0.902-2.703,3.237l0.413,7.869
		c0.171,2.768,0.195,3.59,3.191,4.088v0.677h-9.399v-0.677c3.337-0.392,3.142-1.193,2.969-4.278L89.104,100.782z"/>
	<path clip-path="url(#SVGID_2_)" fill="#FFFFFF" d="M105.309,108.058l-1.759-4.482l-1.661,4.482H105.309z M101.522,109.215
		l-0.341,0.99c-1.164,3.343-0.375,3.398,1.732,3.645v0.543H96.91v-0.543c1.042-0.325,1.489-0.355,1.929-1.382l4.261-9.969
		l-0.187-0.582c0.752-0.267,1.371-0.827,1.835-1.489h0.367l3.614,9.411c1.253,3.168,1.112,3.403,3.104,4.011v0.543h-6.567v-0.543
		c1.872-0.325,1.988-0.691,0.931-3.411l-0.464-1.224H101.522z"/>
	<path clip-path="url(#SVGID_2_)" fill="#FFFFFF" d="M122.024,104.834h-0.576c-0.368-1.591-0.832-3.35-2.823-3.35
		c-1.173,0-1.968,0.87-1.968,2.007c0,3.132,6.354,2.924,6.354,6.958c0,2.787-2.66,3.944-5.141,3.944
		c-1.366,0-2.719-0.371-3.913-0.983l-0.635-3.829l0.599-0.115c0.631,1.891,2.042,4.041,4.318,4.041c1.276,0,2.223-0.828,2.223-2.086
		c0-3.273-6.353-2.998-6.353-6.816c0-2.569,2.452-4.005,4.802-4.005c1.168,0,2.307,0.283,3.291,0.868L122.024,104.834z"/>
	<path clip-path="url(#SVGID_2_)" fill="#FFFFFF" d="M124.898,104.993l0.446-4.344h0.405c0.195,0.34,0.464,0.516,0.754,0.566
		c0.31,0.071,0.635,0.048,0.986,0.048h8.165c0.695,0,1.352,0.101,1.734-0.614h0.416l0.438,4.344l-0.537,0.094
		c-0.77-2.75-2.205-3.027-4.875-3.027v8.05c0,3.491,0.258,3.354,2.899,3.74v0.544h-8.334v-0.544c2.643-0.386,2.898-0.249,2.898-3.74
		v-8.05c-2.674,0-4.06,0.277-4.849,3.027L124.898,104.993z"/>
	<path clip-path="url(#SVGID_2_)" fill="#FFFFFF" d="M144.983,108.154v2.553c0,1.971,0.016,2.869,2.589,2.869
		c2.506,0,3.589-1.403,4.133-3.62h0.575c0.044,1.493-0.23,2.991-0.696,4.438h-11.702v-0.541c2.299-0.392,2.546-0.249,2.546-3.742
		v-4.567c0-3.49-0.247-3.361-2.546-3.746v-0.538h11.433l-0.36,3.38h-0.601c-0.144-2.53-1.856-2.572-3.964-2.572h-1.407v4.936h1.633
		c1.667,0,2.537-0.139,3.021-1.901h0.501c-0.098,1.644-0.171,3.268-0.083,4.91h-0.533c-0.39-1.895-1.293-1.858-2.973-1.858H144.983z
		"/>
	<path clip-path="url(#SVGID_2_)" fill="#FFFFFF" d="M159.48,107.264c1.797-0.138,3.594-0.915,3.594-2.994
		c0-1.994-1.853-2.536-3.594-2.536V107.264z M156.934,104.731c0-2.604-0.137-2.965-2.549-3.168v-0.534h6.006
		c2.377,0,5.578,0,5.578,3.07c0,1.516-1.163,2.638-2.513,3.166c1.427,2.82,3.422,5.834,6.612,6.589l-0.089,0.541
		c-1.715-0.101-3.701,0.074-5.211-0.973c-0.982-0.688-2.097-2.506-2.676-3.587c-0.917-1.744-0.779-1.623-2.612-1.897v1.937
		c0,2.623-0.114,3.515,2.991,3.741v0.541h-8.086v-0.541c2.293-0.387,2.549-0.25,2.549-3.741V104.731z"/>
	<path clip-path="url(#SVGID_2_)" fill="#FFFFFF" d="M183.762,107.208c0,2.721,1.275,6.297,4.539,6.297
		c3.046,0,4.107-3.113,4.107-5.649c0-2.739-1.31-6.372-4.613-6.372C184.827,101.484,183.762,104.79,183.762,107.208
		 M195.539,107.396c0,4.306-3.242,7-7.495,7c-4.186,0-7.41-2.594-7.41-6.863c0-4.186,3.244-6.933,7.397-6.933
		C192.083,100.6,195.539,102.954,195.539,107.396"/>
	<path clip-path="url(#SVGID_2_)" fill="#FFFFFF" d="M202.828,108.39v1.72c0,2.621-0.111,3.518,3.051,3.741v0.543h-8.147v-0.543
		c2.294-0.387,2.541-0.256,2.541-3.741v-4.566c0-3.491-0.247-3.362-2.541-3.749v-0.533h11.43l-0.463,3.498h-0.615
		c-0.102-2.538-1.629-2.7-3.786-2.7h-1.47v5.172h1.66c1.663,0,2.549-0.113,3.008-1.872h0.532c-0.103,1.676-0.137,3.372-0.119,5.052
		h-0.507c-0.343-2.021-1.168-2.021-2.989-2.021H202.828z"/>
	<path clip-path="url(#SVGID_2_)" fill="#FFFFFF" d="M253.428,108.058l-1.755-4.482l-1.669,4.482H253.428z M249.644,109.215
		l-0.354,0.99c-1.156,3.343-0.36,3.398,1.738,3.645v0.543h-6.002v-0.543c1.042-0.325,1.487-0.355,1.93-1.382l4.266-9.969
		l-0.193-0.582c0.757-0.267,1.384-0.827,1.831-1.489h0.377l3.607,9.411c1.253,3.168,1.118,3.403,3.104,4.011v0.543h-6.568v-0.543
		c1.881-0.325,1.995-0.691,0.928-3.411l-0.454-1.224H249.644z"/>
	<path clip-path="url(#SVGID_2_)" fill="#FFFFFF" d="M263.269,105.067c0-1.995-0.06-3.387-2.506-3.813v-0.529h4.443
		c2.428,3.169,5.791,6.363,8.569,9.616l0.043-0.045l-0.114-6.139c-0.051-2.29-0.616-2.591-2.905-2.903v-0.529h5.878v0.529
		c-1.701,0.166-1.804,0.971-1.804,4.124v8.599l-0.865,0.417c-1.896-2.314-6.492-6.955-9.675-10.39
		c-0.054,2.154,0.042,4.184,0.122,6.292c0.069,2.38,0.501,2.528,2.774,3.014v0.544h-6.337v-0.544
		c1.419-0.277,2.376-0.19,2.376-2.805V105.067z"/>
	<path clip-path="url(#SVGID_2_)" fill="#FFFFFF" d="M286.282,108.058l-1.754-4.482l-1.656,4.482H286.282z M282.501,109.215
		l-0.349,0.99c-1.154,3.343-0.365,3.398,1.744,3.645v0.543h-6.009v-0.543c1.045-0.325,1.488-0.355,1.931-1.382l4.267-9.969
		l-0.188-0.582c0.746-0.267,1.368-0.827,1.834-1.489h0.359l3.615,9.411c1.254,3.168,1.121,3.403,3.112,4.011v0.543h-6.567v-0.543
		c1.871-0.325,1.987-0.691,0.926-3.411l-0.466-1.224H282.501z"/>
	<path clip-path="url(#SVGID_2_)" fill="#FFFFFF" d="M307.357,112.555h1.032v0.447c-2.044,0.855-4.258,1.394-6.492,1.394
		c-3.999,0-7.623-2.519-7.623-6.688c0-4.662,4.078-7.107,8.268-7.107c1.722,0,3.32,0.409,4.922,1.029v3.687h-0.572
		c-0.582-2.305-2.146-3.827-4.674-3.827c-3.091,0-4.804,2.688-4.804,5.525c0,3.549,2.313,6.493,5.959,6.493
		c1.372,0,1.317-0.33,1.432-1.148v-1.002c0-2.512-0.143-2.686-2.801-3.053v-0.541h6.812v0.541c-1.308,0.337-1.459,0.562-1.459,1.918
		V112.555z"/>
	<path clip-path="url(#SVGID_2_)" fill="#FFFFFF" d="M316.1,108.154v2.553c0,1.971,0.016,2.869,2.583,2.869
		c2.507,0,3.589-1.403,4.134-3.62h0.578c0.036,1.493-0.233,2.991-0.692,4.438h-11.7v-0.541c2.304-0.392,2.537-0.249,2.537-3.742
		v-4.567c0-3.49-0.233-3.361-2.537-3.746v-0.538h11.427l-0.362,3.38h-0.598c-0.141-2.53-1.855-2.572-3.962-2.572H316.1v4.936h1.633
		c1.665,0,2.533-0.139,3.018-1.901h0.503c-0.103,1.644-0.177,3.268-0.077,4.91h-0.546c-0.382-1.895-1.285-1.858-2.967-1.858H316.1z"
		/>
	<path clip-path="url(#SVGID_2_)" fill="#FFFFFF" d="M338.827,103.592h-0.044l-4.532,10.802h-0.575l-4.393-10.399h-0.036
		l-0.444,7.541c-0.115,1.763,0.796,1.763,2.275,2.125v0.539h-5.792v-0.539c1.434-0.429,1.812-0.486,2.064-2.027l1.138-8.282
		c0.164-1.412-0.906-1.438-2.043-1.75v-0.532h5.074v0.385c-0.501,0.672,0.319,2.122,0.583,2.759l2.729,6.249l3.13-7.203
		c0.227-0.509,0.648-1.312,0.15-1.805v-0.385h5.462v0.532c-1.932,0.41-2.245,0.716-2.142,2.57l0.326,6.241
		c0.132,2.209,0.157,2.859,2.525,3.248v0.539h-7.446v-0.539c2.646-0.308,2.483-0.947,2.356-3.398L338.827,103.592z"/>
	<path clip-path="url(#SVGID_2_)" fill="#FFFFFF" d="M350.896,108.154v2.553c0,1.971,0.015,2.869,2.588,2.869
		c2.501,0,3.579-1.403,4.133-3.62h0.568c0.045,1.493-0.225,2.991-0.689,4.438h-11.704v-0.541c2.305-0.392,2.555-0.249,2.555-3.742
		v-4.567c0-3.49-0.25-3.361-2.555-3.746v-0.538h11.435l-0.364,3.38h-0.601c-0.139-2.53-1.854-2.572-3.968-2.572h-1.397v4.936h1.645
		c1.65,0,2.521-0.139,3.011-1.901h0.494c-0.094,1.644-0.169,3.268-0.077,4.91h-0.541c-0.379-1.895-1.299-1.858-2.971-1.858H350.896z
		"/>
	<path clip-path="url(#SVGID_2_)" fill="#FFFFFF" d="M362.633,105.067c0-1.995-0.071-3.387-2.515-3.813v-0.529h4.442
		c2.436,3.169,5.799,6.363,8.58,9.616l0.04-0.045l-0.118-6.139c-0.046-2.29-0.623-2.591-2.906-2.903v-0.529h5.876v0.529
		c-1.703,0.166-1.797,0.971-1.797,4.124v8.599l-0.871,0.417c-1.888-2.314-6.481-6.955-9.68-10.39
		c-0.049,2.154,0.047,4.184,0.117,6.292c0.084,2.38,0.511,2.528,2.795,3.014v0.544h-6.34v-0.544c1.411-0.277,2.376-0.19,2.376-2.805
		V105.067z"/>
	<path clip-path="url(#SVGID_2_)" fill="#FFFFFF" d="M377.784,104.993l0.446-4.344h0.408c0.19,0.34,0.46,0.516,0.747,0.566
		c0.317,0.071,0.634,0.048,0.981,0.048h8.179c0.693,0,1.343,0.101,1.734-0.614h0.4l0.451,4.344l-0.543,0.094
		c-0.779-2.75-2.196-3.027-4.866-3.027v8.05c0,3.491,0.248,3.354,2.894,3.74v0.544h-8.346v-0.544
		c2.646-0.386,2.897-0.249,2.897-3.74v-8.05c-2.662,0-4.041,0.277-4.839,3.027L377.784,104.993z"/>
	<path clip-path="url(#SVGID_2_)" fill="#FFFFFF" d="M407.583,110.111c0,3.491,0.243,3.354,2.56,3.741v0.541h-7.656v-0.541
		c2.3-0.388,2.553-0.25,2.553-3.741v-4.566c0-3.495-0.253-3.364-2.553-3.747v-0.535h7.656v0.535c-2.316,0.383-2.56,0.252-2.56,3.747
		V110.111z"/>
	<path clip-path="url(#SVGID_2_)" fill="#FFFFFF" d="M414.235,105.067c0-1.995-0.059-3.387-2.513-3.813v-0.529h4.449
		c2.423,3.169,5.782,6.363,8.566,9.616l0.039-0.045l-0.124-6.139c-0.032-2.29-0.617-2.591-2.893-2.903v-0.529h5.864v0.529
		c-1.688,0.166-1.787,0.971-1.787,4.124v8.599l-0.865,0.417c-1.896-2.314-6.498-6.955-9.676-10.39
		c-0.059,2.154,0.032,4.184,0.116,6.292c0.071,2.38,0.495,2.528,2.78,3.014v0.544h-6.338v-0.544c1.411-0.277,2.38-0.19,2.38-2.805
		V105.067z"/>
	<path clip-path="url(#SVGID_2_)" fill="#FFFFFF" d="M29.223,132.704c0,4.409,0.315,4.238,3.214,4.729v0.671h-9.636v-0.671
		c2.898-0.491,3.213-0.32,3.213-4.729v-5.741c0-4.414-0.315-4.24-3.213-4.725v-0.684h9.636v0.684
		c-2.899,0.484-3.214,0.311-3.214,4.725V132.704z"/>
	<path clip-path="url(#SVGID_2_)" fill="#FFFFFF" d="M36.901,129.324c0-1.985-0.056-3.387-2.516-3.814v-0.53h4.45
		c2.429,3.166,5.787,6.363,8.57,9.622l0.039-0.043l-0.12-6.146c-0.037-2.306-0.615-2.583-2.894-2.902v-0.53h5.872v0.53
		c-1.699,0.163-1.794,0.975-1.794,4.123v8.596l-0.869,0.42c-1.889-2.315-6.488-6.954-9.677-10.392
		c-0.053,2.168,0.041,4.192,0.114,6.302c0.081,2.374,0.505,2.526,2.782,3.01v0.533h-6.33v-0.533
		c1.405-0.273,2.373-0.191,2.373-2.802V129.324z"/>
	<path clip-path="url(#SVGID_2_)" fill="#FFFFFF" d="M52.052,128.699l0.443-4.338h0.404c0.202,0.336,0.461,0.515,0.762,0.576
		c0.301,0.058,0.63,0.039,0.979,0.039h8.174c0.688,0,1.348,0.096,1.725-0.615h0.414l0.442,4.338l-0.538,0.102
		c-0.777-2.749-2.209-3.011-4.867-3.011v8.035c0,3.496,0.241,3.354,2.893,3.747v0.536h-8.339v-0.536
		c2.644-0.394,2.897-0.251,2.897-3.747v-8.035c-2.662,0-4.06,0.262-4.849,3.011L52.052,128.699z"/>
	<path clip-path="url(#SVGID_2_)" fill="#FFFFFF" d="M72.124,131.875v2.549c0,1.962,0.012,2.87,2.587,2.87
		c2.511,0,3.588-1.405,4.133-3.633h0.576c0.041,1.51-0.23,2.997-0.694,4.442H67.028v-0.532c2.294-0.396,2.544-0.256,2.544-3.748
		v-4.557c0-3.496-0.25-3.364-2.544-3.758v-0.529h11.423l-0.36,3.368h-0.597c-0.138-2.52-1.851-2.557-3.961-2.557h-1.409v4.912h1.64
		c1.657,0,2.527-0.127,3.009-1.881h0.51c-0.1,1.636-0.176,3.262-0.085,4.896h-0.539c-0.377-1.883-1.292-1.844-2.969-1.844H72.124z"
		/>
	<path clip-path="url(#SVGID_2_)" fill="#FFFFFF" d="M86.613,131.215c1.797-0.139,3.586-0.912,3.586-3.002
		c0-1.987-1.848-2.525-3.586-2.525V131.215z M84.066,128.683c0-2.612-0.144-2.975-2.551-3.178v-0.526h6.009
		c2.375,0,5.576,0,5.576,3.077c0,1.511-1.158,2.638-2.511,3.159c1.43,2.822,3.421,5.832,6.609,6.581l-0.08,0.545
		c-1.721-0.096-3.713,0.08-5.215-0.965c-0.983-0.691-2.101-2.515-2.686-3.596c-0.91-1.726-0.767-1.621-2.604-1.892v1.934
		c0,2.63-0.116,3.506,2.988,3.747v0.533h-8.086v-0.533c2.292-0.394,2.551-0.253,2.551-3.747V128.683z"/>
	<path clip-path="url(#SVGID_2_)" fill="#FFFFFF" d="M99.5,129.324c0-1.985-0.053-3.387-2.512-3.814v-0.53h4.44
		c2.433,3.166,5.799,6.363,8.571,9.622l0.046-0.043l-0.113-6.146c-0.043-2.306-0.624-2.583-2.903-2.902v-0.53h5.872v0.53
		c-1.694,0.163-1.791,0.975-1.791,4.123v8.596l-0.877,0.42c-1.887-2.315-6.486-6.954-9.671-10.392
		c-0.06,2.168,0.04,4.192,0.119,6.302c0.072,2.374,0.502,2.526,2.779,3.01v0.533h-6.332v-0.533c1.41-0.273,2.372-0.191,2.372-2.802
		V129.324z"/>
	<path clip-path="url(#SVGID_2_)" fill="#FFFFFF" d="M122.507,131.776l-1.755-4.476l-1.665,4.476H122.507z M118.725,132.923
		l-0.349,0.999c-1.159,3.336-0.367,3.397,1.733,3.646v0.539h-6.001v-0.539c1.048-0.33,1.494-0.361,1.931-1.389l4.271-9.97
		l-0.201-0.577c0.759-0.272,1.378-0.842,1.833-1.499h0.372l3.612,9.422c1.256,3.168,1.117,3.39,3.109,4.013v0.539h-6.574v-0.539
		c1.884-0.33,2-0.697,0.93-3.414l-0.459-1.231H118.725z"/>
	<path clip-path="url(#SVGID_2_)" fill="#FFFFFF" d="M128.715,128.699l0.449-4.338h0.397c0.198,0.336,0.468,0.515,0.759,0.576
		c0.307,0.058,0.635,0.039,0.983,0.039h8.165c0.698,0,1.351,0.096,1.739-0.615h0.404l0.45,4.338l-0.542,0.102
		c-0.772-2.749-2.211-3.011-4.867-3.011v8.035c0,3.496,0.25,3.354,2.895,3.747v0.536h-8.342v-0.536c2.646-0.394,2.9-0.251,2.9-3.747
		v-8.035c-2.669,0-4.055,0.262-4.846,3.011L128.715,128.699z"/>
	<path clip-path="url(#SVGID_2_)" fill="#FFFFFF" d="M148.849,133.824c0,3.495,0.253,3.353,2.552,3.746v0.536h-7.652v-0.536
		c2.298-0.394,2.548-0.251,2.548-3.746v-4.559c0-3.501-0.25-3.362-2.548-3.759v-0.526h7.652v0.526
		c-2.299,0.396-2.552,0.258-2.552,3.759V133.824z"/>
	<path clip-path="url(#SVGID_2_)" fill="#FFFFFF" d="M156.771,131.248c0,2.733,1.274,6.306,4.531,6.306
		c3.058,0,4.118-3.115,4.118-5.646c0-2.736-1.316-6.374-4.614-6.374C157.833,125.533,156.771,128.837,156.771,131.248
		 M168.549,131.442c0,4.312-3.244,6.998-7.485,6.998c-4.204,0-7.422-2.588-7.422-6.854c0-4.195,3.241-6.94,7.391-6.94
		C165.099,124.645,168.549,126.997,168.549,131.442"/>
	<path clip-path="url(#SVGID_2_)" fill="#FFFFFF" d="M173.08,129.324c0-1.985-0.057-3.387-2.512-3.814v-0.53h4.443
		c2.43,3.166,5.79,6.363,8.573,9.622l0.037-0.043l-0.115-6.146c-0.043-2.306-0.622-2.583-2.899-2.902v-0.53h5.871v0.53
		c-1.695,0.163-1.794,0.975-1.794,4.123v8.596l-0.868,0.42c-1.893-2.315-6.492-6.954-9.672-10.392
		c-0.065,2.168,0.032,4.192,0.112,6.302c0.08,2.374,0.501,2.526,2.78,3.01v0.533h-6.332v-0.533c1.411-0.273,2.376-0.191,2.376-2.802
		V129.324z"/>
	<path clip-path="url(#SVGID_2_)" fill="#FFFFFF" d="M196.086,131.776l-1.749-4.476l-1.666,4.476H196.086z M192.305,132.923
		l-0.351,0.999c-1.16,3.336-0.368,3.397,1.736,3.646v0.539h-6.002v-0.539c1.041-0.33,1.485-0.361,1.931-1.389l4.269-9.97
		l-0.198-0.577c0.757-0.272,1.371-0.842,1.837-1.499h0.371l3.606,9.422c1.252,3.168,1.122,3.39,3.11,4.013v0.539h-6.564v-0.539
		c1.869-0.33,1.991-0.697,0.921-3.414l-0.459-1.231H192.305z"/>
	<path clip-path="url(#SVGID_2_)" fill="#FFFFFF" d="M215.147,138.105h-11.556v-0.535c2.298-0.394,2.544-0.252,2.544-3.747v-4.556
		c0-3.502-0.246-3.364-2.544-3.76v-0.528h7.646v0.528c-2.668,0.235-2.553,1.128-2.553,3.76v7.104c0,0.628-0.294,0.87,1.758,0.87
		c3.306,0,4.063-1.24,5.602-3.899l0.543,0.214L215.147,138.105z"/>
	<path clip-path="url(#SVGID_2_)" fill="#FFFFFF" d="M237.229,130.125l-2.211-5.655l-2.097,5.655H237.229z M232.463,131.587
		l-0.443,1.232c-1.462,4.217-0.455,4.292,2.189,4.611v0.676h-7.566v-0.676c1.319-0.424,1.876-0.461,2.44-1.75l5.362-12.57
		l-0.236-0.731c0.95-0.337,1.728-1.042,2.312-1.876h0.467l4.555,11.862c1.576,3.994,1.405,4.277,3.915,5.065v0.676h-8.277v-0.676
		c2.359-0.424,2.509-0.881,1.162-4.312l-0.58-1.531H232.463z"/>
	<path clip-path="url(#SVGID_2_)" fill="#FFFFFF" d="M251.689,131.215c1.792-0.139,3.593-0.912,3.593-3.002
		c0-1.987-1.856-2.525-3.593-2.525V131.215z M249.139,128.683c0-2.612-0.139-2.975-2.55-3.178v-0.526h6.008
		c2.376,0,5.576,0,5.576,3.077c0,1.511-1.154,2.638-2.505,3.159c1.425,2.822,3.416,5.832,6.598,6.581l-0.072,0.545
		c-1.725-0.096-3.708,0.08-5.221-0.965c-0.975-0.691-2.099-2.515-2.673-3.596c-0.92-1.726-0.777-1.62-2.61-1.892v1.934
		c0,2.63-0.119,3.506,2.993,3.747v0.533h-8.094v-0.533c2.301-0.394,2.55-0.253,2.55-3.747V128.683z"/>
	<path clip-path="url(#SVGID_2_)" fill="#FFFFFF" d="M261.832,128.699l0.44-4.338h0.411c0.188,0.336,0.464,0.515,0.754,0.576
		c0.312,0.058,0.627,0.039,0.988,0.039h8.167c0.682,0,1.349,0.096,1.729-0.615h0.411l0.444,4.338l-0.541,0.102
		c-0.775-2.749-2.204-3.011-4.86-3.011v8.035c0,3.496,0.244,3.354,2.891,3.747v0.536h-8.349v-0.536
		c2.66-0.394,2.901-0.251,2.901-3.747v-8.035c-2.665,0-4.055,0.262-4.85,3.011L261.832,128.699z"/>
	<path clip-path="url(#SVGID_2_)" fill="#FFFFFF" d="M286.016,128.881h-0.576c-0.37-1.583-0.831-3.348-2.819-3.348
		c-1.179,0-1.974,0.873-1.974,2.001c0,3.136,6.357,2.928,6.357,6.964c0,2.782-2.674,3.937-5.133,3.937
		c-1.377,0-2.729-0.36-3.927-0.979l-0.64-3.828l0.604-0.115c0.637,1.896,2.035,4.044,4.324,4.044c1.277,0,2.226-0.835,2.226-2.1
		c0-3.258-6.364-2.99-6.364-6.816c0-2.57,2.459-3.991,4.819-3.991c1.154,0,2.289,0.288,3.277,0.86L286.016,128.881z"/>
	<path clip-path="url(#SVGID_2_)" fill="#FFFFFF" d="M315.526,124.744h-0.048l-5.722,13.614h-0.725l-5.534-13.103h-0.04
		l-0.559,9.498c-0.152,2.214,0.994,2.214,2.876,2.68v0.671h-7.308v-0.671c1.8-0.538,2.287-0.61,2.603-2.562l1.438-10.415
		c0.198-1.807-1.141-1.838-2.576-2.216v-0.688h6.395v0.494c-0.631,0.844,0.393,2.669,0.73,3.476l3.437,7.888l3.942-9.078
		c0.285-0.663,0.827-1.658,0.198-2.285v-0.494h6.878v0.688c-2.436,0.512-2.819,0.898-2.697,3.234l0.409,7.865
		c0.168,2.778,0.2,3.604,3.191,4.094v0.671h-9.398v-0.671c3.337-0.397,3.138-1.194,2.972-4.293L315.526,124.744z"/>
	<path clip-path="url(#SVGID_2_)" fill="#FFFFFF" d="M237.253,100.782h-0.048l-5.723,13.612h-0.725l-5.534-13.101h-0.04
		l-0.564,9.496c-0.149,2.217,1,2.217,2.88,2.68v0.67h-7.306v-0.67c1.799-0.538,2.284-0.605,2.6-2.569l1.437-10.405
		c0.2-1.806-1.141-1.837-2.571-2.217V97.59h6.394v0.498c-0.634,0.841,0.391,2.662,0.729,3.472l3.436,7.883l3.943-9.073
		c0.284-0.663,0.827-1.658,0.194-2.282V97.59h6.882v0.687c-2.433,0.514-2.82,0.898-2.699,3.237l0.41,7.863
		c0.168,2.781,0.201,3.602,3.192,4.092v0.67h-9.397v-0.67c3.336-0.393,3.134-1.191,2.972-4.292L237.253,100.782z"/>
	<path clip-path="url(#SVGID_2_)" fill="#FFFFFF" d="M331.974,131.776l-1.754-4.476l-1.663,4.476H331.974z M328.192,132.923
		l-0.356,0.999c-1.148,3.336-0.366,3.397,1.743,3.646v0.539h-6.004v-0.539c1.037-0.33,1.486-0.361,1.927-1.387l4.273-9.972
		l-0.196-0.577c0.752-0.272,1.366-0.842,1.829-1.499h0.368l3.616,9.422c1.253,3.168,1.117,3.39,3.104,4.013v0.539h-6.564v-0.539
		c1.879-0.33,1.993-0.697,0.928-3.414l-0.461-1.231H328.192z"/>
	<path clip-path="url(#SVGID_2_)" fill="#FFFFFF" d="M341.804,129.324c0-1.985-0.058-3.387-2.506-3.814v-0.53h4.442
		c2.44,3.166,5.795,6.363,8.578,9.622l0.031-0.043l-0.113-6.146c-0.039-2.306-0.613-2.583-2.896-2.902v-0.53h5.867v0.53
		c-1.696,0.163-1.795,0.975-1.795,4.123v8.596l-0.87,0.42c-1.896-2.315-6.483-6.954-9.667-10.392
		c-0.062,2.168,0.036,4.192,0.112,6.302c0.08,2.375,0.504,2.526,2.781,3.01v0.533h-6.337v-0.533
		c1.413-0.273,2.371-0.191,2.371-2.802V129.324z"/>
	<path clip-path="url(#SVGID_2_)" fill="#FFFFFF" d="M364.817,131.776l-1.762-4.476l-1.659,4.476H364.817z M361.035,132.923
		l-0.347,0.999c-1.162,3.336-0.364,3.397,1.737,3.646v0.539h-6.015v-0.539c1.053-0.33,1.486-0.361,1.938-1.387l4.268-9.972
		l-0.191-0.577c0.744-0.272,1.364-0.842,1.831-1.499h0.367l3.608,9.422c1.256,3.168,1.12,3.39,3.109,4.013v0.539h-6.56v-0.539
		c1.869-0.33,1.985-0.697,0.927-3.414l-0.466-1.231H361.035z"/>
	<path clip-path="url(#SVGID_2_)" fill="#FFFFFF" d="M385.878,136.606h1.043v0.443c-2.059,0.845-4.265,1.386-6.495,1.386
		c-3.999,0-7.621-2.51-7.621-6.678c0-4.658,4.07-7.107,8.263-7.107c1.715,0,3.317,0.405,4.917,1.021v3.687h-0.573
		c-0.583-2.296-2.15-3.822-4.671-3.822c-3.086,0-4.815,2.676-4.815,5.522c0,3.561,2.322,6.493,5.98,6.493
		c1.355,0,1.302-0.338,1.42-1.142v-1c0-2.516-0.138-2.684-2.801-3.054v-0.54h6.815v0.54c-1.314,0.33-1.462,0.557-1.462,1.912
		V136.606z"/>
	<path clip-path="url(#SVGID_2_)" fill="#FFFFFF" d="M394.605,131.876v2.548c0,1.962,0.024,2.87,2.593,2.87
		c2.502,0,3.581-1.406,4.137-3.633h0.569c0.037,1.51-0.23,2.998-0.688,4.443h-11.699v-0.533c2.291-0.396,2.546-0.256,2.546-3.748
		v-4.558c0-3.495-0.255-3.363-2.546-3.757v-0.528h11.43l-0.364,3.366h-0.602c-0.143-2.519-1.854-2.556-3.966-2.556h-1.409v4.912
		h1.638c1.676,0,2.54-0.127,3.021-1.881h0.501c-0.086,1.637-0.175,3.263-0.077,4.897h-0.551c-0.371-1.884-1.282-1.844-2.967-1.844
		H394.605z"/>
	<path clip-path="url(#SVGID_2_)" fill="#FFFFFF" d="M417.327,127.504h-0.044l-4.527,10.807h-0.583l-4.379-10.401h-0.039
		l-0.446,7.531c-0.105,1.765,0.79,1.765,2.269,2.13v0.537h-5.789v-0.537c1.434-0.436,1.817-0.484,2.073-2.035l1.134-8.262
		c0.154-1.433-0.905-1.445-2.046-1.765v-0.532h5.085v0.383c-0.502,0.675,0.297,2.125,0.577,2.762l2.724,6.257l3.126-7.197
		c0.229-0.53,0.654-1.323,0.152-1.821v-0.383h5.465v0.532c-1.925,0.411-2.24,0.717-2.136,2.574l0.322,6.243
		c0.133,2.199,0.154,2.852,2.527,3.244v0.537h-7.46v-0.537c2.65-0.312,2.497-0.952,2.372-3.397L417.327,127.504z"/>
	<path clip-path="url(#SVGID_2_)" fill="#FFFFFF" d="M429.387,131.876v2.548c0,1.962,0.024,2.87,2.591,2.87
		c2.509,0,3.593-1.406,4.132-3.633h0.586c0.034,1.51-0.243,2.998-0.7,4.443h-11.702v-0.533c2.297-0.396,2.549-0.256,2.549-3.748
		v-4.558c0-3.495-0.252-3.363-2.549-3.757v-0.528h11.428l-0.36,3.366h-0.599c-0.139-2.519-1.854-2.556-3.971-2.556h-1.404v4.912
		h1.645c1.66,0,2.528-0.127,3.011-1.881h0.499c-0.085,1.637-0.167,3.263-0.073,4.897h-0.541c-0.383-1.884-1.292-1.844-2.975-1.844
		H429.387z"/>
	<path clip-path="url(#SVGID_2_)" fill="#FFFFFF" d="M441.116,129.324c0-1.985-0.053-3.387-2.509-3.814v-0.53h4.446
		c2.428,3.166,5.79,6.363,8.571,9.622l0.037-0.043l-0.117-6.146c-0.042-2.306-0.613-2.583-2.9-2.902v-0.53h5.871v0.53
		c-1.692,0.163-1.794,0.975-1.794,4.123v8.596l-0.865,0.42c-1.894-2.315-6.489-6.954-9.671-10.392
		c-0.066,2.168,0.035,4.192,0.107,6.302c0.075,2.375,0.507,2.526,2.785,3.01v0.533h-6.338v-0.533
		c1.415-0.273,2.376-0.191,2.376-2.802V129.324z"/>
	<path clip-path="url(#SVGID_2_)" fill="#FFFFFF" d="M456.266,128.699l0.448-4.338h0.412c0.192,0.336,0.458,0.515,0.751,0.576
		c0.302,0.058,0.624,0.039,0.984,0.039h8.162c0.696,0,1.353,0.096,1.74-0.615h0.403l0.446,4.338l-0.541,0.102
		c-0.778-2.749-2.197-3.011-4.866-3.011v8.035c0,3.496,0.246,3.354,2.889,3.747v0.536h-8.334v-0.536
		c2.647-0.394,2.896-0.251,2.896-3.747v-8.035c-2.662,0-4.056,0.262-4.846,3.011L456.266,128.699z"/>
	<rect y="150.798" clip-path="url(#SVGID_2_)" fill="#FFFFFF" width="493.596" height="1.451"/>
	<polygon clip-path="url(#SVGID_2_)" fill="#FFFFFF" points="41.576,182.013 38.857,182.013 38.857,187.179 33.102,187.179 
		33.102,182.013 30.333,182.013 30.333,187.179 27.859,187.179 27.859,189.759 30.333,189.759 30.333,195.769 33.102,195.769 
		33.102,189.759 38.857,189.759 38.857,195.769 41.624,195.769 41.624,182.013 	"/>
	<polygon clip-path="url(#SVGID_2_)" fill="#FFFFFF" points="45.114,182.013 45.114,187.179 42.604,187.179 42.604,189.759 
		45.114,189.759 45.114,195.769 54.174,195.769 54.174,193.18 47.829,193.18 47.829,189.759 53.769,189.759 53.769,187.179 
		47.829,187.179 47.829,184.583 54.174,184.583 54.174,182.013 	"/>
	<rect x="149.865" y="176.958" clip-path="url(#SVGID_2_)" fill="#FFFFFF" width="6.352" height="2.447"/>
	<path clip-path="url(#SVGID_2_)" fill="#FFFFFF" d="M163.507,186.894l1.885,3.904h-3.754L163.507,186.894z M156.337,195.769h3.184
		l1.13-2.523h5.728l1.124,2.523h3.168l-7.164-14.59L156.337,195.769z"/>
	<polygon clip-path="url(#SVGID_2_)" fill="#FFFFFF" points="147.165,182.013 147.165,187.179 144.826,187.179 144.826,189.759 
		147.165,189.759 147.165,195.769 156.219,195.769 156.219,193.18 149.866,193.18 149.866,189.759 155.803,189.759 155.803,187.179 
		149.866,187.179 149.866,184.583 156.219,184.583 156.219,182.013 	"/>
	<path clip-path="url(#SVGID_2_)" fill="#FFFFFF" d="M54.91,188.823c0,4.095,3.299,7.287,7.494,7.287
		c2.359,0,4.471-0.997,5.938-2.823l0.106-0.147l-2.254-1.628l-0.113,0.126c-0.867,1.156-2.207,1.822-3.677,1.822
		c-2.478,0-4.571-2.115-4.571-4.637c0-2.506,2.093-4.512,4.571-4.512c1.494,0,2.774,0.678,3.642,1.902l2.402-1.588l-0.106-0.14
		c-1.467-1.828-3.579-2.827-5.938-2.827C58.209,181.659,54.91,184.758,54.91,188.823"/>
	<polygon clip-path="url(#SVGID_2_)" fill="#FFFFFF" points="83.465,187.44 76.905,181.651 76.905,195.769 79.652,195.769 
		79.652,187.66 83.465,191.009 87.275,187.66 87.275,195.769 90.035,195.769 90.035,181.651 	"/>
	<path clip-path="url(#SVGID_2_)" fill="#FFFFFF" d="M98.812,193.443c-2.467,0-4.555-2.009-4.555-4.513
		c0-2.479,2.088-4.59,4.555-4.59c2.475,0,4.558,2.11,4.558,4.59C103.37,191.434,101.287,193.443,98.812,193.443 M98.812,181.659
		c-4.197,0-7.489,3.188-7.489,7.271c0,4.09,3.292,7.18,7.489,7.18c4.22,0,7.508-3.09,7.508-7.18
		C106.32,184.846,103.032,181.659,98.812,181.659"/>
	<polygon clip-path="url(#SVGID_2_)" fill="#FFFFFF" points="107.614,195.769 110.367,195.769 110.367,187.772 119.152,196.342 
		119.152,182.013 116.384,182.013 116.384,189.559 107.614,181.427 	"/>
	<polygon clip-path="url(#SVGID_2_)" fill="#FFFFFF" points="131.335,182.013 120.638,182.013 120.638,184.641 124.632,184.641 
		124.632,195.769 127.392,195.769 127.392,184.641 131.388,184.641 131.388,182.013 	"/>
	<polygon clip-path="url(#SVGID_2_)" fill="#FFFFFF" points="173.695,182.013 170.975,182.013 170.975,195.769 178.937,195.769 
		178.937,193.126 173.735,193.126 173.735,182.013 	"/>
	<path clip-path="url(#SVGID_2_)" fill="#FFFFFF" d="M135.633,187.184v-2.608h4.314c1.217,0,1.647,0.797,1.647,1.449
		c0,0.631-0.43,1.159-1.647,1.159H135.633z M140.973,189.699l0.182-0.026c2.052-0.414,3.19-1.574,3.19-3.669
		c0-2.581-1.676-4.002-4.61-4.002h-6.692h-0.176v5.177h-2.228v2.581h2.228v6.007h2.766v-6.007h2.269l3.454,6.007h3.269
		C144.537,195.632,140.973,189.699,140.973,189.699"/>
	<path clip-path="url(#SVGID_2_)" fill="#FFFFFF" d="M322.659,194.076c0.199,0,0.415,0.003,0.415-0.251
		c0-0.198-0.162-0.229-0.316-0.229h-0.327v0.479H322.659z M322.431,194.887h-0.195v-1.446h0.559c0.326,0,0.469,0.131,0.469,0.39
		c0,0.253-0.156,0.378-0.326,0.405l0.401,0.651h-0.222l-0.387-0.651h-0.299V194.887z M323.723,194.156
		c0-0.591-0.446-1.062-1.024-1.062c-0.593,0-1.027,0.472-1.027,1.062c0,0.589,0.435,1.06,1.027,1.06
		C323.276,195.215,323.723,194.745,323.723,194.156 M323.912,194.156c0,0.669-0.543,1.215-1.214,1.215s-1.227-0.546-1.227-1.215
		c0-0.673,0.556-1.228,1.227-1.228S323.912,193.483,323.912,194.156"/>
	<rect x="193.692" y="164.379" clip-path="url(#SVGID_2_)" fill="#FFFFFF" width="0.722" height="45.302"/>
	<rect x="339.872" y="164.379" clip-path="url(#SVGID_2_)" fill="#FFFFFF" width="0.721" height="45.302"/>
	<path clip-path="url(#SVGID_2_)" fill="#FFFFFF" d="M266.52,180.487l-0.561-0.018c-0.53-2.614-0.783-5.543-4.495-5.656
		c-2.34-0.073-4.424,1.415-4.371,3.654c0.152,5.383,10.829,3.968,10.661,11.694c-0.074,3.777-3.846,5.909-8.035,5.909
		c-2.474,0-4.557-0.923-6.05-1.889l-0.799-5.164l0.62,0.008c0.759,2.904,2.935,6.001,6.709,6.008
		c2.448,0.006,4.426-1.319,4.455-3.586c0.143-7.023-10.272-5.158-10.523-11.352c-0.191-4.575,3.94-6.289,7.5-6.172
		c1.838,0.056,3.69,0.54,5.261,1.401L266.52,180.487z"/>
	<path clip-path="url(#SVGID_2_)" fill="#FFFFFF" d="M283.128,191.122l4.957-12.443c0.758-1.728,1.173-3.29,0.485-3.765l0.061-0.501
		h6.839v0.479c-1.976,0.396-3.185,1.155-3.039,3.354l0.853,11.377c0.392,4.35,0.276,5.049,3.627,5.603v0.468h-10.244v-0.468
		c2.396-0.382,3.916-0.656,3.734-3.413l-0.928-13.677h-0.063l-7.199,17.558h-0.338l-7.713-16.821h-0.054
		c0,0-0.319,8.171-0.488,13.105c-0.037,1.207-0.007,2.625,3.767,3.248v0.468h-8.672v-0.468c2.752-0.471,3.236-2.136,3.432-4.352
		l0.766-8.723l0.304-4.326c0.088-2.125-1.6-2.784-3.432-2.933l-0.013-0.479h6.714l0.031,0.35c-0.672,0.711,0.185,2.597,0.392,3.092
		L283.128,191.122z"/>
	<path clip-path="url(#SVGID_2_)" fill="#FFFFFF" d="M321.15,174.415v0.479c-2.763,0.319-2.961,2.06-3.07,6.187l-0.181,6.859
		c-0.096,4.039-1.772,8.132-8.527,8.132c-9.428,0-8.45-6.997-8.45-9.514v-7.005c-0.097-3.226-0.126-4.162-3.775-4.659v-0.479h10.492
		v0.479c-3.977,0.58-4.037,1.211-4.037,4.659v6.408c0,0.597-0.979,8.67,7.362,8.67c6.561,0,5.937-6.438,5.937-10.261v-3.29
		c0-3.979-0.312-5.791-4.569-6.187v-0.479H321.15z"/>
	<polygon clip-path="url(#SVGID_2_)" fill="#FFFFFF" points="28.105,68.007 37.984,68.007 40.742,7.583 30.633,7.583 30.633,0 
		49.013,0 73.709,51.35 98.522,0 116.788,0 116.788,7.583 106.679,7.583 109.436,68.007 119.2,68.007 119.2,75.589 91.4,75.589 
		91.4,68.007 101.05,68.007 99.097,15.165 74.744,64.905 72.447,64.905 48.094,15.165 46.255,68.007 55.791,68.007 55.791,75.589 
		28.105,75.589 	"/>
	<polygon clip-path="url(#SVGID_2_)" fill="#FFFFFF" points="132.937,68.007 142.816,68.007 145.573,7.583 135.464,7.583 135.464,0 
		153.844,0 178.541,51.35 203.353,0 221.619,0 221.619,7.583 211.51,7.583 214.267,68.007 224.032,68.007 224.032,75.589 
		196.232,75.589 196.232,68.007 205.88,68.007 203.927,15.165 179.575,64.905 177.278,64.905 152.925,15.165 151.086,68.007 
		160.621,68.007 160.621,75.589 132.937,75.589 	"/>
	<polygon clip-path="url(#SVGID_2_)" fill="#FFFFFF" points="239.604,68.007 249.828,68.007 249.828,7.583 239.604,7.583 239.604,0 
		268.554,0 268.554,7.583 258.33,7.583 258.33,68.007 268.554,68.007 268.554,75.589 239.604,75.589 	"/>
	<path clip-path="url(#SVGID_2_)" fill="#FFFFFF" d="M335.146,42.275L322.279,7.009L309.3,42.275H335.146z M283.911,68.007h7.236
		l22.632-60.538h-8.615V0h34.461v7.468h-8.614l22.63,60.538h7.237v7.582h-25.273v-7.468h8.846l-6.777-18.609h-30.902l-6.777,18.609
		h9.189v7.468h-25.271V68.007z"/>
	<polygon clip-path="url(#SVGID_2_)" fill="#FFFFFF" points="374.395,68.007 384.274,68.007 387.033,7.583 376.922,7.583 376.922,0 
		395.302,0 420,51.35 444.812,0 463.08,0 463.08,7.583 452.968,7.583 455.725,68.007 465.49,68.007 465.49,75.589 437.689,75.589 
		437.689,68.007 447.34,68.007 445.387,15.165 421.033,64.905 418.737,64.905 394.383,15.165 392.545,68.007 402.081,68.007 
		402.081,75.589 374.395,75.589 	"/>
	<path clip-path="url(#SVGID_2_)" fill="#FFFFFF" d="M240.343,196.255v-1.105h-1.121v-1.098h-0.798v-9.979h1.208v-2.029
		l-1.151-0.532v-4.104h-0.682c-1.008-2.818-3.36-4.858-6.185-5.549v-1.146l-2.088-0.547l-2.088,0.547v1.147
		c-2.822,0.693-5.168,2.731-6.175,5.547h-0.681v4.097l-1.166,0.539v2.029h1.223v9.979h-0.802v1.098h-1.119v1.105h-1.125v1.695
		h23.869v-1.695H240.343z M221.239,183.832h1.559v10.218h-1.559V183.832z M224.243,183.832h1.56v10.218h-1.56V183.832z
		 M227.242,183.832h1.561v10.218h-1.561V183.832z M230.25,183.832h1.559v10.218h-1.559V183.832z M233.25,183.832h1.562v10.218
		h-1.562V183.832z M236.252,183.832h1.56v10.218h-1.56V183.832z M237.885,178.003v3.231l-6.99-3.231H237.885z M228.033,171.171
		l1.493-0.393l1.495,0.393v0.547c-0.487-0.084-0.983-0.135-1.49-0.135c-0.509,0-1.008,0.052-1.498,0.136V171.171z M229.531,172.178
		c3.4,0,6.422,2.084,7.64,5.228h-7.567h-0.156h-7.558C223.11,174.262,226.126,172.178,229.531,172.178 M221.174,178.003h6.983
		l-6.983,3.227V178.003z M219.969,183.523v-1.127l0.613-0.284l0.592-0.272l8.299-3.836l0.052-0.023l0.051,0.023l8.309,3.839
		l0.596,0.274l0.601,0.279v1.127H219.969z M220.45,194.651h18.177v0.683H220.45V194.651z M219.312,195.747l20.402-0.007v0.007h0.035
		v0.506v0.115h-0.035h-20.402V195.747z M240.845,197.373h-22.628v-0.63h22.628V197.373z"/>
	<path clip-path="url(#SVGID_2_)" fill="#FFFFFF" d="M237.885,182.308l-8.361-3.862l-8.35,3.858l-0.592,0.273l-0.189,0.087v0.434
		h0.189h17.899h0.176v-0.434l-0.176-0.081L237.885,182.308z M221.967,182.546l7.559-3.493l7.556,3.493H221.967z"/>
	<circle clip-path="url(#SVGID_2_)" fill="none" stroke="#FFFFFF" stroke-miterlimit="10" cx="229.522" cy="186.153" r="18.91"/>
	<path clip-path="url(#SVGID_2_)" fill="#FFFFFF" d="M399.114,179.11v-6.419h1.019c1.661,0,2.721,1.706,2.647,3.363
		c-0.061,1.513-0.278,3.056-2.4,3.056H399.114z M405.396,176.026c-0.111-2.561-2.623-3.479-4.975-3.479h-6.177v0.145h1.951v14.023
		h-1.915v0.14h6.959c2.522,0,5.137-1.202,5.184-3.907c0.022-2.615-3.027-3.774-4.021-3.763
		C403.144,179.087,405.492,178.335,405.396,176.026 M403.456,182.742c0.015,1.885-0.125,3.973-2.75,3.973h-1.592v-7.463h1.252
		C402.478,179.251,403.422,180.95,403.456,182.742"/>
	<path clip-path="url(#SVGID_2_)" fill="#FFFFFF" d="M407.362,182.035c0.016,2.796,2.151,5.206,4.955,5.216
		c2.546,0.017,4.944-2.455,4.916-5.335c-0.024-2.776-2.145-5.173-4.853-5.218C409.922,176.656,407.328,179.185,407.362,182.035
		 M410.032,182c0-2.208,0.145-5.193,2.349-5.175c2.193,0,2.258,3.044,2.22,5.26c-0.043,2.136,0.125,5.023-2.283,5.04
		C410.014,187.158,410.032,184.177,410.032,182"/>
	<path clip-path="url(#SVGID_2_)" fill="#FFFFFF" d="M420.808,182.151c0,2.245,0.146,4.678,2.481,4.623
		c2.111-0.024,2.828-2.659,2.665-3.49h0.163c-0.033,1.822-0.804,3.832-3.581,3.919c-2.535,0.092-4.348-2.242-4.365-4.925
		c-0.021-2.74,2.01-5.222,4.754-5.229c1.554-0.033,3.008,1.111,3.029,2.665c0.007,0.973-0.618,1.68-1.476,1.68
		c-0.801,0-1.464-0.68-1.464-1.479c0-0.804,0.637-1.475,1.435-1.499c0.471-0.006,1.013,0.37,1.127,0.493
		c-0.489-1.028-1.293-1.649-2.446-1.649C420.865,177.245,420.808,179.944,420.808,182.151"/>
	<path clip-path="url(#SVGID_2_)" fill="#FFFFFF" d="M429.511,182.151c0,2.245,0.147,4.678,2.471,4.623
		c2.122-0.024,2.832-2.659,2.671-3.49h0.161c-0.03,1.822-0.795,3.832-3.57,3.919c-2.552,0.092-4.36-2.242-4.381-4.925
		c-0.002-2.74,2.023-5.222,4.76-5.229c1.562-0.033,3.015,1.111,3.03,2.665c0.018,0.973-0.613,1.68-1.469,1.68
		c-0.808,0-1.471-0.68-1.471-1.479c0-0.804,0.629-1.475,1.436-1.499c0.478-0.006,1.021,0.37,1.121,0.493
		c-0.479-1.028-1.283-1.649-2.432-1.649C429.562,177.245,429.511,179.944,429.511,182.151"/>
	<path clip-path="url(#SVGID_2_)" fill="#FFFFFF" d="M435.697,182.035c0.017,2.796,2.159,5.206,4.97,5.216
		c2.547,0.017,4.939-2.455,4.911-5.335c-0.013-2.776-2.154-5.173-4.851-5.218C438.271,176.656,435.674,179.185,435.697,182.035
		 M438.39,182c0-2.208,0.126-5.193,2.338-5.175c2.211,0,2.265,3.044,2.22,5.26c-0.023,2.136,0.116,5.023-2.28,5.04
		C438.368,187.158,438.39,184.177,438.39,182"/>
	<path clip-path="url(#SVGID_2_)" fill="#FFFFFF" d="M456.047,186.715h1.675v0.141h-5.427v-0.141h1.151v-7.817
		c0-0.797-0.261-1.76-1.068-1.751c-1.432,0.007-2.057,2.329-2.057,3.361v6.207h1.248v0.141h-5.315v-0.141h1.561v-9.521h-1.755
		v-0.143h4.262v2.213c0.155-1.133,1.188-2.544,2.678-2.482c1.93,0.078,3.048,1.445,3.048,3.58V186.715z"/>
	<path clip-path="url(#SVGID_2_)" fill="#FFFFFF" d="M461.188,172.079c0.815,0.021,1.465,0.688,1.465,1.499
		c0,0.822-0.649,1.49-1.465,1.506c-0.853,0.024-1.57-0.701-1.551-1.541C459.656,172.723,460.354,172.064,461.188,172.079
		 M462.546,186.715h1.712v0.141h-5.997v-0.141h1.697v-9.532h-1.669v-0.132h4.257V186.715z"/>
	<path clip-path="url(#SVGID_2_)" fill="#FFFFFF" d="M362.539,174.062c-0.704-1.254-2.093-2.058-3.575-2.058
		c-2.187,0-3.733,1.537-3.733,3.703c0,1.164,0.538,2.016,1.508,2.616l2.642,1.407c1.259,0.613,2.949,1.309,2.949,2.975
		c0,1.938-1.69,3.442-3.605,3.442c-1.769,0-2.914-1.084-3.526-2.641l-0.825,0.38c0.68,1.877,2.271,3.135,4.31,3.135
		c2.371,0,4.577-1.836,4.577-4.253c0-1.314-0.562-2.209-1.674-2.912l-2.776-1.455c-1.187-0.56-2.65-1.193-2.65-2.728
		c0-1.544,1.183-2.791,2.767-2.791c1.357,0,2.308,0.675,2.968,1.723L362.539,174.062z"/>
	<path clip-path="url(#SVGID_2_)" fill="#FFFFFF" d="M366.854,185.941v-12.864h1.691c1.818,0,3.341,0.323,4.742,1.586
		c1.368,1.252,2.104,3.01,2.104,4.863c0,1.749-0.689,3.412-1.938,4.661c-1.396,1.38-2.983,1.754-4.908,1.754H366.854z
		 M365.926,186.833h2.645c2.168,0,3.89-0.4,5.506-1.955c1.47-1.408,2.249-3.339,2.249-5.353c0-2.093-0.793-4.048-2.324-5.488
		c-1.609-1.49-3.304-1.84-5.431-1.84h-2.645V186.833z"/>
	<path clip-path="url(#SVGID_2_)" fill="#FFFFFF" d="M385.816,181.137h-5.728l2.876-7.063L385.816,181.137z M386.177,182.011
		l1.953,4.821h0.957l-6.122-15.114l-6.111,15.114h0.93l1.966-4.821H386.177z"/>
	<path clip-path="url(#SVGID_2_)" fill="#FFFFFF" d="M359.197,191.513h0.957c-0.013-0.313-0.1-0.597-0.239-0.835
		c-0.153-0.232-0.344-0.429-0.601-0.574c-0.249-0.162-0.54-0.278-0.873-0.35c-0.332-0.069-0.685-0.105-1.082-0.105
		c-0.344,0-0.685,0.036-1.016,0.105c-0.328,0.071-0.619,0.168-0.89,0.309c-0.255,0.136-0.451,0.316-0.612,0.543
		c-0.152,0.212-0.235,0.469-0.235,0.774c0,0.263,0.069,0.495,0.219,0.677c0.127,0.172,0.308,0.324,0.54,0.429
		c0.23,0.115,0.501,0.209,0.784,0.281c0.295,0.06,0.585,0.128,0.88,0.19c0.308,0.039,0.612,0.093,0.89,0.134
		c0.3,0.055,0.557,0.133,0.783,0.208c0.234,0.066,0.414,0.172,0.548,0.308c0.146,0.119,0.218,0.279,0.218,0.487
		c0,0.216-0.062,0.397-0.176,0.526l-0.442,0.337c-0.19,0.08-0.393,0.134-0.631,0.168c-0.232,0.026-0.447,0.049-0.674,0.049
		c-0.284,0-0.57-0.026-0.835-0.083c-0.266-0.054-0.504-0.144-0.706-0.262c-0.198-0.104-0.366-0.267-0.491-0.432
		c-0.111-0.181-0.178-0.395-0.178-0.654h-0.963c0,0.358,0.079,0.672,0.248,0.943c0.166,0.253,0.396,0.471,0.688,0.642
		c0.284,0.171,0.61,0.292,0.982,0.371c0.384,0.079,0.793,0.119,1.224,0.119c0.344,0,0.701-0.025,1.037-0.093
		c0.358-0.049,0.672-0.159,0.967-0.303c0.262-0.144,0.504-0.32,0.686-0.532c0.168-0.234,0.287-0.504,0.287-0.819
		c0-0.291-0.091-0.537-0.23-0.731c-0.147-0.187-0.309-0.344-0.558-0.474c-0.227-0.122-0.479-0.236-0.767-0.304
		c-0.3-0.083-0.58-0.14-0.9-0.193c-0.293-0.049-0.586-0.102-0.871-0.148c-0.3-0.044-0.557-0.119-0.789-0.18
		c-0.227-0.069-0.406-0.166-0.557-0.271c-0.137-0.127-0.202-0.267-0.202-0.452c0-0.19,0.043-0.358,0.143-0.47l0.382-0.317
		c0.164-0.085,0.352-0.142,0.548-0.172c0.212-0.031,0.419-0.057,0.621-0.057c0.534,0,0.958,0.104,1.286,0.303
		C358.94,190.784,359.145,191.089,359.197,191.513"/>
	<path clip-path="url(#SVGID_2_)" fill="#FFFFFF" d="M365.274,192.788h0.938c-0.045-0.244-0.123-0.467-0.262-0.646
		c-0.122-0.191-0.3-0.35-0.515-0.473c-0.206-0.115-0.452-0.206-0.722-0.255c-0.275-0.066-0.559-0.097-0.877-0.097
		c-0.415,0-0.81,0.062-1.142,0.188c-0.315,0.114-0.591,0.275-0.805,0.483c-0.206,0.213-0.378,0.441-0.479,0.723
		c-0.105,0.285-0.158,0.582-0.158,0.903c0,0.314,0.053,0.607,0.158,0.883c0.104,0.263,0.281,0.493,0.489,0.686
		c0.213,0.193,0.487,0.338,0.795,0.444c0.332,0.101,0.716,0.151,1.118,0.151c0.715,0,1.252-0.136,1.665-0.428
		c0.404-0.283,0.663-0.694,0.763-1.22h-0.921c-0.055,0.338-0.202,0.593-0.465,0.769c-0.253,0.178-0.597,0.274-1.048,0.274
		c-0.285,0-0.527-0.046-0.733-0.136c-0.205-0.082-0.379-0.202-0.493-0.342l-0.287-0.503c-0.056-0.183-0.085-0.381-0.085-0.579
		c0-0.219,0.029-0.43,0.085-0.631c0.06-0.198,0.15-0.384,0.269-0.531c0.133-0.16,0.325-0.275,0.531-0.374
		c0.211-0.09,0.498-0.141,0.817-0.141c0.389,0,0.691,0.077,0.914,0.223C365.052,192.321,365.211,192.518,365.274,192.788"/>
	<path clip-path="url(#SVGID_2_)" fill="#FFFFFF" d="M367.255,189.787v5.905h0.9v-2.411c0-0.194,0.03-0.364,0.095-0.527l0.308-0.432
		l0.489-0.28c0.223-0.069,0.453-0.104,0.74-0.104c0.346,0,0.615,0.079,0.815,0.239c0.192,0.15,0.303,0.358,0.303,0.621v2.895h0.887
		v-2.812c0-0.229-0.026-0.435-0.09-0.616c-0.051-0.206-0.151-0.372-0.315-0.508c-0.14-0.136-0.325-0.247-0.578-0.323
		c-0.238-0.082-0.532-0.114-0.896-0.114l-0.503,0.032l-0.508,0.148l-0.435,0.216l-0.285,0.33h-0.026v-2.259H367.255z"/>
	<path clip-path="url(#SVGID_2_)" fill="#FFFFFF" d="M372.862,193.568c0,0.304,0.057,0.595,0.168,0.871
		c0.115,0.264,0.291,0.502,0.514,0.708c0.234,0.204,0.507,0.351,0.833,0.476c0.337,0.104,0.718,0.157,1.155,0.157
		c0.436,0,0.816-0.054,1.148-0.157c0.326-0.125,0.604-0.271,0.835-0.476c0.219-0.206,0.389-0.444,0.516-0.708
		c0.105-0.276,0.166-0.567,0.166-0.871c0-0.323-0.061-0.609-0.166-0.886c-0.127-0.281-0.297-0.504-0.516-0.71
		c-0.23-0.202-0.509-0.368-0.835-0.474c-0.332-0.118-0.713-0.182-1.148-0.182c-0.438,0-0.818,0.063-1.155,0.182
		c-0.326,0.105-0.599,0.271-0.833,0.474c-0.223,0.206-0.398,0.429-0.514,0.71C372.919,192.958,372.862,193.245,372.862,193.568
		 M373.821,193.568c0-0.263,0.05-0.491,0.133-0.696c0.083-0.199,0.207-0.376,0.354-0.511c0.17-0.14,0.344-0.241,0.552-0.314
		c0.213-0.068,0.431-0.11,0.672-0.11c0.24,0,0.453,0.042,0.651,0.11c0.208,0.073,0.398,0.175,0.562,0.314
		c0.15,0.135,0.275,0.312,0.351,0.511c0.104,0.205,0.151,0.434,0.151,0.696c0,0.249-0.047,0.485-0.151,0.678
		c-0.075,0.206-0.2,0.374-0.351,0.516c-0.163,0.135-0.354,0.23-0.562,0.308c-0.198,0.072-0.411,0.104-0.651,0.104
		c-0.241,0-0.459-0.031-0.672-0.104c-0.208-0.077-0.382-0.173-0.552-0.308c-0.147-0.142-0.271-0.31-0.354-0.516
		C373.871,194.053,373.821,193.817,373.821,193.568"/>
	<path clip-path="url(#SVGID_2_)" fill="#FFFFFF" d="M378.967,193.568c0,0.304,0.052,0.595,0.166,0.871
		c0.115,0.264,0.272,0.502,0.516,0.708c0.226,0.204,0.494,0.351,0.832,0.476c0.334,0.104,0.717,0.157,1.147,0.157
		c0.445,0,0.823-0.054,1.146-0.157c0.343-0.125,0.612-0.271,0.843-0.476c0.223-0.206,0.403-0.444,0.512-0.708
		c0.109-0.276,0.16-0.567,0.16-0.871c0-0.323-0.051-0.609-0.16-0.886c-0.108-0.281-0.289-0.504-0.512-0.71
		c-0.23-0.202-0.5-0.368-0.843-0.474c-0.322-0.118-0.7-0.182-1.146-0.182c-0.431,0-0.813,0.063-1.147,0.182
		c-0.338,0.105-0.606,0.271-0.832,0.474c-0.243,0.206-0.4,0.429-0.516,0.71C379.019,192.958,378.967,193.245,378.967,193.568
		 M379.919,193.568c0-0.263,0.037-0.491,0.128-0.696c0.087-0.199,0.214-0.376,0.374-0.511c0.149-0.14,0.331-0.241,0.538-0.314
		c0.212-0.068,0.436-0.11,0.669-0.11c0.234,0,0.455,0.042,0.667,0.11c0.215,0.073,0.387,0.175,0.543,0.314
		c0.147,0.135,0.278,0.312,0.363,0.511c0.096,0.205,0.14,0.434,0.14,0.696c0,0.249-0.044,0.485-0.14,0.678
		c-0.085,0.206-0.216,0.374-0.363,0.516c-0.156,0.135-0.328,0.23-0.543,0.308c-0.212,0.072-0.433,0.104-0.667,0.104
		c-0.233,0-0.457-0.031-0.669-0.104c-0.207-0.077-0.389-0.173-0.538-0.308c-0.16-0.142-0.287-0.31-0.374-0.516
		C379.956,194.053,379.919,193.817,379.919,193.568"/>
	<rect x="385.404" y="189.788" clip-path="url(#SVGID_2_)" fill="#FFFFFF" width="0.907" height="5.905"/>
	<path clip-path="url(#SVGID_2_)" fill="#FFFFFF" d="M390.368,193.568c0,0.304,0.05,0.595,0.176,0.871
		c0.106,0.264,0.28,0.502,0.508,0.708c0.223,0.204,0.497,0.351,0.837,0.476c0.334,0.104,0.722,0.157,1.154,0.157
		c0.437,0,0.821-0.054,1.149-0.157c0.33-0.125,0.603-0.271,0.83-0.476c0.224-0.206,0.396-0.444,0.507-0.708
		c0.111-0.276,0.17-0.567,0.17-0.871c0-0.323-0.059-0.609-0.17-0.886c-0.111-0.281-0.283-0.504-0.507-0.71
		c-0.228-0.202-0.5-0.368-0.83-0.474c-0.328-0.118-0.713-0.182-1.149-0.182c-0.433,0-0.82,0.063-1.154,0.182
		c-0.34,0.105-0.614,0.271-0.837,0.474c-0.228,0.206-0.401,0.429-0.508,0.71C390.418,192.958,390.368,193.245,390.368,193.568
		 M391.336,193.568c0-0.263,0.039-0.491,0.124-0.696c0.087-0.199,0.22-0.376,0.368-0.511c0.161-0.14,0.336-0.241,0.546-0.314
		c0.21-0.068,0.439-0.11,0.669-0.11c0.23,0,0.453,0.042,0.653,0.11c0.213,0.073,0.398,0.175,0.547,0.314
		c0.173,0.135,0.282,0.312,0.374,0.511c0.08,0.205,0.131,0.434,0.131,0.696c0,0.249-0.051,0.485-0.131,0.678
		c-0.092,0.206-0.201,0.374-0.374,0.516c-0.148,0.135-0.334,0.23-0.547,0.308c-0.2,0.072-0.423,0.104-0.653,0.104
		c-0.229,0-0.459-0.031-0.669-0.104c-0.21-0.077-0.385-0.173-0.546-0.308c-0.148-0.142-0.281-0.31-0.368-0.516
		C391.375,194.053,391.336,193.817,391.336,193.568"/>
	<path clip-path="url(#SVGID_2_)" fill="#FFFFFF" d="M397.134,192.042v3.649h0.911v-3.649h1.061v-0.619h-1.061v-0.605l0.175-0.374
		c0.113-0.065,0.299-0.112,0.517-0.112l0.256,0.027l0.255,0.04v-0.611l-0.303-0.047l-0.278-0.011c-0.499,0-0.873,0.092-1.133,0.27
		c-0.258,0.17-0.399,0.433-0.399,0.779v0.645h-0.919v0.619H397.134z"/>
	<polygon clip-path="url(#SVGID_2_)" fill="#FFFFFF" points="403.045,189.787 403.045,195.692 403.998,195.692 403.998,190.777 
		404.01,190.777 406.383,195.692 407.244,195.692 409.62,190.777 409.641,190.777 409.641,195.692 410.583,195.692 410.583,189.787 
		409.204,189.787 406.805,194.751 404.421,189.787 	"/>
	<path clip-path="url(#SVGID_2_)" fill="#FFFFFF" d="M415.525,193.49v0.721l-0.093,0.317l-0.308,0.312
		c-0.138,0.093-0.293,0.176-0.525,0.237c-0.211,0.07-0.453,0.097-0.76,0.097l-0.403-0.03l-0.338-0.112l-0.236-0.191l-0.085-0.295
		l0.143-0.413l0.405-0.246c0.162-0.051,0.357-0.088,0.559-0.104c0.198-0.038,0.406-0.058,0.604-0.065
		c0.204-0.022,0.406-0.06,0.59-0.085L415.525,193.49z M416.987,195.677v-0.549l-0.278,0.045l-0.241-0.111l-0.049-0.366v-2.211
		c0-0.246-0.058-0.44-0.188-0.597c-0.103-0.155-0.266-0.27-0.47-0.361c-0.186-0.081-0.421-0.144-0.669-0.176
		c-0.229-0.017-0.478-0.033-0.729-0.033c-0.313,0-0.59,0.022-0.877,0.075c-0.27,0.041-0.519,0.128-0.733,0.249
		c-0.199,0.104-0.374,0.253-0.519,0.436c-0.117,0.189-0.183,0.397-0.189,0.675h0.885c0.035-0.321,0.168-0.532,0.409-0.637
		c0.267-0.116,0.583-0.177,0.968-0.177l0.429,0.034l0.389,0.094l0.299,0.2l0.11,0.386l-0.15,0.306l-0.404,0.153
		c-0.17,0.033-0.364,0.062-0.593,0.075c-0.219,0.036-0.464,0.052-0.704,0.096c-0.238,0.032-0.465,0.07-0.699,0.117
		c-0.206,0.056-0.412,0.129-0.587,0.23l-0.41,0.372c-0.117,0.156-0.166,0.35-0.166,0.59c0,0.209,0.041,0.399,0.154,0.555
		l0.372,0.372c0.18,0.103,0.374,0.158,0.584,0.202c0.225,0.049,0.457,0.057,0.714,0.057c0.376,0,0.739-0.049,1.052-0.136
		c0.338-0.11,0.629-0.287,0.884-0.514c0,0.227,0.062,0.403,0.192,0.514c0.146,0.087,0.334,0.136,0.563,0.136
		C416.616,195.778,416.837,195.755,416.987,195.677"/>
	<path clip-path="url(#SVGID_2_)" fill="#FFFFFF" d="M417.831,191.421v4.27h0.896v-2.409c0-0.195,0.033-0.367,0.092-0.529
		l0.323-0.432c0.126-0.121,0.302-0.218,0.497-0.28c0.197-0.069,0.438-0.102,0.715-0.102c0.354,0,0.618,0.079,0.826,0.237
		c0.189,0.151,0.295,0.359,0.295,0.62v2.895h0.897v-2.812c0-0.229-0.021-0.436-0.098-0.616c-0.061-0.204-0.163-0.37-0.307-0.506
		c-0.147-0.138-0.346-0.249-0.583-0.321c-0.234-0.085-0.542-0.118-0.905-0.118c-0.808,0-1.398,0.262-1.782,0.765h-0.03v-0.661
		H417.831z"/>
	<path clip-path="url(#SVGID_2_)" fill="#FFFFFF" d="M427.139,193.49v0.721l-0.093,0.317l-0.307,0.312
		c-0.129,0.093-0.307,0.176-0.515,0.237c-0.215,0.07-0.478,0.097-0.772,0.097l-0.405-0.03l-0.331-0.112l-0.243-0.191l-0.076-0.295
		l0.142-0.413l0.404-0.246c0.163-0.051,0.35-0.088,0.552-0.104c0.2-0.038,0.41-0.058,0.604-0.065
		c0.207-0.022,0.413-0.06,0.589-0.085L427.139,193.49z M428.597,195.677v-0.549l-0.272,0.045l-0.252-0.111l-0.039-0.366v-2.211
		c0-0.246-0.063-0.44-0.183-0.597c-0.108-0.155-0.276-0.27-0.468-0.361c-0.204-0.081-0.436-0.144-0.665-0.176
		c-0.24-0.017-0.493-0.033-0.736-0.033c-0.315,0-0.604,0.022-0.876,0.075c-0.278,0.041-0.525,0.128-0.728,0.249
		c-0.213,0.104-0.402,0.253-0.515,0.436c-0.129,0.189-0.197,0.397-0.209,0.675h0.896c0.019-0.321,0.166-0.532,0.416-0.637
		c0.256-0.116,0.577-0.177,0.967-0.177l0.407,0.034l0.399,0.094l0.295,0.2l0.106,0.386l-0.134,0.306l-0.41,0.153
		c-0.178,0.033-0.372,0.062-0.597,0.075c-0.227,0.036-0.457,0.052-0.696,0.096c-0.248,0.032-0.477,0.07-0.71,0.117
		c-0.198,0.056-0.406,0.129-0.594,0.23l-0.398,0.372c-0.105,0.156-0.166,0.35-0.166,0.59c0,0.209,0.049,0.399,0.139,0.555
		l0.389,0.372c0.172,0.103,0.372,0.158,0.587,0.202c0.225,0.049,0.453,0.057,0.718,0.057c0.368,0,0.723-0.049,1.042-0.136
		c0.335-0.11,0.62-0.287,0.869-0.514c0,0.227,0.073,0.403,0.208,0.514c0.138,0.087,0.332,0.136,0.563,0.136
		C428.239,195.778,428.435,195.755,428.597,195.677"/>
	<path clip-path="url(#SVGID_2_)" fill="#FFFFFF" d="M431.65,195.124c-0.302,0-0.547-0.049-0.741-0.138
		c-0.205-0.094-0.357-0.23-0.484-0.376c-0.12-0.173-0.215-0.346-0.253-0.54c-0.047-0.19-0.073-0.376-0.073-0.568
		c0-0.207,0.034-0.411,0.085-0.597c0.067-0.188,0.154-0.354,0.294-0.496c0.123-0.141,0.295-0.252,0.497-0.339
		c0.212-0.083,0.461-0.133,0.752-0.133c0.273,0,0.521,0.05,0.717,0.133c0.197,0.091,0.365,0.198,0.483,0.359l0.275,0.487
		c0.06,0.174,0.079,0.364,0.079,0.553c0,0.193-0.025,0.4-0.098,0.601c-0.055,0.194-0.147,0.367-0.26,0.54
		c-0.146,0.146-0.308,0.282-0.517,0.376C432.194,195.075,431.939,195.124,431.65,195.124 M434.183,195.33v-3.909h-0.854v0.616
		h-0.013c-0.166-0.248-0.388-0.418-0.676-0.533c-0.299-0.122-0.62-0.185-0.962-0.185c-0.466,0-0.87,0.072-1.193,0.209
		c-0.332,0.141-0.589,0.321-0.791,0.542c-0.194,0.214-0.336,0.451-0.417,0.728c-0.091,0.264-0.137,0.528-0.137,0.789
		c0,0.283,0.046,0.564,0.151,0.827c0.107,0.267,0.253,0.485,0.463,0.686c0.206,0.19,0.455,0.344,0.767,0.462
		c0.303,0.116,0.665,0.168,1.076,0.168c0.356,0,0.693-0.052,1.003-0.184c0.323-0.121,0.546-0.312,0.698-0.582h0.03v0.287
		c0,0.236-0.033,0.449-0.088,0.657c-0.064,0.187-0.155,0.354-0.292,0.488c-0.141,0.161-0.309,0.265-0.517,0.332
		c-0.198,0.085-0.457,0.137-0.754,0.137l-0.466-0.052l-0.45-0.106l-0.352-0.216l-0.152-0.32h-0.9
		c0.017,0.226,0.096,0.423,0.225,0.579c0.138,0.176,0.321,0.291,0.542,0.393c0.209,0.099,0.457,0.168,0.714,0.22
		c0.271,0.035,0.529,0.057,0.787,0.057c0.873,0,1.521-0.172,1.938-0.512C433.979,196.557,434.183,196.027,434.183,195.33"/>
	<path clip-path="url(#SVGID_2_)" fill="#FFFFFF" d="M440.22,194.34h-0.884c-0.083,0.279-0.241,0.476-0.493,0.622
		c-0.243,0.141-0.553,0.213-0.925,0.213c-0.301,0-0.561-0.047-0.791-0.114c-0.212-0.075-0.4-0.182-0.536-0.309l-0.312-0.45
		l-0.08-0.524h4.12c0.008-0.267-0.02-0.537-0.103-0.822c-0.075-0.284-0.204-0.559-0.398-0.799c-0.197-0.251-0.459-0.447-0.791-0.604
		c-0.306-0.147-0.724-0.234-1.209-0.234c-0.365,0-0.714,0.06-1.033,0.168c-0.314,0.105-0.586,0.261-0.813,0.451
		c-0.237,0.206-0.411,0.451-0.534,0.714c-0.129,0.272-0.193,0.57-0.193,0.893c0.018,0.327,0.072,0.634,0.177,0.899
		c0.105,0.281,0.278,0.514,0.496,0.706c0.221,0.2,0.497,0.357,0.811,0.473c0.33,0.104,0.714,0.156,1.144,0.156
		c0.635,0,1.146-0.11,1.549-0.357C439.844,195.184,440.092,194.816,440.22,194.34 M439.35,193.147h-3.151l0.154-0.463l0.298-0.393
		l0.477-0.249c0.195-0.07,0.41-0.104,0.642-0.104c0.238,0,0.432,0.034,0.61,0.104c0.197,0.055,0.356,0.145,0.492,0.249l0.342,0.387
		L439.35,193.147z"/>
	<path clip-path="url(#SVGID_2_)" fill="#FFFFFF" d="M441.24,191.421v4.27h0.916v-2.653l0.065-0.306l0.257-0.371l0.459-0.294
		c0.196-0.085,0.42-0.128,0.68-0.128c0.191,0,0.357,0.032,0.493,0.077l0.323,0.192l0.162,0.308l0.049,0.369v2.806h0.897v-2.653
		c0-0.332,0.138-0.607,0.386-0.808c0.258-0.189,0.609-0.291,1.046-0.291c0.227,0,0.403,0.032,0.54,0.077l0.332,0.204l0.163,0.3
		l0.045,0.365v2.806h0.9v-3.133c0-0.219-0.043-0.4-0.15-0.557l-0.372-0.399c-0.153-0.094-0.344-0.166-0.578-0.209
		c-0.204-0.053-0.449-0.075-0.736-0.075c-0.35,0-0.695,0.06-0.997,0.19c-0.307,0.121-0.538,0.298-0.726,0.538
		c-0.119-0.27-0.305-0.453-0.58-0.56c-0.277-0.109-0.593-0.169-0.913-0.169c-0.782,0-1.373,0.245-1.789,0.729h-0.026v-0.625H441.24z
		"/>
	<path clip-path="url(#SVGID_2_)" fill="#FFFFFF" d="M455.001,194.34h-0.902c-0.072,0.279-0.232,0.476-0.487,0.622
		c-0.244,0.141-0.542,0.213-0.932,0.213c-0.3,0-0.561-0.047-0.787-0.114c-0.211-0.075-0.381-0.182-0.534-0.309l-0.31-0.45
		l-0.085-0.524h4.116c0.019-0.267-0.009-0.537-0.1-0.822c-0.066-0.284-0.206-0.559-0.398-0.799
		c-0.195-0.251-0.459-0.447-0.775-0.604c-0.333-0.147-0.727-0.234-1.223-0.234c-0.37,0-0.72,0.06-1.035,0.168
		c-0.31,0.105-0.585,0.261-0.813,0.451c-0.234,0.206-0.402,0.451-0.531,0.714c-0.124,0.272-0.193,0.57-0.193,0.893
		c0.018,0.327,0.071,0.634,0.185,0.899c0.11,0.281,0.27,0.514,0.494,0.706c0.229,0.2,0.49,0.357,0.822,0.473
		c0.314,0.104,0.694,0.156,1.14,0.156c0.616,0,1.13-0.11,1.551-0.357C454.606,195.184,454.872,194.816,455.001,194.34
		 M454.119,193.147h-3.155l0.146-0.463l0.306-0.393l0.478-0.249c0.206-0.07,0.404-0.104,0.646-0.104c0.228,0,0.432,0.034,0.61,0.104
		c0.208,0.055,0.365,0.145,0.497,0.249l0.332,0.387L454.119,193.147z"/>
	<path clip-path="url(#SVGID_2_)" fill="#FFFFFF" d="M456.014,191.421v4.27h0.9v-2.409c0-0.195,0.04-0.367,0.1-0.529l0.305-0.432
		c0.136-0.121,0.299-0.218,0.493-0.28c0.217-0.069,0.458-0.102,0.734-0.102c0.34,0,0.614,0.079,0.815,0.237
		c0.194,0.151,0.298,0.359,0.298,0.62v2.895h0.905v-2.812c0-0.229-0.038-0.436-0.095-0.616c-0.059-0.204-0.162-0.37-0.317-0.506
		c-0.142-0.138-0.34-0.249-0.595-0.321c-0.231-0.085-0.532-0.118-0.888-0.118c-0.823,0-1.418,0.262-1.788,0.765h-0.024v-0.661
		H456.014z"/>
	<path clip-path="url(#SVGID_2_)" fill="#FFFFFF" d="M463.176,191.421v-1.292h-0.9v1.292h-0.94v0.619h0.94v2.722
		c0,0.196,0.017,0.362,0.071,0.475l0.229,0.284l0.402,0.149c0.17,0.011,0.374,0.021,0.604,0.021h0.686v-0.622h-0.412h-0.353
		l-0.2-0.065l-0.113-0.107l-0.014-0.199v-2.656h1.092v-0.619H463.176z"/>
	<rect x="373.836" y="165.475" clip-path="url(#SVGID_2_)" fill="#FFFFFF" width="0.605" height="3.402"/>
	<polygon clip-path="url(#SVGID_2_)" fill="#FFFFFF" points="375.668,165.475 376.471,165.475 378.119,168.003 378.13,168.003 
		378.13,165.475 378.734,165.475 378.734,168.876 377.966,168.876 376.283,166.268 376.273,166.268 376.273,168.876 
		375.668,168.876 	"/>
	<path clip-path="url(#SVGID_2_)" fill="#FFFFFF" d="M384.216,166.273c-0.127-0.134-0.245-0.226-0.364-0.269
		c-0.116-0.045-0.236-0.067-0.354-0.067c-0.176,0-0.334,0.032-0.477,0.095c-0.145,0.062-0.268,0.147-0.368,0.259
		c-0.103,0.111-0.183,0.239-0.237,0.386c-0.058,0.148-0.085,0.307-0.085,0.477c0,0.183,0.027,0.349,0.085,0.505
		c0.055,0.154,0.135,0.287,0.237,0.4c0.101,0.11,0.224,0.197,0.368,0.264c0.143,0.062,0.301,0.097,0.477,0.097
		c0.138,0,0.273-0.035,0.403-0.099c0.128-0.066,0.251-0.172,0.361-0.317l0.501,0.357c-0.154,0.212-0.342,0.364-0.562,0.461
		s-0.455,0.145-0.707,0.145c-0.261,0-0.506-0.044-0.725-0.127c-0.218-0.087-0.407-0.206-0.566-0.361s-0.281-0.343-0.372-0.559
		c-0.089-0.22-0.136-0.461-0.136-0.728c0-0.272,0.047-0.521,0.136-0.742c0.091-0.223,0.213-0.411,0.372-0.571
		c0.159-0.155,0.349-0.276,0.566-0.361c0.219-0.085,0.464-0.127,0.725-0.127c0.23,0,0.445,0.04,0.641,0.12
		c0.196,0.083,0.382,0.222,0.552,0.417L384.216,166.273z"/>
	<path clip-path="url(#SVGID_2_)" fill="#FFFFFF" d="M385.471,167.191c0-0.271,0.043-0.519,0.134-0.742
		c0.089-0.223,0.212-0.413,0.372-0.57c0.159-0.157,0.348-0.277,0.566-0.362c0.222-0.086,0.461-0.129,0.724-0.129
		c0.269-0.002,0.51,0.036,0.731,0.119c0.223,0.082,0.413,0.2,0.573,0.357c0.159,0.158,0.283,0.346,0.374,0.568
		c0.089,0.221,0.135,0.469,0.135,0.74c0,0.267-0.046,0.507-0.135,0.725c-0.091,0.22-0.215,0.405-0.374,0.563
		c-0.16,0.158-0.351,0.279-0.573,0.368c-0.222,0.087-0.463,0.134-0.731,0.136c-0.263,0-0.502-0.042-0.724-0.126
		c-0.219-0.086-0.407-0.206-0.566-0.361c-0.16-0.154-0.283-0.343-0.372-0.561C385.514,167.699,385.471,167.458,385.471,167.191
		 M386.105,167.154c0,0.181,0.026,0.351,0.083,0.504c0.055,0.155,0.136,0.287,0.237,0.397c0.104,0.114,0.226,0.202,0.369,0.266
		c0.142,0.064,0.302,0.096,0.478,0.096s0.336-0.031,0.481-0.096c0.144-0.063,0.267-0.151,0.371-0.266
		c0.101-0.11,0.181-0.242,0.237-0.397c0.056-0.153,0.083-0.323,0.083-0.504c0-0.17-0.027-0.329-0.083-0.478
		c-0.057-0.146-0.137-0.276-0.237-0.388c-0.104-0.11-0.228-0.197-0.371-0.259c-0.146-0.063-0.306-0.093-0.481-0.093
		s-0.336,0.029-0.478,0.093c-0.144,0.062-0.265,0.148-0.369,0.259c-0.102,0.111-0.183,0.241-0.237,0.388
		C386.132,166.825,386.105,166.984,386.105,167.154"/>
	<polygon clip-path="url(#SVGID_2_)" fill="#FFFFFF" points="390.138,165.475 390.742,165.475 390.742,168.331 392.19,168.331 
		392.19,168.876 390.138,168.876 	"/>
	<polygon clip-path="url(#SVGID_2_)" fill="#FFFFFF" points="393.113,165.475 393.719,165.475 393.719,168.331 395.166,168.331 
		395.166,168.876 393.113,168.876 	"/>
	<path clip-path="url(#SVGID_2_)" fill="#FFFFFF" d="M397.19,165.475h0.523l1.467,3.402h-0.693l-0.316-0.776h-1.478l-0.306,0.776
		h-0.678L397.19,165.475z M397.959,167.581l-0.522-1.385l-0.535,1.385H397.959z"/>
	<path clip-path="url(#SVGID_2_)" fill="#FFFFFF" d="M400.042,165.476h1.325c0.129,0,0.256,0.015,0.38,0.045
		c0.125,0.029,0.237,0.079,0.336,0.149c0.096,0.067,0.175,0.156,0.237,0.266c0.059,0.109,0.09,0.239,0.09,0.396
		c0,0.192-0.056,0.351-0.162,0.476c-0.11,0.125-0.251,0.214-0.43,0.269v0.011c0.105,0.012,0.204,0.042,0.296,0.088
		s0.171,0.104,0.232,0.179c0.067,0.07,0.115,0.153,0.153,0.249c0.037,0.097,0.055,0.195,0.055,0.306c0,0.185-0.038,0.34-0.111,0.463
		c-0.071,0.125-0.17,0.222-0.291,0.299c-0.119,0.075-0.257,0.127-0.413,0.162c-0.155,0.032-0.312,0.047-0.473,0.047h-1.225V165.476z
		 M400.646,166.86h0.554c0.202,0,0.353-0.04,0.455-0.119c0.1-0.077,0.148-0.181,0.148-0.31c0-0.147-0.051-0.258-0.154-0.328
		c-0.104-0.072-0.271-0.109-0.503-0.109h-0.5V166.86z M400.646,168.359h0.56c0.075,0,0.158-0.003,0.246-0.015
		c0.089-0.008,0.17-0.032,0.244-0.066c0.074-0.035,0.134-0.087,0.182-0.152c0.047-0.064,0.071-0.153,0.071-0.267
		c0-0.178-0.059-0.304-0.174-0.374c-0.118-0.071-0.3-0.105-0.547-0.105h-0.582V168.359z"/>
	<path clip-path="url(#SVGID_2_)" fill="#FFFFFF" d="M403.454,167.191c0-0.271,0.044-0.519,0.134-0.742
		c0.089-0.223,0.214-0.413,0.372-0.57c0.159-0.157,0.348-0.277,0.566-0.362c0.222-0.086,0.461-0.129,0.726-0.129
		c0.267-0.002,0.508,0.036,0.729,0.119c0.223,0.082,0.413,0.2,0.573,0.357c0.159,0.158,0.283,0.346,0.374,0.568
		c0.091,0.221,0.134,0.469,0.134,0.74c0,0.267-0.043,0.507-0.134,0.725c-0.091,0.22-0.215,0.405-0.374,0.563
		c-0.16,0.158-0.351,0.279-0.573,0.368c-0.222,0.087-0.463,0.134-0.729,0.136c-0.265,0-0.504-0.042-0.726-0.126
		c-0.219-0.086-0.407-0.206-0.566-0.361c-0.158-0.154-0.283-0.343-0.372-0.561C403.498,167.699,403.454,167.458,403.454,167.191
		 M404.089,167.154c0,0.181,0.026,0.351,0.083,0.504c0.057,0.155,0.136,0.287,0.238,0.397c0.104,0.114,0.227,0.202,0.368,0.266
		c0.144,0.064,0.302,0.096,0.478,0.096s0.338-0.031,0.481-0.096c0.144-0.063,0.267-0.151,0.371-0.266
		c0.101-0.11,0.181-0.242,0.237-0.397c0.056-0.153,0.083-0.323,0.083-0.504c0-0.17-0.027-0.329-0.083-0.478
		c-0.057-0.146-0.137-0.276-0.237-0.388c-0.104-0.11-0.228-0.197-0.371-0.259c-0.144-0.063-0.306-0.093-0.481-0.093
		s-0.334,0.029-0.478,0.093c-0.142,0.062-0.265,0.148-0.368,0.259c-0.103,0.111-0.182,0.241-0.238,0.388
		C404.115,166.825,404.089,166.984,404.089,167.154"/>
	<path clip-path="url(#SVGID_2_)" fill="#FFFFFF" d="M408.121,165.474h1.184c0.163,0,0.321,0.018,0.473,0.047
		c0.152,0.03,0.286,0.082,0.405,0.155c0.12,0.073,0.214,0.174,0.286,0.299c0.069,0.124,0.105,0.283,0.105,0.476
		c0,0.247-0.067,0.455-0.204,0.621c-0.138,0.166-0.331,0.269-0.586,0.302l0.905,1.506h-0.733l-0.787-1.443h-0.442v1.443h-0.605
		V165.474z M409.199,166.917c0.087,0,0.172-0.004,0.259-0.012c0.087-0.009,0.166-0.028,0.237-0.057
		c0.072-0.033,0.131-0.078,0.176-0.14c0.046-0.064,0.066-0.151,0.066-0.263c0-0.1-0.019-0.18-0.061-0.24
		c-0.043-0.062-0.098-0.107-0.164-0.139c-0.066-0.029-0.142-0.05-0.223-0.06c-0.084-0.009-0.161-0.015-0.238-0.015h-0.525v0.924
		H409.199z"/>
	<path clip-path="url(#SVGID_2_)" fill="#FFFFFF" d="M412.73,165.475h0.523l1.467,3.402h-0.69l-0.317-0.776h-1.477l-0.307,0.776
		h-0.68L412.73,165.475z M413.501,167.581l-0.523-1.385l-0.534,1.385H413.501z"/>
	<polygon clip-path="url(#SVGID_2_)" fill="#FFFFFF" points="415.837,166.023 414.795,166.023 414.795,165.475 417.485,165.475 
		417.485,166.023 416.443,166.023 416.443,168.877 415.837,168.877 	"/>
	<rect x="418.366" y="165.475" clip-path="url(#SVGID_2_)" fill="#FFFFFF" width="0.604" height="3.402"/>
	<path clip-path="url(#SVGID_2_)" fill="#FFFFFF" d="M420.016,167.191c0-0.271,0.044-0.519,0.134-0.742
		c0.089-0.223,0.214-0.413,0.372-0.57c0.159-0.157,0.35-0.277,0.567-0.362c0.221-0.086,0.46-0.129,0.723-0.129
		c0.269-0.002,0.512,0.036,0.734,0.119c0.22,0.082,0.41,0.2,0.57,0.357c0.159,0.158,0.285,0.346,0.374,0.568
		c0.089,0.221,0.135,0.469,0.135,0.74c0,0.267-0.046,0.507-0.135,0.725c-0.089,0.22-0.215,0.405-0.374,0.563
		c-0.16,0.158-0.351,0.279-0.57,0.368c-0.223,0.087-0.466,0.134-0.734,0.136c-0.263,0-0.502-0.042-0.723-0.126
		c-0.218-0.086-0.408-0.206-0.567-0.361c-0.158-0.154-0.283-0.343-0.372-0.561C420.06,167.699,420.016,167.458,420.016,167.191
		 M420.65,167.154c0,0.181,0.026,0.351,0.083,0.504c0.055,0.155,0.136,0.287,0.238,0.397c0.104,0.114,0.225,0.202,0.368,0.266
		c0.142,0.064,0.302,0.096,0.478,0.096s0.336-0.031,0.481-0.096c0.144-0.063,0.267-0.151,0.371-0.266
		c0.102-0.11,0.181-0.242,0.237-0.397c0.057-0.153,0.083-0.323,0.083-0.504c0-0.17-0.026-0.329-0.083-0.478
		c-0.057-0.146-0.136-0.276-0.237-0.388c-0.104-0.11-0.228-0.197-0.371-0.259c-0.146-0.063-0.306-0.093-0.481-0.093
		s-0.336,0.029-0.478,0.093c-0.144,0.062-0.265,0.148-0.368,0.259c-0.103,0.111-0.184,0.241-0.238,0.388
		C420.677,166.825,420.65,166.984,420.65,167.154"/>
	<polygon clip-path="url(#SVGID_2_)" fill="#FFFFFF" points="424.683,165.475 425.485,165.475 427.134,168.003 427.144,168.003 
		427.144,165.475 427.75,165.475 427.75,168.876 426.979,168.876 425.299,166.268 425.289,166.268 425.289,168.876 424.683,168.876 
			"/>
	<polygon clip-path="url(#SVGID_2_)" fill="#FFFFFF" points="430.515,165.475 431.177,165.475 431.817,167.926 431.827,167.926 
		432.592,165.475 433.187,165.475 433.937,167.926 433.945,167.926 434.615,165.475 435.229,165.475 434.241,168.876 
		433.662,168.876 432.875,166.287 432.864,166.287 432.078,168.876 431.519,168.876 	"/>
	<rect x="436.075" y="165.475" clip-path="url(#SVGID_2_)" fill="#FFFFFF" width="0.605" height="3.402"/>
	<polygon clip-path="url(#SVGID_2_)" fill="#FFFFFF" points="438.604,166.023 437.562,166.023 437.562,165.475 440.253,165.475 
		440.253,166.023 439.21,166.023 439.21,168.877 438.604,168.877 	"/>
	<polygon clip-path="url(#SVGID_2_)" fill="#FFFFFF" points="441.146,165.475 441.753,165.475 441.753,166.83 443.343,166.83 
		443.343,165.475 443.951,165.475 443.951,168.876 443.343,168.876 443.343,167.38 441.753,167.38 441.753,168.876 441.146,168.876 
			"/>
</g>
</svg>
