<?xml version="1.0" encoding="utf-8"?>
<!-- Generator: Adobe Illustrator 16.0.0, SVG Export Plug-In . SVG Version: 6.00 Build 0)  -->
<!DOCTYPE svg PUBLIC "-//W3C//DTD SVG 1.1//EN" "http://www.w3.org/Graphics/SVG/1.1/DTD/svg11.dtd">
<svg version="1.1" id="Layer_1" xmlns="http://www.w3.org/2000/svg" xmlns:xlink="http://www.w3.org/1999/xlink" x="0px" y="0px"
	 width="688.158px" height="292.331px" viewBox="0 0 688.158 292.331" enable-background="new 0 0 688.158 292.331"
	 xml:space="preserve">
<g>
	<defs>
		<rect id="SVGID_1_" width="688.158" height="292.331"/>
	</defs>
	<clipPath id="SVGID_2_">
		<use xlink:href="#SVGID_1_"  overflow="visible"/>
	</clipPath>
	<path clip-path="url(#SVGID_2_)" fill="#010101" d="M124.228,140.506h-0.07l-7.972,18.977h-1.02l-7.702-18.249h-0.064l-0.78,13.23
		c-0.201,3.091,1.394,3.091,4.003,3.733v0.942H100.44v-0.942c2.511-0.753,3.188-0.845,3.627-3.566l2.008-14.516
		c0.275-2.516-1.598-2.559-3.592-3.1v-0.958h8.919v0.697c-0.888,1.177,0.548,3.726,1.022,4.838l4.779,10.998l5.493-12.654
		c0.402-0.912,1.159-2.317,0.279-3.182v-0.697h9.602v0.958c-3.398,0.717-3.936,1.258-3.769,4.513l0.576,10.971
		c0.239,3.857,0.272,5.006,4.449,5.699v0.942h-13.104v-0.942c4.652-0.547,4.38-1.664,4.139-5.966L124.228,140.506z"/>
	<path clip-path="url(#SVGID_2_)" fill="#010101" d="M146.819,150.652l-2.452-6.25l-2.316,6.25H146.819z M141.54,152.265
		l-0.476,1.38c-1.623,4.66-0.523,4.737,2.415,5.082v0.757h-8.369v-0.757c1.452-0.455,2.076-0.497,2.689-1.927l5.941-13.899
		l-0.261-0.811c1.048-0.372,1.912-1.153,2.559-2.076h0.511l5.038,13.12c1.747,4.417,1.551,4.746,4.328,5.593v0.757h-9.155v-0.757
		c2.61-0.455,2.771-0.964,1.298-4.757l-0.647-1.705H141.54z"/>
	<path clip-path="url(#SVGID_2_)" fill="#010101" d="M170.124,146.156h-0.803c-0.513-2.218-1.16-4.67-3.936-4.67
		c-1.635,0-2.743,1.212-2.743,2.797c0,4.367,8.858,4.077,8.858,9.7c0,3.886-3.709,5.5-7.168,5.5c-1.904,0-3.79-0.518-5.455-1.372
		l-0.885-5.338l0.835-0.161c0.88,2.637,2.847,5.635,6.02,5.635c1.779,0,3.099-1.154,3.099-2.908c0-4.563-8.857-4.181-8.857-9.503
		c0-3.581,3.419-5.583,6.695-5.583c1.629,0,3.216,0.394,4.588,1.21L170.124,146.156z"/>
	<path clip-path="url(#SVGID_2_)" fill="#010101" d="M174.129,146.376l0.622-6.056h0.565c0.271,0.474,0.646,0.721,1.051,0.789
		c0.432,0.1,0.885,0.067,1.374,0.067h11.384c0.969,0,1.885,0.141,2.417-0.856h0.58l0.611,6.056l-0.749,0.131
		c-1.073-3.833-3.074-4.218-6.796-4.218v11.224c0,4.867,0.359,4.676,4.042,5.216v0.756h-11.62v-0.756
		c3.685-0.54,4.04-0.349,4.04-5.216v-11.224c-3.728,0-5.66,0.384-6.76,4.218L174.129,146.376z"/>
	<path clip-path="url(#SVGID_2_)" fill="#010101" d="M202.132,150.783v3.561c0,2.75,0.022,4,3.609,4
		c3.495,0,5.004-1.956,5.763-5.047h0.801c0.062,2.082-0.32,4.17-0.97,6.187H195.02v-0.754c3.206-0.546,3.55-0.347,3.55-5.217v-6.367
		c0-4.866-0.344-4.686-3.55-5.223v-0.75h15.94l-0.502,4.713h-0.838c-0.2-3.528-2.588-3.586-5.527-3.586h-1.961v6.881h2.277
		c2.324,0,3.537-0.194,4.212-2.65h0.698c-0.137,2.292-0.238,4.557-0.116,6.848h-0.743c-0.543-2.645-1.803-2.595-4.145-2.595H202.132
		z"/>
	<path clip-path="url(#SVGID_2_)" fill="#010101" d="M222.343,149.545c2.505-0.193,5.011-1.277,5.011-4.175
		c0-2.78-2.584-3.535-5.011-3.535V149.545z M218.793,146.013c0-3.63-0.191-4.134-3.554-4.417v-0.744h8.374
		c3.314,0,7.777,0,7.777,4.28c0,2.113-1.622,3.677-3.504,4.414c1.99,3.932,4.771,8.133,9.218,9.185l-0.124,0.755
		c-2.391-0.141-5.16,0.104-7.265-1.354c-1.369-0.959-2.923-3.495-3.731-5.002c-1.278-2.433-1.086-2.263-3.641-2.646v2.699
		c0,3.658-0.159,4.9,4.17,5.218v0.754h-11.274v-0.754c3.197-0.54,3.554-0.348,3.554-5.218V146.013z"/>
	<path clip-path="url(#SVGID_2_)" fill="#010101" d="M256.196,149.467c0,3.792,1.777,8.781,6.328,8.781
		c4.247,0,5.726-4.344,5.726-7.879c0-3.819-1.826-8.884-6.431-8.884C257.681,141.485,256.196,146.095,256.196,149.467
		 M272.615,149.728c0,6.003-4.521,9.759-10.449,9.759c-5.836,0-10.331-3.615-10.331-9.568c0-5.836,4.523-9.665,10.313-9.665
		C267.797,140.253,272.615,143.535,272.615,149.728"/>
	<path clip-path="url(#SVGID_2_)" fill="#010101" d="M282.778,151.113v2.398c0,3.655-0.155,4.904,4.253,5.216v0.757h-11.358v-0.757
		c3.198-0.54,3.542-0.357,3.542-5.216v-6.365c0-4.867-0.344-4.688-3.542-5.227v-0.743h15.936l-0.646,4.876h-0.857
		c-0.142-3.538-2.271-3.764-5.279-3.764h-2.049v7.211h2.314c2.319,0,3.554-0.157,4.194-2.61h0.742
		c-0.144,2.335-0.191,4.702-0.167,7.043h-0.706c-0.479-2.819-1.628-2.819-4.168-2.819H282.778z"/>
	<path clip-path="url(#SVGID_2_)" fill="#010101" d="M353.322,150.652l-2.446-6.25l-2.327,6.25H353.322z M348.047,152.265
		l-0.493,1.38c-1.612,4.66-0.502,4.737,2.423,5.082v0.757h-8.368v-0.757c1.453-0.455,2.072-0.497,2.689-1.927l5.948-13.899
		l-0.27-0.811c1.054-0.372,1.928-1.153,2.552-2.076h0.526l5.03,13.12c1.747,4.417,1.559,4.746,4.327,5.593v0.757h-9.156v-0.757
		c2.622-0.455,2.78-0.964,1.294-4.757l-0.635-1.705H348.047z"/>
	<path clip-path="url(#SVGID_2_)" fill="#010101" d="M367.042,146.48c0-2.782-0.083-4.722-3.493-5.316v-0.738h6.192
		c3.388,4.418,8.073,8.871,11.948,13.407l0.061-0.063l-0.16-8.559c-0.069-3.192-0.858-3.612-4.049-4.047v-0.738h8.194v0.738
		c-2.373,0.232-2.515,1.354-2.515,5.75v11.987l-1.206,0.581c-2.645-3.226-9.052-9.695-13.489-14.485
		c-0.074,3.003,0.06,5.833,0.169,8.772c0.099,3.318,0.699,3.524,3.869,4.2v0.759h-8.835v-0.759c1.979-0.386,3.313-0.264,3.313-3.909
		V146.48z"/>
	<path clip-path="url(#SVGID_2_)" fill="#010101" d="M399.126,150.652l-2.443-6.25l-2.311,6.25H399.126z M393.855,152.265
		l-0.485,1.38c-1.611,4.66-0.511,4.737,2.429,5.082v0.757h-8.376v-0.757c1.457-0.455,2.075-0.497,2.693-1.927l5.947-13.899
		l-0.265-0.811c1.04-0.372,1.91-1.153,2.56-2.076h0.501l5.039,13.12c1.749,4.417,1.562,4.746,4.341,5.593v0.757h-9.157v-0.757
		c2.608-0.455,2.771-0.964,1.291-4.757l-0.649-1.705H393.855z"/>
	<path clip-path="url(#SVGID_2_)" fill="#010101" d="M428.51,156.92h1.438v0.623c-2.85,1.193-5.936,1.944-9.051,1.944
		c-5.576,0-10.627-3.512-10.627-9.326c0-6.498,5.684-9.908,11.523-9.908c2.402,0,4.632,0.57,6.863,1.435v5.14h-0.797
		c-0.812-3.214-2.994-5.336-6.517-5.336c-4.312,0-6.699,3.748-6.699,7.703c0,4.948,3.227,9.052,8.308,9.052
		c1.914,0,1.839-0.46,1.998-1.6v-1.397c0-3.502-0.2-3.745-3.904-4.257v-0.754h9.498v0.754c-1.823,0.471-2.034,0.784-2.034,2.675
		V156.92z"/>
	<path clip-path="url(#SVGID_2_)" fill="#010101" d="M440.698,150.783v3.561c0,2.75,0.02,4,3.602,4c3.495,0,5.002-1.956,5.761-5.047
		h0.809c0.05,2.082-0.328,4.17-0.968,6.187h-16.311v-0.754c3.211-0.546,3.537-0.347,3.537-5.217v-6.367
		c0-4.866-0.326-4.686-3.537-5.223v-0.75h15.931l-0.507,4.713h-0.832c-0.197-3.528-2.588-3.586-5.522-3.586h-1.962v6.881h2.274
		c2.323,0,3.534-0.194,4.208-2.65h0.702c-0.144,2.292-0.249,4.557-0.107,6.848h-0.763c-0.531-2.645-1.791-2.595-4.136-2.595H440.698
		z"/>
	<path clip-path="url(#SVGID_2_)" fill="#010101" d="M472.384,144.424h-0.062l-6.317,15.062h-0.806l-6.122-14.5h-0.049
		l-0.623,10.513c-0.159,2.457,1.112,2.457,3.175,2.963v0.752h-8.074v-0.752c1.996-0.598,2.523-0.678,2.877-2.826l1.587-11.546
		c0.228-1.969-1.264-2.005-2.85-2.44v-0.742h7.075v0.537c-0.699,0.937,0.446,2.958,0.813,3.846l3.805,8.711l4.363-10.04
		c0.314-0.71,0.902-1.83,0.209-2.517v-0.537H479v0.742c-2.692,0.571-3.13,0.998-2.985,3.583l0.454,8.701
		c0.183,3.08,0.221,3.986,3.521,4.528v0.752h-10.381v-0.752c3.688-0.43,3.461-1.321,3.285-4.737L472.384,144.424z"/>
	<path clip-path="url(#SVGID_2_)" fill="#010101" d="M489.21,150.783v3.561c0,2.75,0.021,4,3.607,4c3.487,0,4.99-1.956,5.763-5.047
		h0.792c0.062,2.082-0.312,4.17-0.962,6.187h-16.317v-0.754c3.215-0.546,3.562-0.347,3.562-5.217v-6.367
		c0-4.866-0.348-4.686-3.562-5.223v-0.75h15.942l-0.509,4.713h-0.836c-0.194-3.528-2.585-3.586-5.532-3.586h-1.948v6.881h2.292
		c2.302,0,3.515-0.194,4.199-2.65h0.689c-0.132,2.292-0.237,4.557-0.108,6.848h-0.755c-0.527-2.645-1.81-2.595-4.143-2.595H489.21z"
		/>
	<path clip-path="url(#SVGID_2_)" fill="#010101" d="M505.573,146.48c0-2.782-0.101-4.722-3.506-5.316v-0.738h6.192
		c3.396,4.418,8.084,8.871,11.961,13.407l0.059-0.063l-0.166-8.559c-0.062-3.192-0.87-3.612-4.053-4.047v-0.738h8.193v0.738
		c-2.374,0.232-2.507,1.354-2.507,5.75v11.987l-1.213,0.581c-2.632-3.226-9.035-9.695-13.495-14.485
		c-0.068,3.003,0.062,5.833,0.164,8.772c0.117,3.318,0.711,3.524,3.896,4.2v0.759h-8.839v-0.759
		c1.968-0.386,3.313-0.264,3.313-3.909V146.48z"/>
	<path clip-path="url(#SVGID_2_)" fill="#010101" d="M526.697,146.376l0.622-6.056h0.566c0.268,0.474,0.644,0.721,1.041,0.789
		c0.444,0.1,0.886,0.067,1.372,0.067H541.7c0.968,0,1.872,0.141,2.419-0.856h0.557l0.629,6.056l-0.756,0.131
		c-1.087-3.833-3.062-4.218-6.785-4.218v11.224c0,4.867,0.345,4.676,4.035,5.216v0.756h-11.636v-0.756
		c3.687-0.54,4.039-0.349,4.039-5.216v-11.224c-3.711,0-5.634,0.384-6.746,4.218L526.697,146.376z"/>
	<path clip-path="url(#SVGID_2_)" fill="#010101" d="M568.241,153.512c0,4.869,0.339,4.677,3.565,5.217v0.756h-10.671v-0.756
		c3.206-0.54,3.56-0.348,3.56-5.217v-6.366c0-4.871-0.354-4.689-3.56-5.223v-0.746h10.671v0.746
		c-3.227,0.533-3.565,0.352-3.565,5.223V153.512z"/>
	<path clip-path="url(#SVGID_2_)" fill="#010101" d="M577.517,146.48c0-2.782-0.083-4.722-3.504-5.316v-0.738h6.2
		c3.381,4.418,8.065,8.871,11.946,13.407l0.054-0.063l-0.173-8.559c-0.045-3.192-0.859-3.612-4.033-4.047v-0.738h8.178v0.738
		c-2.354,0.232-2.494,1.354-2.494,5.75v11.987l-1.205,0.581c-2.644-3.226-9.06-9.695-13.491-14.485
		c-0.08,3.003,0.046,5.833,0.164,8.772c0.1,3.318,0.69,3.524,3.876,4.2v0.759h-8.836v-0.759c1.966-0.386,3.318-0.264,3.318-3.909
		V146.48z"/>
	<path clip-path="url(#SVGID_2_)" fill="#010101" d="M40.742,185.011c0,6.146,0.439,5.908,4.48,6.597v0.935H31.789v-0.935
		c4.041-0.688,4.48-0.45,4.48-6.597v-8.004c0-6.154-0.439-5.912-4.48-6.588v-0.952h13.434v0.952c-4.041,0.676-4.48,0.434-4.48,6.588
		V185.011z"/>
	<path clip-path="url(#SVGID_2_)" fill="#010101" d="M51.446,180.298c0-2.768-0.078-4.721-3.508-5.316v-0.739h6.204
		c3.387,4.413,8.068,8.871,11.949,13.416l0.054-0.061l-0.168-8.57c-0.051-3.213-0.857-3.602-4.034-4.046v-0.739h8.186v0.739
		c-2.369,0.227-2.501,1.357-2.501,5.748v11.983l-1.211,0.586c-2.634-3.229-9.046-9.695-13.492-14.487
		c-0.074,3.021,0.057,5.844,0.159,8.786c0.113,3.31,0.704,3.521,3.879,4.194v0.745h-8.826v-0.745
		c1.959-0.381,3.309-0.266,3.309-3.904V180.298z"/>
	<path clip-path="url(#SVGID_2_)" fill="#010101" d="M72.569,179.427l0.618-6.048h0.563c0.281,0.469,0.643,0.719,1.062,0.804
		c0.42,0.08,0.879,0.057,1.365,0.057h11.396c0.959,0,1.879,0.131,2.405-0.86h0.577l0.617,6.048l-0.75,0.144
		c-1.084-3.833-3.081-4.199-6.786-4.199v11.202c0,4.875,0.336,4.677,4.033,5.225v0.747H76.043v-0.747
		c3.687-0.548,4.039-0.35,4.039-5.225v-11.202c-3.711,0-5.66,0.366-6.76,4.199L72.569,179.427z"/>
	<path clip-path="url(#SVGID_2_)" fill="#010101" d="M100.553,183.856v3.555c0,2.734,0.017,4.001,3.606,4.001
		c3.501,0,5.003-1.961,5.763-5.065h0.803c0.057,2.104-0.321,4.178-0.968,6.195H93.448v-0.744c3.198-0.55,3.547-0.355,3.547-5.226
		v-6.354c0-4.874-0.349-4.689-3.547-5.237v-0.738h15.926l-0.502,4.694h-0.832c-0.193-3.512-2.581-3.562-5.523-3.562h-1.964v6.848
		h2.286c2.311,0,3.524-0.178,4.195-2.623h0.711c-0.139,2.281-0.245,4.548-0.118,6.828h-0.752c-0.525-2.626-1.801-2.571-4.139-2.571
		H100.553z"/>
	<path clip-path="url(#SVGID_2_)" fill="#010101" d="M120.753,182.936c2.505-0.192,4.999-1.271,4.999-4.185
		c0-2.771-2.576-3.521-4.999-3.521V182.936z M117.203,179.405c0-3.642-0.201-4.146-3.557-4.431v-0.733h8.378
		c3.311,0,7.774,0,7.774,4.29c0,2.106-1.615,3.679-3.501,4.404c1.994,3.937,4.77,8.131,9.214,9.175l-0.111,0.76
		c-2.4-0.131-5.177,0.111-7.271-1.344c-1.37-0.965-2.929-3.507-3.745-5.014c-1.268-2.406-1.069-2.259-3.63-2.637v2.695
		c0,3.667-0.162,4.889,4.166,5.225v0.742h-11.274v-0.742c3.196-0.55,3.557-0.354,3.557-5.225V179.405z"/>
	<path clip-path="url(#SVGID_2_)" fill="#010101" d="M138.72,180.298c0-2.768-0.074-4.721-3.502-5.316v-0.739h6.19
		c3.392,4.413,8.084,8.871,11.949,13.416l0.065-0.061l-0.158-8.57c-0.06-3.213-0.87-3.602-4.047-4.046v-0.739h8.186v0.739
		c-2.362,0.227-2.497,1.357-2.497,5.748v11.983l-1.223,0.586c-2.63-3.229-9.042-9.695-13.483-14.487
		c-0.083,3.021,0.056,5.844,0.166,8.786c0.101,3.31,0.7,3.521,3.875,4.194v0.745h-8.828v-0.745c1.966-0.381,3.307-0.266,3.307-3.904
		V180.298z"/>
	<path clip-path="url(#SVGID_2_)" fill="#010101" d="M170.795,183.717l-2.446-6.239l-2.322,6.239H170.795z M165.523,185.317
		l-0.487,1.394c-1.616,4.65-0.511,4.736,2.417,5.085v0.75h-8.367v-0.75c1.461-0.46,2.083-0.505,2.692-1.938l5.954-13.899
		l-0.279-0.806c1.058-0.38,1.921-1.174,2.555-2.09h0.518l5.037,13.137c1.751,4.416,1.557,4.726,4.334,5.596v0.75h-9.166v-0.75
		c2.627-0.46,2.789-0.975,1.297-4.76l-0.64-1.719H165.523z"/>
	<path clip-path="url(#SVGID_2_)" fill="#010101" d="M179.451,179.427l0.626-6.048h0.554c0.276,0.469,0.652,0.719,1.058,0.804
		c0.428,0.08,0.885,0.057,1.37,0.057h11.384c0.973,0,1.883,0.131,2.424-0.86h0.563l0.628,6.048l-0.756,0.144
		c-1.076-3.833-3.082-4.199-6.785-4.199v11.202c0,4.875,0.348,4.677,4.036,5.225v0.747h-11.63v-0.747
		c3.689-0.548,4.043-0.35,4.043-5.225v-11.202c-3.721,0-5.654,0.366-6.756,4.199L179.451,179.427z"/>
	<path clip-path="url(#SVGID_2_)" fill="#010101" d="M207.521,186.572c0,4.872,0.353,4.675,3.558,5.224v0.747h-10.668v-0.747
		c3.203-0.549,3.552-0.352,3.552-5.224v-6.354c0-4.88-0.349-4.69-3.552-5.242v-0.734h10.668v0.734
		c-3.205,0.552-3.558,0.362-3.558,5.242V186.572z"/>
	<path clip-path="url(#SVGID_2_)" fill="#010101" d="M218.567,182.981c0,3.811,1.776,8.791,6.316,8.791
		c4.264,0,5.742-4.344,5.742-7.872c0-3.814-1.835-8.887-6.433-8.887C220.046,175.014,218.567,179.621,218.567,182.981
		 M234.987,183.252c0,6.012-4.522,9.757-10.435,9.757c-5.861,0-10.348-3.608-10.348-9.558c0-5.848,4.519-9.676,10.304-9.676
		C230.176,173.775,234.987,177.054,234.987,183.252"/>
	<path clip-path="url(#SVGID_2_)" fill="#010101" d="M241.304,180.298c0-2.768-0.08-4.721-3.502-5.316v-0.739h6.194
		c3.388,4.413,8.072,8.871,11.953,13.416l0.051-0.061l-0.16-8.57c-0.06-3.213-0.868-3.602-4.042-4.046v-0.739h8.185v0.739
		c-2.363,0.227-2.501,1.357-2.501,5.748v11.983l-1.21,0.586c-2.639-3.229-9.051-9.695-13.485-14.487
		c-0.09,3.021,0.045,5.844,0.157,8.786c0.111,3.31,0.698,3.521,3.875,4.194v0.745h-8.828v-0.745
		c1.967-0.381,3.313-0.266,3.313-3.904V180.298z"/>
	<path clip-path="url(#SVGID_2_)" fill="#010101" d="M273.378,183.717l-2.438-6.239l-2.323,6.239H273.378z M268.106,185.317
		l-0.489,1.394c-1.617,4.65-0.513,4.736,2.42,5.085v0.75h-8.368v-0.75c1.451-0.46,2.07-0.505,2.692-1.938l5.952-13.899l-0.276-0.806
		c1.055-0.38,1.911-1.174,2.561-2.09h0.517l5.028,13.137c1.745,4.416,1.564,4.726,4.336,5.596v0.75h-9.152v-0.75
		c2.606-0.46,2.776-0.975,1.284-4.76l-0.64-1.719H268.106z"/>
	<path clip-path="url(#SVGID_2_)" fill="#010101" d="M299.952,192.541h-16.111v-0.746c3.204-0.549,3.547-0.351,3.547-5.224v-6.351
		c0-4.884-0.343-4.691-3.547-5.242v-0.737h10.66v0.737c-3.72,0.329-3.56,1.571-3.56,5.242v9.903c0,0.875-0.409,1.214,2.451,1.214
		c4.609,0,5.665-1.729,7.81-5.438l0.757,0.299L299.952,192.541z"/>
	<path clip-path="url(#SVGID_2_)" fill="#010101" d="M330.738,181.415l-3.083-7.885l-2.924,7.885H330.738z M324.094,183.454
		l-0.618,1.721c-2.038,5.878-0.634,5.982,3.052,6.427v0.943h-10.548v-0.943c1.839-0.59,2.615-0.643,3.402-2.439l7.475-17.523
		l-0.329-1.021c1.324-0.47,2.409-1.453,3.223-2.616h0.652l6.35,16.538c2.197,5.569,1.959,5.965,5.458,7.062v0.943h-11.539v-0.943
		c3.288-0.59,3.498-1.228,1.62-6.013l-0.809-2.135H324.094z"/>
	<path clip-path="url(#SVGID_2_)" fill="#010101" d="M350.898,182.936c2.497-0.192,5.008-1.271,5.008-4.185
		c0-2.771-2.586-3.521-5.008-3.521V182.936z M347.343,179.405c0-3.642-0.193-4.146-3.555-4.431v-0.733h8.376
		c3.312,0,7.773,0,7.773,4.29c0,2.106-1.608,3.679-3.492,4.404c1.986,3.937,4.763,8.131,9.198,9.175l-0.101,0.76
		c-2.404-0.131-5.17,0.111-7.278-1.344c-1.358-0.965-2.926-3.507-3.727-5.014c-1.282-2.406-1.084-2.258-3.64-2.637v2.695
		c0,3.667-0.166,4.889,4.174,5.225v0.742h-11.284v-0.742c3.208-0.55,3.555-0.354,3.555-5.225V179.405z"/>
	<path clip-path="url(#SVGID_2_)" fill="#010101" d="M365.039,179.427l0.614-6.048h0.572c0.263,0.469,0.648,0.719,1.052,0.804
		c0.436,0.08,0.874,0.057,1.379,0.057h11.386c0.949,0,1.879,0.131,2.41-0.86h0.572l0.62,6.048l-0.753,0.144
		c-1.082-3.833-3.075-4.199-6.778-4.199v11.202c0,4.875,0.342,4.677,4.031,5.225v0.747h-11.64v-0.747
		c3.709-0.548,4.046-0.35,4.046-5.225v-11.202c-3.717,0-5.654,0.366-6.762,4.199L365.039,179.427z"/>
	<path clip-path="url(#SVGID_2_)" fill="#010101" d="M398.755,179.682h-0.804c-0.515-2.207-1.157-4.665-3.929-4.665
		c-1.645,0-2.753,1.217-2.753,2.789c0,4.37,8.863,4.08,8.863,9.708c0,3.88-3.728,5.487-7.155,5.487c-1.921,0-3.805-0.5-5.475-1.364
		l-0.894-5.339l0.843-0.16c0.889,2.647,2.839,5.638,6.03,5.638c1.78,0,3.104-1.163,3.104-2.926c0-4.541-8.874-4.17-8.874-9.504
		c0-3.582,3.429-5.563,6.72-5.563c1.609,0,3.189,0.4,4.569,1.198L398.755,179.682z"/>
	<path clip-path="url(#SVGID_2_)" fill="#010101" d="M439.899,173.913h-0.067l-7.978,18.98h-1.01l-7.717-18.267h-0.056
		l-0.777,13.242c-0.214,3.085,1.385,3.085,4.01,3.736v0.936h-10.188v-0.936c2.509-0.75,3.186-0.852,3.629-3.573l2.003-14.52
		c0.276-2.521-1.589-2.563-3.591-3.091v-0.96h8.915v0.689c-0.88,1.176,0.547,3.722,1.018,4.847l4.791,10.996l5.497-12.656
		c0.397-0.925,1.153-2.312,0.276-3.187v-0.689h9.589v0.96c-3.395,0.715-3.931,1.253-3.76,4.512l0.569,10.964
		c0.234,3.873,0.279,5.024,4.449,5.708v0.936h-13.103v-0.936c4.651-0.554,4.375-1.666,4.144-5.985L439.899,173.913z"/>
	<path clip-path="url(#SVGID_2_)" fill="#010101" d="M330.771,140.506h-0.067l-7.978,18.977h-1.011L314,141.221h-0.057
		l-0.786,13.239c-0.207,3.089,1.394,3.089,4.015,3.735v0.936h-10.185v-0.936c2.508-0.75,3.184-0.845,3.624-3.583l2.004-14.506
		c0.279-2.518-1.591-2.561-3.585-3.091v-0.958h8.915v0.695c-0.884,1.172,0.545,3.711,1.016,4.84l4.79,10.991l5.498-12.65
		c0.396-0.925,1.153-2.312,0.27-3.181v-0.695h9.595v0.958c-3.392,0.717-3.932,1.252-3.763,4.513l0.572,10.962
		c0.234,3.878,0.28,5.021,4.45,5.705v0.936h-13.101v-0.936c4.651-0.548,4.369-1.661,4.144-5.984L330.771,140.506z"/>
	<path clip-path="url(#SVGID_2_)" fill="#010101" d="M462.828,183.717l-2.445-6.239l-2.318,6.239H462.828z M457.558,185.317
		l-0.498,1.394c-1.602,4.65-0.511,4.736,2.432,5.085v0.75h-8.371v-0.75c1.446-0.46,2.072-0.505,2.686-1.936l5.959-13.901
		l-0.273-0.806c1.047-0.38,1.904-1.174,2.549-2.09h0.514l5.042,13.137c1.746,4.416,1.557,4.726,4.328,5.596v0.75h-9.152v-0.75
		c2.62-0.46,2.778-0.975,1.294-4.76l-0.643-1.719H457.558z"/>
	<path clip-path="url(#SVGID_2_)" fill="#010101" d="M476.533,180.298c0-2.768-0.079-4.721-3.492-5.316v-0.739h6.191
		c3.403,4.413,8.079,8.871,11.959,13.416l0.045-0.061l-0.159-8.57c-0.056-3.213-0.854-3.602-4.035-4.046v-0.739h8.179v0.739
		c-2.364,0.227-2.501,1.357-2.501,5.748v11.983l-1.213,0.586c-2.646-3.229-9.04-9.695-13.478-14.487
		c-0.087,3.021,0.05,5.844,0.153,8.786c0.112,3.312,0.704,3.521,3.879,4.194v0.745h-8.835v-0.745
		c1.971-0.381,3.307-0.266,3.307-3.904V180.298z"/>
	<path clip-path="url(#SVGID_2_)" fill="#010101" d="M508.617,183.717l-2.456-6.239l-2.312,6.239H508.617z M503.346,185.317
		l-0.483,1.394c-1.621,4.65-0.508,4.736,2.42,5.085v0.75h-8.383v-0.75c1.467-0.46,2.071-0.505,2.701-1.936l5.95-13.901l-0.269-0.806
		c1.04-0.38,1.904-1.174,2.556-2.09h0.512l5.03,13.137c1.751,4.416,1.562,4.726,4.334,5.596v0.75h-9.145v-0.75
		c2.606-0.46,2.768-0.975,1.293-4.76l-0.65-1.719H503.346z"/>
	<path clip-path="url(#SVGID_2_)" fill="#010101" d="M537.981,190.452h1.454v0.617c-2.871,1.178-5.946,1.933-9.057,1.933
		c-5.574,0-10.625-3.5-10.625-9.311c0-6.494,5.674-9.91,11.52-9.91c2.392,0,4.626,0.567,6.854,1.425v5.141h-0.798
		c-0.813-3.202-2.998-5.331-6.513-5.331c-4.302,0-6.713,3.732-6.713,7.701c0,4.963,3.236,9.051,8.338,9.051
		c1.89,0,1.813-0.469,1.979-1.591v-1.396c0-3.506-0.193-3.74-3.905-4.256v-0.753h9.504v0.753c-1.834,0.46-2.038,0.776-2.038,2.665
		V190.452z"/>
	<path clip-path="url(#SVGID_2_)" fill="#010101" d="M550.148,183.857v3.554c0,2.734,0.033,4.001,3.615,4.001
		c3.488,0,4.991-1.96,5.767-5.066h0.794c0.052,2.106-0.322,4.18-0.96,6.197h-16.312v-0.746c3.195-0.549,3.551-0.355,3.551-5.225
		v-6.354c0-4.874-0.355-4.69-3.551-5.238v-0.734h15.937l-0.509,4.691h-0.838c-0.2-3.512-2.584-3.562-5.529-3.562h-1.965v6.847h2.283
		c2.336,0,3.541-0.176,4.211-2.622h0.697c-0.12,2.282-0.244,4.549-0.106,6.829h-0.769c-0.517-2.627-1.788-2.571-4.136-2.571H550.148
		z"/>
	<path clip-path="url(#SVGID_2_)" fill="#010101" d="M581.826,177.763h-0.062l-6.311,15.065h-0.814l-6.104-14.501h-0.056
		l-0.623,10.499c-0.146,2.461,1.101,2.461,3.163,2.972v0.747h-8.069v-0.747c1.996-0.607,2.533-0.677,2.89-2.839l1.581-11.518
		c0.215-1.997-1.262-2.016-2.853-2.46v-0.742h7.09v0.535c-0.7,0.938,0.414,2.963,0.804,3.848l3.798,8.724l4.358-10.034
		c0.318-0.737,0.912-1.846,0.212-2.537v-0.535h7.619v0.742c-2.685,0.572-3.123,0.998-2.979,3.589l0.448,8.704
		c0.186,3.066,0.218,3.976,3.525,4.523v0.747h-10.4v-0.747c3.695-0.436,3.48-1.329,3.307-4.737L581.826,177.763z"/>
	<path clip-path="url(#SVGID_2_)" fill="#010101" d="M598.64,183.857v3.554c0,2.734,0.034,4.001,3.611,4.001
		c3.495,0,5.008-1.96,5.759-5.066h0.817c0.049,2.106-0.338,4.18-0.975,6.197h-16.315v-0.746c3.203-0.549,3.555-0.355,3.555-5.225
		v-6.354c0-4.874-0.352-4.69-3.555-5.238v-0.734h15.934l-0.505,4.691h-0.832c-0.194-3.512-2.587-3.562-5.536-3.562h-1.958v6.847
		h2.291c2.314,0,3.526-0.176,4.198-2.622h0.696c-0.119,2.282-0.232,4.549-0.102,6.829h-0.754c-0.534-2.627-1.803-2.571-4.148-2.571
		H598.64z"/>
	<path clip-path="url(#SVGID_2_)" fill="#010101" d="M614.993,180.298c0-2.768-0.074-4.721-3.498-5.316v-0.739h6.196
		c3.387,4.413,8.072,8.871,11.95,13.416l0.055-0.061l-0.165-8.57c-0.06-3.213-0.854-3.602-4.043-4.046v-0.739h8.186v0.739
		c-2.36,0.227-2.501,1.357-2.501,5.748v11.983l-1.206,0.586c-2.641-3.229-9.047-9.695-13.484-14.487
		c-0.092,3.021,0.05,5.844,0.15,8.786c0.105,3.312,0.705,3.521,3.883,4.194v0.745h-8.836v-0.745
		c1.974-0.381,3.313-0.266,3.313-3.904V180.298z"/>
	<path clip-path="url(#SVGID_2_)" fill="#010101" d="M636.113,179.427l0.625-6.048h0.573c0.27,0.469,0.64,0.719,1.048,0.804
		c0.421,0.08,0.869,0.057,1.373,0.057h11.38c0.97,0,1.885,0.131,2.426-0.86h0.561l0.622,6.048l-0.754,0.144
		c-1.084-3.833-3.062-4.199-6.783-4.199v11.202c0,4.875,0.343,4.677,4.027,5.225v0.747h-11.619v-0.747
		c3.69-0.548,4.037-0.35,4.037-5.225v-11.202c-3.711,0-5.654,0.366-6.755,4.199L636.113,179.427z"/>
	<rect y="210.238" clip-path="url(#SVGID_2_)" fill="#010101" width="688.158" height="2.022"/>
	<polygon clip-path="url(#SVGID_2_)" fill="#010101" points="57.964,253.757 54.173,253.757 54.173,260.959 46.15,260.959 
		46.15,253.757 42.289,253.757 42.289,260.959 38.84,260.959 38.84,264.556 42.289,264.556 42.289,272.935 46.15,272.935 
		46.15,264.556 54.173,264.556 54.173,272.935 58.031,272.935 58.031,253.757 	"/>
	<polygon clip-path="url(#SVGID_2_)" fill="#010101" points="62.897,253.757 62.897,260.959 59.397,260.959 59.397,264.556 
		62.897,264.556 62.897,272.935 75.528,272.935 75.528,269.325 66.681,269.325 66.681,264.556 74.962,264.556 74.962,260.959 
		66.681,260.959 66.681,257.338 75.528,257.338 75.528,253.757 	"/>
	<rect x="208.938" y="246.709" clip-path="url(#SVGID_2_)" fill="#010101" width="8.855" height="3.413"/>
	<path clip-path="url(#SVGID_2_)" fill="#010101" d="M227.958,260.562l2.628,5.443h-5.234L227.958,260.562z M217.961,272.936h4.439
		l1.576-3.52h7.985l1.567,3.52h4.417l-9.987-20.342L217.961,272.936z"/>
	<polygon clip-path="url(#SVGID_2_)" fill="#010101" points="205.173,253.757 205.173,260.959 201.912,260.959 201.912,264.556 
		205.173,264.556 205.173,272.935 217.796,272.935 217.796,269.325 208.939,269.325 208.939,264.556 217.215,264.556 
		217.215,260.959 208.939,260.959 208.939,257.338 217.796,257.338 217.796,253.757 	"/>
	<path clip-path="url(#SVGID_2_)" fill="#010101" d="M76.554,263.251c0,5.708,4.599,10.159,10.448,10.159
		c3.289,0,6.233-1.389,8.279-3.935l0.147-0.205L92.287,267l-0.158,0.176c-1.209,1.609-3.077,2.538-5.126,2.538
		c-3.455,0-6.373-2.946-6.373-6.463c0-3.494,2.918-6.291,6.373-6.291c2.083,0,3.867,0.945,5.077,2.652l3.349-2.214l-0.147-0.194
		c-2.046-2.549-4.99-3.94-8.279-3.94C81.153,253.264,76.554,257.583,76.554,263.251"/>
	<polygon clip-path="url(#SVGID_2_)" fill="#010101" points="116.366,261.323 107.22,253.253 107.22,272.935 111.049,272.935 
		111.049,261.629 116.366,266.301 121.678,261.629 121.678,272.935 125.523,272.935 125.523,253.253 	"/>
	<path clip-path="url(#SVGID_2_)" fill="#010101" d="M137.761,269.693c-3.439,0-6.351-2.801-6.351-6.291
		c0-3.457,2.912-6.401,6.351-6.401c3.451,0,6.354,2.944,6.354,6.401C144.114,266.893,141.211,269.693,137.761,269.693
		 M137.761,253.263c-5.852,0-10.441,4.445-10.441,10.14c0,5.7,4.589,10.008,10.441,10.008c5.883,0,10.467-4.308,10.467-10.008
		C148.228,257.708,143.644,253.263,137.761,253.263"/>
	<polygon clip-path="url(#SVGID_2_)" fill="#010101" points="150.032,272.936 153.87,272.936 153.87,261.787 166.118,273.734 
		166.118,253.757 162.259,253.757 162.259,264.277 150.032,252.939 	"/>
	<polygon clip-path="url(#SVGID_2_)" fill="#010101" points="183.104,253.757 168.189,253.757 168.189,257.421 173.758,257.421 
		173.758,272.935 177.605,272.935 177.605,257.421 183.177,257.421 183.177,253.757 	"/>
	<polygon clip-path="url(#SVGID_2_)" fill="#010101" points="242.161,253.757 238.369,253.757 238.369,272.935 249.469,272.935 
		249.469,269.25 242.217,269.25 242.217,253.757 	"/>
	<path clip-path="url(#SVGID_2_)" fill="#010101" d="M189.096,260.968v-3.64h6.015c1.696,0,2.296,1.111,2.296,2.022
		c0,0.879-0.6,1.617-2.296,1.617H189.096z M196.541,264.473l0.254-0.038c2.861-0.577,4.447-2.192,4.447-5.114
		c0-3.6-2.336-5.579-6.427-5.579h-9.33h-0.245v7.218h-3.106v3.597h3.106v8.377h3.856v-8.377h3.164l4.815,8.377h4.558
		C201.51,272.744,196.541,264.473,196.541,264.473"/>
	<path clip-path="url(#SVGID_2_)" fill="#010101" d="M449.844,270.575c0.277,0,0.578,0.004,0.578-0.352
		c0-0.274-0.227-0.316-0.441-0.316h-0.458v0.668H449.844z M449.522,271.707h-0.271v-2.019h0.777c0.457,0,0.653,0.184,0.653,0.544
		c0,0.353-0.216,0.527-0.453,0.564l0.56,0.91h-0.309l-0.539-0.91h-0.419V271.707z M451.323,270.686c0-0.824-0.62-1.479-1.426-1.479
		c-0.827,0-1.433,0.654-1.433,1.479c0,0.821,0.605,1.479,1.433,1.479C450.703,272.164,451.323,271.507,451.323,270.686
		 M451.591,270.686c0,0.934-0.758,1.693-1.693,1.693s-1.712-0.76-1.712-1.693c0-0.938,0.776-1.711,1.712-1.711
		S451.591,269.748,451.591,270.686"/>
	<rect x="270.04" y="229.172" clip-path="url(#SVGID_2_)" fill="#010101" width="1.006" height="63.159"/>
	<rect x="473.841" y="229.172" clip-path="url(#SVGID_2_)" fill="#010101" width="1.005" height="63.159"/>
	<path clip-path="url(#SVGID_2_)" fill="#010101" d="M371.574,251.628l-0.781-0.021c-0.739-3.647-1.091-7.729-6.267-7.889
		c-3.263-0.102-6.169,1.974-6.095,5.098c0.211,7.503,15.099,5.53,14.864,16.302c-0.104,5.266-5.363,8.239-11.202,8.239
		c-3.451,0-6.354-1.288-8.435-2.633l-1.115-7.199l0.865,0.009c1.057,4.052,4.092,8.366,9.353,8.376
		c3.414,0.009,6.171-1.839,6.211-4.999c0.201-9.792-14.319-7.191-14.67-15.824c-0.268-6.381,5.493-8.77,10.457-8.605
		c2.562,0.077,5.145,0.752,7.333,1.953L371.574,251.628z"/>
	<path clip-path="url(#SVGID_2_)" fill="#010101" d="M394.73,266.455l6.91-17.348c1.058-2.409,1.636-4.587,0.677-5.249l0.085-0.698
		h9.533v0.669c-2.754,0.551-4.439,1.61-4.237,4.675l1.188,15.861c0.548,6.065,0.385,7.039,5.058,7.812v0.65h-14.281v-0.65
		c3.337-0.533,5.459-0.916,5.205-4.759l-1.293-19.067h-0.088l-10.037,24.477h-0.472l-10.753-23.451h-0.076
		c0,0-0.443,11.392-0.681,18.273c-0.051,1.681-0.01,3.659,5.252,4.527v0.65h-12.09v-0.65c3.837-0.657,4.513-2.979,4.783-6.068
		l1.069-12.161l0.424-6.031c0.122-2.963-2.232-3.882-4.785-4.088l-0.02-0.669h9.359l0.045,0.488
		c-0.935,0.992,0.259,3.62,0.546,4.311L394.73,266.455z"/>
	<path clip-path="url(#SVGID_2_)" fill="#010101" d="M447.739,243.162v0.668c-3.852,0.444-4.129,2.872-4.28,8.624l-0.252,9.565
		c-0.133,5.632-2.473,11.336-11.889,11.336c-13.145,0-11.782-9.755-11.782-13.263v-9.768c-0.134-4.496-0.176-5.802-5.263-6.495
		v-0.668h14.629v0.668c-5.545,0.81-5.628,1.689-5.628,6.495v8.936c0,0.832-1.365,12.087,10.264,12.087
		c9.145,0,8.274-8.975,8.274-14.305v-4.589c0-5.546-0.436-8.072-6.369-8.624v-0.668H447.739z"/>
	<rect x="331.133" y="270.906" clip-path="url(#SVGID_2_)" fill="#010101" width="0.237" height="0.244"/>
	<polygon clip-path="url(#SVGID_2_)" fill="#010101" points="329.89,269.471 329.89,269.713 331.124,269.713 331.124,270.907 
		331.368,270.907 331.368,269.471 	"/>
	<polygon clip-path="url(#SVGID_2_)" fill="#010101" points="329.891,269.714 329.891,269.978 330.864,269.978 330.864,270.906 
		331.125,270.906 331.125,269.714 	"/>
	<rect x="304.102" y="270.905" clip-path="url(#SVGID_2_)" fill="#010101" width="26.579" height="0.018"/>
	<polygon clip-path="url(#SVGID_2_)" fill="#010101" points="328.941,252.347 329.801,252.734 329.801,254.104 329.005,254.104 
		329.005,254.657 330.337,254.657 330.337,252.384 328.941,251.739 	"/>
	<rect x="329.652" y="269.471" clip-path="url(#SVGID_2_)" fill="#010101" width="0.24" height="0.241"/>
	<polygon clip-path="url(#SVGID_2_)" fill="#010101" points="328.94,253.702 329.383,253.702 329.383,252.995 328.94,252.789 	"/>
	<polygon clip-path="url(#SVGID_2_)" fill="#010101" points="322.258,268.031 318.338,268.031 314.434,268.031 310.504,268.031 
		305.802,268.031 305.802,268.258 329.002,268.258 329.002,268.031 	"/>
	<polygon clip-path="url(#SVGID_2_)" fill="#010101" points="328.697,252.227 328.941,252.347 328.941,251.739 328.697,251.618 	"/>
	<polygon clip-path="url(#SVGID_2_)" fill="#010101" points="328.441,252.104 328.694,252.221 328.694,251.618 328.441,251.498 	"/>
	<polygon clip-path="url(#SVGID_2_)" fill="#010101" points="328.109,246.333 328.169,246.496 328.189,246.578 328.704,246.578 
		328.704,251.617 328.943,251.741 328.943,246.333 	"/>
	<polygon clip-path="url(#SVGID_2_)" fill="#010101" points="328.188,246.577 328.272,246.837 328.441,246.837 328.441,251.496 
		328.701,251.616 328.701,246.577 	"/>
	<polygon clip-path="url(#SVGID_2_)" fill="#010101" points="327.929,246.577 317.789,246.577 318.354,246.837 328.273,246.837 
		328.187,246.577 	"/>
	<rect x="326.192" y="254.574" clip-path="url(#SVGID_2_)" fill="#010101" width="2.008" height="0.082"/>
	<polygon clip-path="url(#SVGID_2_)" fill="#010101" points="327.845,246.333 327.931,246.578 328.192,246.578 328.168,246.496 
		328.11,246.333 	"/>
	<polygon clip-path="url(#SVGID_2_)" fill="#010101" points="327.563,246.333 307.24,246.333 306.979,246.333 306.879,246.578 
		317.022,246.578 317.403,246.397 317.79,246.578 327.929,246.578 327.847,246.333 	"/>
	<polygon clip-path="url(#SVGID_2_)" fill="#010101" points="326.188,267.894 328.198,267.894 328.198,254.655 329,254.655 
		329,268.032 322.26,268.032 322.26,267.894 324.291,267.894 324.291,254.655 326.188,254.655 	"/>
	<rect x="322.259" y="254.574" clip-path="url(#SVGID_2_)" fill="#010101" width="2.027" height="0.082"/>
	<polygon clip-path="url(#SVGID_2_)" fill="#010101" points="322.263,267.894 322.263,268.032 318.337,268.032 318.337,267.894 
		320.38,267.894 320.38,254.655 322.263,254.655 	"/>
	<rect x="318.337" y="254.574" clip-path="url(#SVGID_2_)" fill="#010101" width="2.041" height="0.082"/>
	<polygon clip-path="url(#SVGID_2_)" fill="#010101" points="319.488,239.132 319.994,239.132 319.994,239.028 319.488,238.926 	"/>
	<polygon clip-path="url(#SVGID_2_)" fill="#010101" points="316.456,267.894 316.456,254.655 318.339,254.655 318.339,267.894 
		318.339,268.032 314.433,268.032 314.433,267.894 	"/>
	<polygon clip-path="url(#SVGID_2_)" fill="#010101" points="314.814,237.546 314.814,239.027 315.324,238.926 315.324,237.958 
		317.403,237.388 319.489,237.958 319.489,238.926 319.994,239.027 319.994,237.546 317.403,236.881 	"/>
	<polygon clip-path="url(#SVGID_2_)" fill="#010101" points="316.434,246.837 318.354,246.837 328.438,251.499 328.438,252.104 
		317.482,247.063 317.4,247.025 306.354,252.128 306.354,251.517 	"/>
	<polygon clip-path="url(#SVGID_2_)" fill="#010101" points="317.022,246.577 316.429,246.837 318.354,246.837 317.79,246.577 	"/>
	<polygon clip-path="url(#SVGID_2_)" fill="#010101" points="317.022,246.577 317.79,246.577 317.403,246.393 	"/>
	<rect x="314.43" y="254.574" clip-path="url(#SVGID_2_)" fill="#010101" width="2.023" height="0.082"/>
	<polygon clip-path="url(#SVGID_2_)" fill="#010101" points="314.814,239.027 314.814,239.132 315.324,239.132 315.324,238.926 	"/>
	<polygon clip-path="url(#SVGID_2_)" fill="#010101" points="312.545,267.894 312.545,254.655 314.433,254.655 314.433,267.894 
		314.433,268.032 310.504,268.032 310.504,267.894 	"/>
	<rect x="310.502" y="254.574" clip-path="url(#SVGID_2_)" fill="#010101" width="2.042" height="0.082"/>
	<rect x="306.595" y="254.574" clip-path="url(#SVGID_2_)" fill="#010101" width="2.019" height="0.082"/>
	<path clip-path="url(#SVGID_2_)" fill="#010101" d="M317.403,239.228c-4.556,0-8.602,2.835-10.164,7.105h-0.259
		c1.539-4.291,5.627-7.364,10.423-7.364c4.8,0,8.883,3.073,10.445,7.364h-0.283C326.006,242.062,321.956,239.228,317.403,239.228"/>
	<path clip-path="url(#SVGID_2_)" fill="#010101" d="M317.403,238.969c-4.796,0-8.884,3.072-10.423,7.371h-0.264
		c1.297-3.728,4.375-6.439,8.098-7.311v0.103h0.506v-0.202c0.666-0.144,1.379-0.208,2.083-0.208c0.708,0,1.417,0.064,2.085,0.208
		v0.202h0.505v-0.103c3.725,0.871,6.804,3.583,8.122,7.311h-0.267C326.286,242.041,322.203,238.969,317.403,238.969"/>
	<polygon clip-path="url(#SVGID_2_)" fill="#010101" points="306.878,246.577 306.634,246.577 306.536,246.837 316.431,246.837 
		317.022,246.577 	"/>
	<polygon clip-path="url(#SVGID_2_)" fill="#010101" points="306.719,246.333 306.656,246.496 306.633,246.578 306.881,246.578 
		306.977,246.333 	"/>
	<polygon clip-path="url(#SVGID_2_)" fill="#010101" points="305.804,254.104 305.804,254.655 306.596,254.655 306.596,254.57 
		308.621,254.57 308.621,254.655 310.497,254.655 310.497,254.57 312.545,254.57 312.545,254.655 314.429,254.655 314.429,254.57 
		316.457,254.57 316.457,254.655 318.336,254.655 318.336,254.57 320.379,254.57 320.379,254.655 322.261,254.655 322.261,254.57 
		324.292,254.57 324.292,254.655 326.187,254.655 326.187,254.57 328.189,254.57 328.189,254.655 329.007,254.655 329.007,254.104 	
		"/>
	<polygon clip-path="url(#SVGID_2_)" fill="#010101" points="305.807,268.031 305.807,254.654 306.593,254.654 306.593,267.89 
		308.618,267.89 308.618,254.654 310.502,254.654 310.502,267.89 310.502,268.031 	"/>
	<path clip-path="url(#SVGID_2_)" fill="#010101" d="M328.438,253.36h-22.084v-0.812l11.046-5.081l11.038,5.081V253.36z
		 M317.4,248.074l-10.967,5.065h21.922L317.4,248.074z"/>
	<polygon clip-path="url(#SVGID_2_)" fill="#010101" points="328.441,253.359 306.353,253.359 306.353,252.553 306.109,252.669 
		306.109,253.621 328.694,253.621 328.694,252.669 328.441,252.553 	"/>
	<polygon clip-path="url(#SVGID_2_)" fill="#010101" points="306.108,251.616 306.108,252.226 306.358,252.128 306.358,251.517 	"/>
	<polygon clip-path="url(#SVGID_2_)" fill="#010101" points="306.108,246.577 306.108,251.616 306.358,251.516 306.358,246.837 
		306.534,246.837 306.633,246.577 	"/>
	<polygon clip-path="url(#SVGID_2_)" fill="#010101" points="328.697,253.624 306.107,253.624 306.107,252.671 305.843,252.789 
		305.843,253.702 328.941,253.702 328.941,252.789 328.697,252.671 	"/>
	<polygon clip-path="url(#SVGID_2_)" fill="#010101" points="305.844,251.738 305.844,252.348 306.108,252.227 306.108,251.617 	"/>
	<polygon clip-path="url(#SVGID_2_)" fill="#010101" points="305.844,246.333 305.844,251.741 306.108,251.617 306.108,246.578 
		306.636,246.578 306.654,246.496 306.718,246.333 	"/>
	<polygon clip-path="url(#SVGID_2_)" fill="#010101" points="305.399,252.996 305.399,253.702 305.844,253.702 305.844,252.789 	"/>
	<polygon clip-path="url(#SVGID_2_)" fill="#010101" points="305.399,268.539 305.399,269.472 305.564,269.472 305.564,268.761 
		329.217,268.761 329.217,269.472 329.383,269.472 329.383,268.539 	"/>
	<polygon clip-path="url(#SVGID_2_)" fill="#010101" points="305.162,268.294 305.162,269.471 305.402,269.471 305.402,268.539 
		329.384,268.539 329.384,269.471 329.657,269.471 329.657,268.294 	"/>
	<polygon clip-path="url(#SVGID_2_)" fill="#010101" points="329.383,269.471 329.217,269.471 329.217,269.578 305.565,269.578 
		305.565,269.471 305.402,269.471 305.161,269.471 305.161,269.715 329.647,269.715 329.647,269.471 	"/>
	<rect x="304.893" y="269.471" clip-path="url(#SVGID_2_)" fill="#010101" width="0.269" height="0.241"/>
	<polygon clip-path="url(#SVGID_2_)" fill="#010101" points="329.007,268.031 329.007,268.259 305.809,268.259 305.809,268.031 
		304.891,268.031 304.891,269.471 305.157,269.471 305.157,268.295 329.65,268.295 329.65,269.471 329.889,269.471 329.889,268.031 
			"/>
	<polygon clip-path="url(#SVGID_2_)" fill="#010101" points="329.649,269.714 305.155,269.714 304.89,269.714 304.89,269.978 
		329.89,269.978 329.89,269.714 	"/>
	<polygon clip-path="url(#SVGID_2_)" fill="#010101" points="304.45,252.384 304.45,254.655 305.804,254.655 305.804,254.104 
		304.998,254.104 304.998,252.732 305.114,252.688 305.853,252.342 305.853,251.738 	"/>
	<polygon clip-path="url(#SVGID_2_)" fill="#010101" points="329.891,269.977 304.891,269.977 303.94,269.977 303.94,270.907 
		304.106,270.907 304.106,270.119 330.683,270.119 330.683,270.907 330.864,270.907 330.864,269.977 	"/>
	<polygon clip-path="url(#SVGID_2_)" fill="#010101" points="303.679,269.714 303.679,270.906 303.94,270.906 303.94,269.978 
		304.892,269.978 304.892,269.714 	"/>
	<polygon clip-path="url(#SVGID_2_)" fill="#010101" points="330.867,270.906 330.683,270.906 330.683,270.925 304.104,270.925 
		304.104,270.906 303.94,270.906 303.68,270.906 303.68,271.15 331.127,271.15 331.127,270.906 	"/>
	<rect x="303.439" y="270.906" clip-path="url(#SVGID_2_)" fill="#010101" width="0.247" height="0.244"/>
	<polygon clip-path="url(#SVGID_2_)" fill="#010101" points="303.433,269.471 303.433,270.907 303.68,270.907 303.68,269.713 
		304.891,269.713 304.891,269.471 	"/>
	<polygon clip-path="url(#SVGID_2_)" fill="#010101" points="331.127,271.149 303.68,271.149 303.435,271.149 303.435,271.415 
		331.37,271.415 331.37,271.149 	"/>
	<polygon clip-path="url(#SVGID_2_)" fill="#010101" points="332.179,271.414 332.179,272.241 302.653,272.241 302.653,271.414 
		302.466,271.414 302.466,272.366 332.346,272.366 332.346,271.414 	"/>
	<polygon clip-path="url(#SVGID_2_)" fill="#010101" points="331.368,271.149 331.368,271.415 332.18,271.415 332.345,271.415 
		332.345,272.366 302.465,272.366 302.465,271.415 302.645,271.415 303.433,271.415 303.433,271.149 302.222,271.149 
		302.222,272.608 332.606,272.608 332.606,271.149 	"/>
	<polygon clip-path="url(#SVGID_2_)" fill="#010101" points="331.368,270.906 331.368,271.149 332.606,271.149 332.606,272.608 
		302.222,272.608 302.222,271.149 303.433,271.149 303.433,270.906 301.962,270.906 301.962,272.865 332.847,272.865 
		332.847,270.906 	"/>
	<path clip-path="url(#SVGID_2_)" fill="#18150E" d="M320.246,286.041c-15.081,0-27.308-12.226-27.308-27.308
		s12.227-27.308,27.308-27.308c15.083,0,27.308,12.226,27.308,27.308S335.328,286.041,320.246,286.041"/>
	<path clip-path="url(#SVGID_2_)" fill="#FFFFFF" d="M320.243,285.1c-14.536,0-26.363-11.829-26.363-26.362
		c0-14.537,11.827-26.363,26.363-26.363c14.541,0,26.366,11.826,26.366,26.363C346.609,273.271,334.784,285.1,320.243,285.1
		 M320.243,233.555c-13.883,0-25.179,11.295-25.179,25.183c0,13.883,11.296,25.178,25.179,25.178
		c13.884,0,25.185-11.295,25.185-25.178C345.428,244.85,334.127,233.555,320.243,233.555"/>
	<rect x="307.861" y="254.857" clip-path="url(#SVGID_2_)" fill="#FFFFFF" width="24.795" height="15.284"/>
	<rect x="308.698" y="255.501" clip-path="url(#SVGID_2_)" fill="#18150E" width="2.174" height="14.246"/>
	<rect x="312.886" y="255.501" clip-path="url(#SVGID_2_)" fill="#18150E" width="2.175" height="14.246"/>
	<rect x="317.067" y="255.501" clip-path="url(#SVGID_2_)" fill="#18150E" width="2.177" height="14.246"/>
	<rect x="321.26" y="255.501" clip-path="url(#SVGID_2_)" fill="#18150E" width="2.173" height="14.246"/>
	<rect x="325.443" y="255.501" clip-path="url(#SVGID_2_)" fill="#18150E" width="2.178" height="14.246"/>
	<rect x="329.628" y="255.501" clip-path="url(#SVGID_2_)" fill="#18150E" width="2.175" height="14.246"/>
	<rect x="308.193" y="246.959" clip-path="url(#SVGID_2_)" fill="#18150E" width="24.125" height="7.516"/>
	<path clip-path="url(#SVGID_2_)" fill="#FFFFFF" d="M332.736,254.891h-24.954v-8.345h24.954V254.891z M308.607,254.06h23.298
		v-6.684h-23.298V254.06z"/>
	<polygon clip-path="url(#SVGID_2_)" fill="#18150E" points="320.251,254.771 333.277,254.771 333.277,253.684 320.251,247.666 
		307.222,253.684 307.222,254.771 	"/>
	<path clip-path="url(#SVGID_2_)" fill="#FFFFFF" d="M334.341,255.839h-28.186v-2.832l14.096-6.514l14.09,6.514V255.839z
		 M309.713,253.708h21.073l-10.535-4.869L309.713,253.708z"/>
	<path clip-path="url(#SVGID_2_)" fill="#18150E" d="M333.574,255.07h-26.647v-1.571l13.321-6.156l13.326,6.156V255.07z
		 M307.519,254.478h25.463v-0.604l-12.733-5.88l-12.729,5.88V254.478z"/>
	<path clip-path="url(#SVGID_2_)" fill="#18150E" d="M320.257,238.842c-5.241,0-9.68,3.398-11.24,8.113h22.478
		C329.937,242.24,325.498,238.842,320.257,238.842"/>
	<path clip-path="url(#SVGID_2_)" fill="#FFFFFF" d="M332.071,247.37h-23.626l0.181-0.545c1.661-5.024,6.337-8.401,11.632-8.401
		c5.291,0,9.971,3.377,11.632,8.401L332.071,247.37z M309.605,246.544h21.304c-1.698-4.385-5.911-7.29-10.651-7.29
		C315.511,239.254,311.305,242.159,309.605,246.544"/>
	<polygon clip-path="url(#SVGID_2_)" fill="#FFFFFF" points="317.34,237.212 317.34,239.014 318.169,239.014 318.169,237.852 
		320.251,237.305 322.335,237.852 322.335,239.014 323.162,239.014 323.162,237.212 320.251,236.449 	"/>
	<rect x="304.034" y="273.234" clip-path="url(#SVGID_2_)" fill="#FFFFFF" width="32.447" height="1.536"/>
	<path clip-path="url(#SVGID_2_)" fill="#FFFFFF" d="M303.615,275.188h33.276v-2.364h-33.276V275.188z M304.449,273.647h31.616
		v0.712h-31.616V273.647z"/>
	<rect x="305.598" y="271.695" clip-path="url(#SVGID_2_)" fill="#FFFFFF" width="29.319" height="1.539"/>
	<path clip-path="url(#SVGID_2_)" fill="#FFFFFF" d="M305.183,273.647h30.149v-2.366h-30.149V273.647z M306.011,272.112h28.493
		v0.706h-28.493V272.112z"/>
	<rect x="307.158" y="270.163" clip-path="url(#SVGID_2_)" fill="#FFFFFF" width="26.194" height="1.54"/>
	<path clip-path="url(#SVGID_2_)" fill="#FFFFFF" d="M306.743,272.124h27.026v-2.373h-27.026V272.124z M307.575,270.585h25.364
		v0.706h-25.364V270.585z"/>
	<rect x="304.485" y="273.503" clip-path="url(#SVGID_2_)" fill="#18150E" width="31.547" height="0.877"/>
	<rect x="306.066" y="272.105" clip-path="url(#SVGID_2_)" fill="#18150E" width="28.388" height="0.875"/>
	<rect x="307.62" y="270.66" clip-path="url(#SVGID_2_)" fill="#18150E" width="25.273" height="0.875"/>
	<polygon clip-path="url(#SVGID_2_)" fill="#18150E" points="320.246,248.75 331.591,253.92 308.902,253.92 	"/>
	<polygon clip-path="url(#SVGID_2_)" fill="#010101" points="39.184,94.812 52.958,94.812 56.801,10.57 42.708,10.57 42.708,0 
		68.333,0 102.764,71.589 137.357,0 162.822,0 162.822,10.57 148.729,10.57 152.572,94.812 166.184,94.812 166.184,105.382 
		127.428,105.382 127.428,94.812 140.88,94.812 138.158,21.141 104.205,90.487 101.003,90.487 67.051,21.141 64.488,94.812 
		77.782,94.812 77.782,105.382 39.184,105.382 	"/>
	<polygon clip-path="url(#SVGID_2_)" fill="#010101" points="185.337,94.812 199.11,94.812 202.955,10.57 188.86,10.57 188.86,0 
		214.485,0 248.917,71.589 283.51,0 308.976,0 308.976,10.57 294.882,10.57 298.726,94.812 312.34,94.812 312.34,105.382 
		273.582,105.382 273.582,94.812 287.033,94.812 284.31,21.141 250.358,90.487 247.157,90.487 213.205,21.141 210.641,94.812 
		223.934,94.812 223.934,105.382 185.337,105.382 	"/>
	<polygon clip-path="url(#SVGID_2_)" fill="#821645" points="334.05,94.812 348.304,94.812 348.304,10.57 334.05,10.57 334.05,0 
		374.41,0 374.41,10.57 360.156,10.57 360.156,94.812 374.41,94.812 374.41,105.382 334.05,105.382 	"/>
	<path clip-path="url(#SVGID_2_)" fill="#821645" d="M467.252,58.938L449.312,9.771l-18.096,49.167H467.252z M395.821,94.812h10.09
		l31.551-84.4h-12.011V0h48.045v10.412h-12.011l31.55,84.4h10.092v10.57h-35.236V94.971h12.331l-9.447-25.944h-43.082l-9.45,25.944
		h12.812v10.411h-35.232V94.812z"/>
	<polygon clip-path="url(#SVGID_2_)" fill="#821645" points="521.972,94.812 535.745,94.812 539.59,10.57 525.493,10.57 525.493,0 
		551.118,0 585.553,71.589 620.146,0 645.612,0 645.612,10.57 631.516,10.57 635.359,94.812 648.974,94.812 648.974,105.382 
		610.215,105.382 610.215,94.812 623.668,94.812 620.946,21.141 586.992,90.487 583.791,90.487 549.837,21.141 547.275,94.812 
		560.569,94.812 560.569,105.382 521.972,105.382 	"/>
	<path clip-path="url(#SVGID_2_)" d="M557.908,250.561v-8.949h1.42c2.317,0,3.794,2.377,3.691,4.688
		c-0.084,2.109-0.387,4.261-3.346,4.261H557.908z M566.666,246.262c-0.155-3.571-3.656-4.854-6.935-4.854h-8.612v0.203h2.721v19.551
		h-2.67v0.194h9.701c3.518,0,7.16-1.676,7.228-5.447c0.031-3.646-4.221-5.263-5.606-5.244
		C563.524,250.528,566.801,249.48,566.666,246.262 M563.962,255.623c0.021,2.627-0.173,5.539-3.833,5.539h-2.221v-10.405h1.746
		C562.599,250.757,563.915,253.124,563.962,255.623"/>
	<path clip-path="url(#SVGID_2_)" d="M569.407,254.637c0.022,3.899,2.999,7.26,6.909,7.271c3.549,0.024,6.893-3.423,6.854-7.438
		c-0.034-3.869-2.991-7.211-6.768-7.274C572.976,247.139,569.36,250.664,569.407,254.637 M573.131,254.589
		c0-3.077,0.199-7.238,3.271-7.214c3.061,0,3.15,4.244,3.098,7.333c-0.061,2.979,0.174,7.006-3.184,7.027
		C573.104,261.779,573.131,257.625,573.131,254.589"/>
	<path clip-path="url(#SVGID_2_)" d="M588.153,254.799c0,3.131,0.202,6.521,3.459,6.445c2.942-0.034,3.94-3.707,3.715-4.865h0.226
		c-0.045,2.541-1.119,5.342-4.99,5.463c-3.533,0.129-6.061-3.125-6.086-6.866c-0.027-3.82,2.803-7.279,6.628-7.286
		c2.167-0.049,4.194,1.548,4.223,3.714c0.011,1.355-0.861,2.34-2.056,2.34c-1.116,0-2.041-0.944-2.041-2.062
		c0-1.12,0.888-2.056,1.999-2.09c0.657-0.008,1.412,0.517,1.57,0.688c-0.681-1.433-1.803-2.298-3.409-2.298
		C588.232,247.959,588.153,251.722,588.153,254.799"/>
	<path clip-path="url(#SVGID_2_)" d="M600.288,254.799c0,3.131,0.205,6.521,3.442,6.445c2.959-0.034,3.95-3.707,3.724-4.865h0.227
		c-0.042,2.541-1.108,5.342-4.979,5.463c-3.559,0.129-6.079-3.125-6.108-6.866c-0.003-3.82,2.822-7.279,6.637-7.286
		c2.178-0.049,4.202,1.548,4.224,3.714c0.025,1.355-0.854,2.34-2.046,2.34c-1.127,0-2.052-0.944-2.052-2.062
		c0-1.12,0.877-2.056,2.001-2.09c0.666-0.008,1.424,0.517,1.564,0.688c-0.668-1.433-1.79-2.298-3.391-2.298
		C600.357,247.959,600.288,251.722,600.288,254.799"/>
	<path clip-path="url(#SVGID_2_)" d="M608.911,254.637c0.023,3.899,3.012,7.26,6.93,7.271c3.552,0.024,6.887-3.423,6.847-7.438
		c-0.018-3.869-3.003-7.211-6.763-7.274C612.5,247.139,608.88,250.664,608.911,254.637 M612.666,254.589
		c0-3.077,0.176-7.238,3.259-7.214c3.083,0,3.156,4.244,3.094,7.333c-0.033,2.979,0.163,7.006-3.178,7.027
		C612.634,261.779,612.666,257.625,612.666,254.589"/>
	<path clip-path="url(#SVGID_2_)" d="M637.283,261.163h2.335v0.195h-7.566v-0.195h1.606v-10.898c0-1.112-0.364-2.454-1.49-2.441
		c-1.996,0.011-2.867,3.246-2.867,4.688v8.652h1.74v0.195h-7.411v-0.195h2.174V247.89h-2.445v-0.2h5.942v3.085
		c0.215-1.579,1.655-3.546,3.733-3.459c2.689,0.108,4.249,2.014,4.249,4.992V261.163z"/>
	<path clip-path="url(#SVGID_2_)" d="M644.449,240.758c1.139,0.028,2.043,0.958,2.043,2.091c0,1.144-0.904,2.077-2.043,2.097
		c-1.187,0.034-2.187-0.976-2.161-2.148C642.315,241.654,643.285,240.736,644.449,240.758 M646.344,261.163h2.388v0.195h-8.363
		v-0.195h2.368v-13.29h-2.328v-0.184h5.936V261.163z"/>
	<path clip-path="url(#SVGID_2_)" d="M506.917,243.521c-0.981-1.748-2.917-2.866-4.983-2.866c-3.049,0-5.205,2.143-5.205,5.162
		c0,1.622,0.747,2.81,2.101,3.646l3.684,1.962c1.753,0.856,4.112,1.825,4.112,4.147c0,2.7-2.359,4.799-5.028,4.799
		c-2.465,0-4.063-1.512-4.916-3.681l-1.151,0.528c0.949,2.617,3.167,4.371,6.009,4.371c3.307,0,6.382-2.559,6.382-5.929
		c0-1.832-0.784-3.08-2.332-4.061l-3.873-2.028c-1.653-0.78-3.694-1.661-3.694-3.803c0-2.15,1.648-3.892,3.857-3.892
		c1.893,0,3.218,0.94,4.136,2.401L506.917,243.521z"/>
	<path clip-path="url(#SVGID_2_)" d="M512.932,260.085v-17.938h2.358c2.535,0,4.658,0.453,6.611,2.212
		c1.906,1.745,2.932,4.197,2.932,6.782c0,2.438-0.961,4.757-2.7,6.498c-1.945,1.924-4.159,2.445-6.843,2.445H512.932z
		 M511.639,261.327h3.687c3.021,0,5.422-0.558,7.676-2.725c2.049-1.963,3.137-4.655,3.137-7.461c0-2.919-1.105-5.646-3.241-7.654
		c-2.243-2.077-4.608-2.562-7.571-2.562h-3.687V261.327z"/>
	<path clip-path="url(#SVGID_2_)" d="M539.369,253.386h-7.984l4.009-9.845L539.369,253.386z M539.872,254.604l2.723,6.723h1.335
		l-8.536-21.073l-8.52,21.073h1.296l2.74-6.723H539.872z"/>
	<path clip-path="url(#SVGID_2_)" d="M502.258,267.852h1.335c-0.02-0.437-0.141-0.832-0.335-1.164
		c-0.213-0.322-0.479-0.598-0.837-0.8c-0.349-0.226-0.753-0.388-1.216-0.487c-0.465-0.098-0.956-0.147-1.51-0.147
		c-0.479,0-0.956,0.05-1.416,0.147c-0.459,0.1-0.863,0.234-1.239,0.43c-0.355,0.189-0.631,0.441-0.855,0.758
		c-0.211,0.295-0.327,0.653-0.327,1.079c0,0.367,0.094,0.69,0.305,0.942c0.178,0.24,0.428,0.453,0.754,0.598
		c0.32,0.162,0.696,0.293,1.093,0.393c0.41,0.084,0.815,0.18,1.227,0.267c0.43,0.055,0.854,0.129,1.24,0.187
		c0.419,0.076,0.776,0.185,1.093,0.289c0.326,0.093,0.576,0.24,0.764,0.43c0.201,0.166,0.303,0.391,0.303,0.68
		c0,0.3-0.087,0.555-0.245,0.734l-0.616,0.469c-0.266,0.112-0.548,0.187-0.879,0.233c-0.324,0.037-0.624,0.068-0.941,0.068
		c-0.396,0-0.795-0.036-1.163-0.115c-0.371-0.074-0.702-0.2-0.984-0.363c-0.277-0.146-0.511-0.374-0.686-0.604
		c-0.154-0.252-0.246-0.549-0.246-0.911h-1.344c0,0.498,0.111,0.936,0.346,1.315c0.231,0.352,0.553,0.654,0.961,0.894
		c0.396,0.238,0.851,0.409,1.369,0.517c0.533,0.11,1.105,0.166,1.705,0.166c0.48,0,0.978-0.033,1.446-0.129
		c0.5-0.067,0.938-0.222,1.348-0.422c0.365-0.2,0.702-0.447,0.955-0.742c0.235-0.325,0.401-0.703,0.401-1.143
		c0-0.405-0.127-0.748-0.322-1.019c-0.205-0.261-0.429-0.479-0.775-0.66c-0.316-0.169-0.669-0.329-1.069-0.425
		c-0.419-0.115-0.809-0.194-1.256-0.269c-0.408-0.068-0.817-0.142-1.214-0.208c-0.418-0.06-0.776-0.166-1.102-0.25
		c-0.314-0.097-0.564-0.231-0.775-0.379c-0.189-0.176-0.281-0.372-0.281-0.629c0-0.267,0.06-0.5,0.197-0.656l0.534-0.442
		c0.229-0.117,0.488-0.196,0.764-0.238c0.295-0.042,0.584-0.079,0.866-0.079c0.745,0,1.335,0.144,1.793,0.42
		C501.899,266.835,502.185,267.262,502.258,267.852"/>
	<path clip-path="url(#SVGID_2_)" d="M510.73,269.628h1.307c-0.063-0.34-0.172-0.649-0.364-0.896
		c-0.172-0.27-0.419-0.491-0.718-0.662c-0.287-0.16-0.63-0.287-1.006-0.355c-0.385-0.092-0.78-0.134-1.225-0.134
		c-0.576,0-1.127,0.087-1.591,0.261c-0.438,0.16-0.823,0.385-1.122,0.675c-0.285,0.297-0.525,0.615-0.669,1.008
		c-0.146,0.396-0.22,0.811-0.22,1.258c0,0.439,0.074,0.848,0.22,1.232c0.146,0.365,0.394,0.687,0.684,0.955
		c0.297,0.269,0.679,0.473,1.107,0.619c0.464,0.143,0.997,0.211,1.56,0.211c0.998,0,1.745-0.188,2.322-0.596
		c0.563-0.394,0.924-0.969,1.063-1.7h-1.286c-0.076,0.472-0.281,0.826-0.646,1.071c-0.354,0.247-0.832,0.382-1.461,0.382
		c-0.397,0-0.735-0.062-1.021-0.188c-0.288-0.114-0.53-0.283-0.69-0.478l-0.399-0.7c-0.077-0.256-0.119-0.528-0.119-0.809
		c0-0.302,0.042-0.597,0.119-0.88c0.084-0.275,0.21-0.534,0.376-0.739c0.184-0.223,0.453-0.385,0.74-0.521
		c0.295-0.126,0.693-0.195,1.14-0.195c0.542,0,0.963,0.105,1.274,0.308C510.419,268.979,510.642,269.254,510.73,269.628"/>
	<path clip-path="url(#SVGID_2_)" d="M513.491,265.445v8.232h1.256v-3.361c0-0.271,0.042-0.509,0.132-0.734l0.428-0.604l0.684-0.389
		c0.311-0.099,0.632-0.146,1.031-0.146c0.482,0,0.858,0.11,1.138,0.332c0.269,0.21,0.421,0.5,0.421,0.865v4.036h1.237v-3.92
		c0-0.318-0.036-0.605-0.126-0.858c-0.071-0.287-0.211-0.518-0.439-0.708c-0.196-0.188-0.453-0.345-0.806-0.45
		c-0.332-0.112-0.742-0.161-1.251-0.161l-0.7,0.049l-0.708,0.205l-0.606,0.3l-0.396,0.46h-0.037v-3.148H513.491z"/>
	<path clip-path="url(#SVGID_2_)" d="M521.31,270.717c0,0.424,0.078,0.829,0.233,1.214c0.161,0.368,0.406,0.7,0.716,0.987
		c0.326,0.284,0.705,0.489,1.161,0.663c0.469,0.145,1,0.219,1.612,0.219c0.604,0,1.136-0.074,1.6-0.219
		c0.453-0.174,0.844-0.379,1.164-0.663c0.306-0.287,0.542-0.619,0.72-0.987c0.147-0.385,0.231-0.79,0.231-1.214
		c0-0.45-0.084-0.851-0.231-1.234c-0.178-0.393-0.414-0.702-0.72-0.99c-0.32-0.282-0.711-0.513-1.164-0.661
		c-0.464-0.163-0.995-0.253-1.6-0.253c-0.612,0-1.144,0.09-1.612,0.253c-0.456,0.148-0.835,0.379-1.161,0.661
		c-0.31,0.288-0.555,0.598-0.716,0.99C521.388,269.866,521.31,270.267,521.31,270.717 M522.646,270.717
		c0-0.366,0.067-0.685,0.185-0.972c0.116-0.276,0.29-0.523,0.495-0.711c0.237-0.194,0.478-0.337,0.768-0.439
		c0.299-0.095,0.602-0.151,0.938-0.151c0.334,0,0.632,0.057,0.908,0.151c0.289,0.103,0.556,0.245,0.782,0.439
		c0.209,0.188,0.384,0.435,0.488,0.711c0.146,0.287,0.211,0.605,0.211,0.972c0,0.349-0.065,0.678-0.211,0.945
		c-0.104,0.287-0.279,0.521-0.488,0.719c-0.227,0.188-0.493,0.321-0.782,0.429c-0.276,0.101-0.574,0.145-0.908,0.145
		c-0.337,0-0.64-0.044-0.938-0.145c-0.29-0.107-0.53-0.241-0.768-0.429c-0.205-0.197-0.379-0.432-0.495-0.719
		C522.714,271.395,522.646,271.065,522.646,270.717"/>
	<path clip-path="url(#SVGID_2_)" d="M529.82,270.717c0,0.424,0.071,0.829,0.23,1.214c0.161,0.368,0.381,0.7,0.72,0.987
		c0.313,0.284,0.688,0.489,1.159,0.663c0.466,0.145,1,0.219,1.601,0.219c0.621,0,1.146-0.074,1.595-0.219
		c0.479-0.174,0.856-0.379,1.177-0.663c0.312-0.287,0.562-0.619,0.714-0.987c0.152-0.385,0.224-0.79,0.224-1.214
		c0-0.45-0.071-0.851-0.224-1.234c-0.152-0.393-0.402-0.702-0.714-0.99c-0.32-0.282-0.697-0.513-1.177-0.661
		c-0.448-0.163-0.974-0.253-1.595-0.253c-0.601,0-1.135,0.09-1.601,0.253c-0.472,0.148-0.846,0.379-1.159,0.661
		c-0.339,0.288-0.559,0.598-0.72,0.99C529.892,269.866,529.82,270.267,529.82,270.717 M531.147,270.717
		c0-0.366,0.053-0.685,0.179-0.972c0.121-0.276,0.298-0.523,0.521-0.711c0.207-0.194,0.461-0.337,0.75-0.439
		c0.295-0.095,0.605-0.151,0.933-0.151c0.326,0,0.635,0.057,0.929,0.151c0.3,0.103,0.54,0.245,0.758,0.439
		c0.205,0.188,0.388,0.435,0.506,0.711c0.135,0.287,0.195,0.605,0.195,0.972c0,0.349-0.061,0.678-0.195,0.945
		c-0.118,0.287-0.301,0.521-0.506,0.719c-0.218,0.188-0.458,0.321-0.758,0.429c-0.294,0.101-0.603,0.145-0.929,0.145
		c-0.327,0-0.638-0.044-0.933-0.145c-0.289-0.107-0.543-0.241-0.75-0.429c-0.224-0.197-0.4-0.432-0.521-0.719
		C531.2,271.395,531.147,271.065,531.147,270.717"/>
	<rect x="538.795" y="265.445" clip-path="url(#SVGID_2_)" width="1.266" height="8.234"/>
	<path clip-path="url(#SVGID_2_)" d="M545.715,270.717c0,0.424,0.07,0.829,0.245,1.214c0.148,0.368,0.391,0.7,0.708,0.987
		c0.31,0.284,0.693,0.489,1.167,0.663c0.466,0.145,1.005,0.219,1.609,0.219c0.607,0,1.145-0.074,1.603-0.219
		c0.458-0.174,0.84-0.379,1.156-0.663c0.313-0.287,0.552-0.619,0.708-0.987c0.155-0.385,0.237-0.79,0.237-1.214
		c0-0.45-0.082-0.851-0.237-1.234c-0.156-0.393-0.395-0.702-0.708-0.99c-0.316-0.282-0.698-0.513-1.156-0.661
		c-0.458-0.163-0.995-0.253-1.603-0.253c-0.604,0-1.144,0.09-1.609,0.253c-0.474,0.148-0.857,0.379-1.167,0.661
		c-0.317,0.288-0.56,0.598-0.708,0.99C545.785,269.866,545.715,270.267,545.715,270.717 M547.064,270.717
		c0-0.366,0.055-0.685,0.174-0.972c0.121-0.276,0.305-0.523,0.513-0.711c0.225-0.194,0.468-0.337,0.761-0.439
		c0.293-0.095,0.611-0.151,0.933-0.151s0.632,0.057,0.911,0.151c0.297,0.103,0.556,0.245,0.764,0.439
		c0.239,0.188,0.391,0.435,0.52,0.711c0.112,0.287,0.183,0.605,0.183,0.972c0,0.349-0.07,0.678-0.183,0.945
		c-0.129,0.287-0.28,0.521-0.52,0.719c-0.208,0.188-0.467,0.321-0.764,0.429c-0.279,0.101-0.59,0.145-0.911,0.145
		s-0.64-0.044-0.933-0.145c-0.293-0.107-0.536-0.241-0.761-0.429c-0.208-0.197-0.392-0.432-0.513-0.719
		C547.119,271.395,547.064,271.065,547.064,270.717"/>
	<path clip-path="url(#SVGID_2_)" d="M555.148,268.589v5.089h1.27v-5.089h1.479v-0.862h-1.479v-0.844l0.245-0.521
		c0.157-0.091,0.415-0.158,0.717-0.158l0.359,0.04l0.354,0.055v-0.853l-0.424-0.066l-0.386-0.013c-0.696,0-1.217,0.126-1.58,0.374
		c-0.361,0.237-0.556,0.603-0.556,1.087v0.899h-1.282v0.862H555.148z"/>
	<polygon clip-path="url(#SVGID_2_)" points="563.389,265.445 563.389,273.678 564.719,273.678 564.719,266.825 564.734,266.825 
		568.042,273.678 569.243,273.678 572.556,266.825 572.584,266.825 572.584,273.678 573.898,273.678 573.898,265.445 
		571.977,265.445 568.631,272.367 565.308,265.445 	"/>
	<path clip-path="url(#SVGID_2_)" d="M580.789,270.609v1.003l-0.129,0.442l-0.431,0.435c-0.191,0.129-0.407,0.245-0.73,0.332
		c-0.295,0.097-0.632,0.134-1.062,0.134l-0.56-0.042l-0.471-0.154l-0.33-0.27l-0.118-0.411l0.197-0.575l0.566-0.344
		c0.227-0.069,0.498-0.123,0.779-0.145c0.276-0.052,0.565-0.082,0.843-0.091c0.284-0.033,0.565-0.082,0.821-0.119L580.789,270.609z
		 M582.826,273.658v-0.767l-0.388,0.063l-0.337-0.154l-0.067-0.512v-3.083c0-0.343-0.079-0.612-0.262-0.832
		c-0.144-0.216-0.37-0.374-0.654-0.503c-0.259-0.112-0.587-0.199-0.934-0.245c-0.317-0.023-0.666-0.047-1.015-0.047
		c-0.438,0-0.822,0.031-1.222,0.105c-0.377,0.058-0.725,0.179-1.024,0.348c-0.277,0.147-0.521,0.354-0.722,0.607
		c-0.163,0.264-0.255,0.554-0.267,0.94h1.236c0.047-0.446,0.234-0.741,0.568-0.888c0.374-0.163,0.813-0.247,1.351-0.247l0.597,0.047
		l0.542,0.132l0.416,0.279l0.156,0.537l-0.21,0.427l-0.563,0.213c-0.237,0.049-0.51,0.087-0.827,0.105
		c-0.307,0.05-0.647,0.074-0.981,0.134c-0.332,0.045-0.648,0.098-0.975,0.164c-0.287,0.078-0.574,0.179-0.818,0.321l-0.572,0.519
		c-0.163,0.218-0.231,0.486-0.231,0.821c0,0.292,0.058,0.558,0.216,0.773l0.519,0.519c0.25,0.146,0.521,0.222,0.814,0.283
		c0.312,0.067,0.636,0.079,0.995,0.079c0.522,0,1.029-0.069,1.466-0.19c0.471-0.153,0.877-0.4,1.232-0.717
		c0,0.316,0.087,0.563,0.269,0.717c0.202,0.121,0.465,0.19,0.784,0.19C582.31,273.799,582.616,273.766,582.826,273.658"/>
	<path clip-path="url(#SVGID_2_)" d="M584.004,267.724v5.953h1.248v-3.359c0-0.271,0.048-0.511,0.129-0.737l0.45-0.601
		c0.177-0.171,0.422-0.306,0.692-0.393c0.276-0.096,0.611-0.141,0.998-0.141c0.492,0,0.861,0.109,1.15,0.332
		c0.266,0.21,0.411,0.5,0.411,0.862v4.036h1.253v-3.921c0-0.318-0.031-0.605-0.138-0.857c-0.084-0.284-0.226-0.517-0.426-0.706
		c-0.206-0.192-0.481-0.348-0.813-0.447c-0.326-0.119-0.756-0.163-1.262-0.163c-1.127,0-1.95,0.364-2.484,1.063h-0.042v-0.922
		H584.004z"/>
	<path clip-path="url(#SVGID_2_)" d="M596.98,270.609v1.003l-0.129,0.442l-0.43,0.435c-0.18,0.129-0.427,0.245-0.717,0.332
		c-0.299,0.097-0.666,0.134-1.076,0.134l-0.565-0.042l-0.461-0.154l-0.34-0.27l-0.105-0.411l0.198-0.575l0.562-0.344
		c0.227-0.069,0.487-0.123,0.77-0.145c0.278-0.052,0.571-0.082,0.842-0.091c0.29-0.033,0.577-0.082,0.821-0.119L596.98,270.609z
		 M599.013,273.658v-0.767l-0.382,0.063l-0.35-0.154l-0.056-0.512v-3.083c0-0.343-0.087-0.612-0.253-0.832
		c-0.152-0.216-0.387-0.374-0.652-0.503c-0.286-0.112-0.608-0.199-0.927-0.245c-0.335-0.023-0.688-0.047-1.027-0.047
		c-0.439,0-0.842,0.031-1.222,0.105c-0.387,0.058-0.732,0.179-1.014,0.348c-0.297,0.147-0.561,0.354-0.72,0.607
		c-0.178,0.264-0.272,0.554-0.289,0.94h1.248c0.027-0.446,0.232-0.741,0.58-0.888c0.357-0.163,0.806-0.247,1.348-0.247l0.568,0.047
		l0.556,0.132l0.41,0.279l0.15,0.537l-0.187,0.427l-0.571,0.213c-0.247,0.049-0.52,0.087-0.832,0.105
		c-0.316,0.05-0.637,0.074-0.972,0.134c-0.346,0.045-0.663,0.098-0.989,0.164c-0.276,0.078-0.566,0.179-0.827,0.321l-0.556,0.519
		c-0.147,0.218-0.231,0.486-0.231,0.821c0,0.292,0.068,0.558,0.192,0.773l0.542,0.519c0.239,0.146,0.519,0.222,0.818,0.283
		c0.314,0.067,0.633,0.079,1,0.079c0.515,0,1.007-0.069,1.454-0.19c0.466-0.153,0.864-0.4,1.21-0.717
		c0,0.316,0.104,0.563,0.291,0.717c0.192,0.121,0.463,0.19,0.784,0.19C598.513,273.799,598.785,273.766,599.013,273.658"/>
	<path clip-path="url(#SVGID_2_)" d="M603.271,272.886c-0.421,0-0.764-0.067-1.034-0.191c-0.288-0.131-0.498-0.322-0.675-0.524
		c-0.168-0.239-0.3-0.481-0.354-0.753c-0.064-0.266-0.102-0.524-0.102-0.793c0-0.289,0.047-0.573,0.118-0.832
		c0.095-0.263,0.216-0.494,0.411-0.692c0.171-0.194,0.41-0.35,0.691-0.471c0.295-0.116,0.644-0.185,1.048-0.185
		c0.383,0,0.728,0.068,1,0.185c0.275,0.126,0.51,0.276,0.675,0.5l0.382,0.68c0.085,0.242,0.11,0.509,0.11,0.771
		c0,0.269-0.034,0.559-0.135,0.838c-0.076,0.271-0.208,0.514-0.362,0.753c-0.203,0.202-0.43,0.394-0.723,0.524
		C604.028,272.818,603.673,272.886,603.271,272.886 M606.801,273.173v-5.45h-1.189v0.858h-0.019
		c-0.231-0.345-0.54-0.582-0.942-0.742c-0.416-0.171-0.865-0.258-1.341-0.258c-0.65,0-1.213,0.103-1.663,0.292
		c-0.464,0.196-0.823,0.447-1.104,0.756c-0.271,0.297-0.469,0.629-0.581,1.014c-0.127,0.368-0.189,0.737-0.189,1.101
		c0,0.395,0.062,0.787,0.211,1.153c0.149,0.371,0.352,0.676,0.645,0.956c0.286,0.265,0.635,0.479,1.069,0.645
		c0.42,0.16,0.926,0.234,1.5,0.234c0.495,0,0.966-0.074,1.398-0.259c0.45-0.168,0.761-0.434,0.975-0.811h0.042v0.401
		c0,0.328-0.048,0.626-0.124,0.916c-0.09,0.26-0.216,0.494-0.409,0.681c-0.193,0.224-0.428,0.369-0.718,0.464
		c-0.277,0.118-0.637,0.19-1.051,0.19l-0.65-0.072l-0.627-0.15l-0.492-0.3l-0.211-0.447h-1.256c0.024,0.315,0.135,0.59,0.314,0.808
		c0.191,0.246,0.446,0.406,0.756,0.548c0.292,0.137,0.636,0.234,0.995,0.306c0.379,0.05,0.736,0.079,1.098,0.079
		c1.215,0,2.119-0.24,2.701-0.714C606.517,274.884,606.801,274.146,606.801,273.173"/>
	<path clip-path="url(#SVGID_2_)" d="M615.218,271.793h-1.233c-0.115,0.391-0.336,0.664-0.687,0.869
		c-0.34,0.195-0.772,0.295-1.29,0.295c-0.421,0-0.781-0.062-1.104-0.158c-0.295-0.105-0.558-0.253-0.748-0.429l-0.434-0.63
		l-0.114-0.731h5.746c0.01-0.371-0.026-0.748-0.143-1.146c-0.105-0.395-0.284-0.779-0.557-1.113
		c-0.275-0.35-0.639-0.624-1.102-0.843c-0.427-0.205-1.009-0.326-1.687-0.326c-0.51,0-0.994,0.084-1.441,0.235
		c-0.438,0.146-0.817,0.362-1.132,0.628c-0.332,0.288-0.574,0.629-0.745,0.996c-0.18,0.378-0.272,0.794-0.272,1.245
		c0.027,0.456,0.104,0.881,0.248,1.254c0.147,0.391,0.388,0.715,0.693,0.983c0.307,0.279,0.692,0.497,1.129,0.658
		c0.461,0.146,0.995,0.219,1.593,0.219c0.888,0,1.601-0.152,2.162-0.498C614.692,272.97,615.038,272.457,615.218,271.793
		 M614.004,270.129h-4.396l0.216-0.645l0.416-0.547l0.664-0.349c0.271-0.097,0.572-0.145,0.896-0.145c0.332,0,0.6,0.048,0.85,0.145
		c0.274,0.076,0.499,0.203,0.686,0.349l0.479,0.54L614.004,270.129z"/>
	<path clip-path="url(#SVGID_2_)" d="M616.64,267.724v5.953h1.276v-3.699l0.093-0.427l0.358-0.515l0.639-0.412
		c0.272-0.118,0.585-0.178,0.947-0.178c0.268,0,0.499,0.045,0.688,0.106l0.45,0.27l0.227,0.429l0.068,0.514v3.912h1.251v-3.699
		c0-0.464,0.191-0.848,0.537-1.127c0.36-0.264,0.85-0.404,1.458-0.404c0.316,0,0.563,0.045,0.753,0.106l0.464,0.285l0.227,0.418
		l0.062,0.509v3.912h1.256v-4.368c0-0.306-0.062-0.558-0.21-0.775l-0.52-0.557c-0.213-0.132-0.479-0.231-0.806-0.292
		c-0.284-0.073-0.626-0.103-1.027-0.103c-0.486,0-0.968,0.081-1.389,0.263c-0.427,0.169-0.751,0.416-1.012,0.75
		c-0.166-0.373-0.426-0.632-0.809-0.778c-0.387-0.153-0.826-0.234-1.273-0.234c-1.09,0-1.914,0.339-2.493,1.013h-0.037v-0.871
		H616.64z"/>
	<path clip-path="url(#SVGID_2_)" d="M635.824,271.793h-1.258c-0.1,0.391-0.325,0.664-0.68,0.869
		c-0.339,0.195-0.755,0.295-1.3,0.295c-0.416,0-0.779-0.062-1.096-0.158c-0.295-0.105-0.532-0.253-0.746-0.429l-0.431-0.63
		l-0.118-0.731h5.739c0.023-0.371-0.014-0.748-0.14-1.146c-0.093-0.395-0.287-0.779-0.556-1.113c-0.273-0.35-0.64-0.624-1.082-0.843
		c-0.463-0.205-1.011-0.326-1.704-0.326c-0.516,0-1.003,0.084-1.442,0.235c-0.433,0.146-0.815,0.362-1.135,0.628
		c-0.326,0.288-0.561,0.629-0.739,0.996c-0.174,0.378-0.271,0.794-0.271,1.245c0.026,0.456,0.101,0.881,0.257,1.254
		c0.154,0.391,0.377,0.715,0.691,0.983c0.318,0.279,0.681,0.497,1.145,0.658c0.44,0.146,0.97,0.219,1.591,0.219
		c0.858,0,1.573-0.152,2.161-0.498C635.274,272.97,635.646,272.457,635.824,271.793 M634.596,270.129h-4.399l0.202-0.645
		l0.426-0.547l0.667-0.349c0.287-0.097,0.563-0.145,0.9-0.145c0.315,0,0.6,0.048,0.85,0.145c0.29,0.076,0.509,0.203,0.693,0.349
		l0.463,0.54L634.596,270.129z"/>
	<path clip-path="url(#SVGID_2_)" d="M637.236,267.724v5.953h1.256v-3.359c0-0.271,0.056-0.511,0.14-0.737l0.423-0.601
		c0.19-0.171,0.416-0.306,0.688-0.393c0.303-0.096,0.64-0.141,1.023-0.141c0.475,0,0.856,0.109,1.139,0.332
		c0.27,0.21,0.413,0.5,0.413,0.862v4.036h1.264v-3.921c0-0.318-0.053-0.605-0.132-0.857c-0.081-0.284-0.228-0.517-0.442-0.706
		c-0.198-0.192-0.474-0.348-0.83-0.447c-0.322-0.119-0.741-0.163-1.236-0.163c-1.147,0-1.978,0.364-2.493,1.063h-0.034v-0.922
		H637.236z"/>
	<path clip-path="url(#SVGID_2_)" d="M647.223,267.724v-1.801h-1.256v1.801h-1.312v0.863h1.312v3.794c0,0.275,0.023,0.506,0.1,0.664
		l0.318,0.395l0.562,0.208c0.236,0.016,0.521,0.029,0.841,0.029h0.956v-0.866h-0.574h-0.491l-0.279-0.093l-0.157-0.148l-0.019-0.277
		v-3.705h1.521v-0.863H647.223z"/>
	<rect x="522.666" y="231.55" clip-path="url(#SVGID_2_)" width="0.846" height="4.745"/>
	<polygon clip-path="url(#SVGID_2_)" points="525.221,231.55 526.34,231.55 528.638,235.075 528.653,235.075 528.653,231.55 
		529.495,231.55 529.495,236.294 528.425,236.294 526.078,232.655 526.065,232.655 526.065,236.294 525.221,236.294 	"/>
	<path clip-path="url(#SVGID_2_)" d="M537.139,232.663c-0.178-0.187-0.344-0.312-0.51-0.374c-0.162-0.062-0.328-0.095-0.491-0.095
		c-0.245,0-0.466,0.045-0.666,0.132s-0.371,0.205-0.515,0.36c-0.141,0.156-0.253,0.335-0.328,0.54
		c-0.081,0.206-0.118,0.427-0.118,0.664c0,0.255,0.037,0.486,0.118,0.703c0.075,0.216,0.188,0.399,0.328,0.558
		c0.144,0.156,0.314,0.277,0.515,0.368c0.2,0.087,0.421,0.135,0.666,0.135c0.191,0,0.379-0.048,0.561-0.137
		c0.179-0.092,0.351-0.24,0.505-0.443l0.698,0.498c-0.216,0.295-0.477,0.508-0.784,0.644c-0.308,0.134-0.635,0.201-0.984,0.201
		c-0.366,0-0.706-0.061-1.013-0.176c-0.302-0.121-0.567-0.287-0.789-0.506c-0.221-0.216-0.392-0.476-0.518-0.779
		c-0.124-0.306-0.191-0.643-0.191-1.014c0-0.379,0.067-0.723,0.191-1.034c0.126-0.31,0.297-0.574,0.518-0.796
		c0.222-0.218,0.487-0.386,0.789-0.505c0.307-0.118,0.646-0.176,1.013-0.176c0.32,0,0.617,0.055,0.893,0.169
		c0.273,0.115,0.531,0.307,0.768,0.582L537.139,232.663z"/>
	<path clip-path="url(#SVGID_2_)" d="M538.887,233.944c0-0.381,0.062-0.726,0.188-1.035c0.124-0.312,0.295-0.577,0.519-0.795
		c0.222-0.22,0.485-0.389,0.789-0.507c0.31-0.117,0.644-0.179,1.01-0.179c0.374-0.003,0.711,0.05,1.019,0.166
		c0.311,0.113,0.577,0.279,0.8,0.497c0.222,0.222,0.396,0.483,0.522,0.793c0.123,0.308,0.186,0.652,0.186,1.032
		c0,0.371-0.062,0.708-0.186,1.011c-0.127,0.306-0.301,0.566-0.522,0.784c-0.223,0.222-0.489,0.39-0.8,0.514
		c-0.308,0.121-0.645,0.187-1.019,0.189c-0.366,0-0.7-0.058-1.01-0.176c-0.304-0.119-0.567-0.287-0.789-0.503
		c-0.224-0.217-0.395-0.477-0.519-0.782C538.948,234.651,538.887,234.314,538.887,233.944 M539.772,233.891
		c0,0.252,0.037,0.489,0.116,0.702c0.075,0.217,0.189,0.401,0.33,0.556c0.146,0.158,0.314,0.282,0.515,0.369
		c0.196,0.092,0.421,0.134,0.666,0.134s0.469-0.042,0.671-0.134c0.2-0.087,0.372-0.211,0.516-0.369
		c0.143-0.154,0.253-0.339,0.332-0.556c0.077-0.213,0.116-0.45,0.116-0.702c0-0.236-0.039-0.459-0.116-0.664
		c-0.079-0.205-0.189-0.387-0.332-0.542c-0.144-0.152-0.315-0.273-0.516-0.36c-0.202-0.086-0.426-0.129-0.671-0.129
		s-0.47,0.043-0.666,0.129c-0.2,0.087-0.369,0.208-0.515,0.36c-0.141,0.155-0.255,0.337-0.33,0.542
		C539.81,233.432,539.772,233.654,539.772,233.891"/>
	<polygon clip-path="url(#SVGID_2_)" points="545.395,231.55 546.236,231.55 546.236,235.533 548.255,235.533 548.255,236.294 
		545.395,236.294 	"/>
	<polygon clip-path="url(#SVGID_2_)" points="549.542,231.55 550.388,231.55 550.388,235.533 552.403,235.533 552.403,236.294 
		549.542,236.294 	"/>
	<path clip-path="url(#SVGID_2_)" d="M555.227,231.55h0.729l2.047,4.745h-0.968l-0.44-1.082h-2.061l-0.425,1.082h-0.946
		L555.227,231.55z M556.299,234.485l-0.729-1.93l-0.746,1.93H556.299z"/>
	<path clip-path="url(#SVGID_2_)" d="M559.201,231.551h1.849c0.179,0,0.354,0.021,0.529,0.063c0.174,0.042,0.331,0.11,0.469,0.208
		c0.134,0.096,0.244,0.22,0.331,0.371c0.082,0.153,0.124,0.335,0.124,0.551c0,0.269-0.076,0.489-0.228,0.663
		c-0.151,0.175-0.349,0.298-0.597,0.374v0.017c0.147,0.015,0.284,0.057,0.414,0.124c0.126,0.062,0.236,0.144,0.323,0.247
		c0.092,0.1,0.16,0.216,0.213,0.347c0.051,0.135,0.077,0.275,0.077,0.427c0,0.258-0.054,0.475-0.155,0.646
		c-0.102,0.173-0.237,0.311-0.406,0.416c-0.165,0.104-0.357,0.179-0.577,0.226c-0.215,0.045-0.434,0.067-0.657,0.067h-1.709V231.551
		z M560.044,233.481h0.771c0.283,0,0.493-0.056,0.635-0.166c0.141-0.107,0.208-0.253,0.208-0.432c0-0.206-0.07-0.358-0.216-0.458
		c-0.145-0.101-0.377-0.153-0.701-0.153h-0.696V233.481z M560.044,235.571h0.778c0.106,0,0.223-0.005,0.344-0.021
		c0.123-0.01,0.235-0.044,0.342-0.092c0.102-0.051,0.184-0.121,0.253-0.214c0.065-0.09,0.099-0.213,0.099-0.37
		c0-0.248-0.081-0.425-0.242-0.522c-0.166-0.1-0.418-0.147-0.763-0.147h-0.811V235.571z"/>
	<path clip-path="url(#SVGID_2_)" d="M563.959,233.944c0-0.381,0.062-0.726,0.188-1.035c0.124-0.312,0.298-0.577,0.518-0.795
		c0.223-0.22,0.485-0.389,0.79-0.507c0.31-0.117,0.644-0.179,1.012-0.179c0.37-0.003,0.709,0.05,1.017,0.166
		c0.311,0.113,0.576,0.279,0.8,0.497c0.222,0.222,0.396,0.483,0.521,0.793c0.127,0.308,0.187,0.652,0.187,1.032
		c0,0.371-0.06,0.708-0.187,1.011c-0.126,0.306-0.3,0.566-0.521,0.784c-0.224,0.222-0.489,0.39-0.8,0.514
		c-0.308,0.121-0.646,0.187-1.017,0.189c-0.368,0-0.702-0.058-1.012-0.176c-0.305-0.119-0.567-0.287-0.79-0.503
		c-0.22-0.217-0.394-0.477-0.518-0.782C564.021,234.651,563.959,234.314,563.959,233.944 M564.845,233.891
		c0,0.252,0.036,0.489,0.114,0.702c0.079,0.217,0.19,0.401,0.332,0.556c0.146,0.158,0.316,0.282,0.515,0.369
		c0.2,0.092,0.421,0.134,0.666,0.134c0.244,0,0.471-0.042,0.671-0.134c0.2-0.087,0.371-0.211,0.516-0.369
		c0.143-0.154,0.252-0.339,0.332-0.556c0.076-0.213,0.116-0.45,0.116-0.702c0-0.236-0.04-0.459-0.116-0.664
		c-0.08-0.205-0.189-0.387-0.332-0.542c-0.145-0.152-0.315-0.273-0.516-0.36c-0.2-0.086-0.427-0.129-0.671-0.129
		c-0.245,0-0.466,0.043-0.666,0.129c-0.198,0.087-0.369,0.208-0.515,0.36c-0.142,0.155-0.253,0.337-0.332,0.542
		C564.881,233.432,564.845,233.654,564.845,233.891"/>
	<path clip-path="url(#SVGID_2_)" d="M570.466,231.549h1.649c0.228,0,0.449,0.025,0.659,0.067c0.214,0.042,0.4,0.112,0.566,0.216
		c0.166,0.102,0.298,0.242,0.397,0.416c0.098,0.173,0.147,0.394,0.147,0.663c0,0.344-0.096,0.634-0.284,0.865
		c-0.193,0.231-0.461,0.374-0.817,0.423l1.263,2.097h-1.022l-1.098-2.011h-0.616v2.011h-0.845V231.549z M571.969,233.561
		c0.121,0,0.24-0.005,0.36-0.016c0.121-0.01,0.232-0.04,0.331-0.079c0.102-0.045,0.183-0.107,0.245-0.194
		c0.064-0.09,0.093-0.211,0.093-0.366c0-0.14-0.025-0.25-0.085-0.335c-0.06-0.087-0.136-0.149-0.228-0.191
		c-0.093-0.043-0.198-0.071-0.312-0.085c-0.115-0.012-0.224-0.021-0.331-0.021h-0.732v1.287H571.969z"/>
	<path clip-path="url(#SVGID_2_)" d="M576.893,231.55h0.729l2.047,4.745h-0.965l-0.441-1.082h-2.06l-0.426,1.082h-0.948
		L576.893,231.55z M577.967,234.485l-0.731-1.93l-0.743,1.93H577.967z"/>
	<polygon clip-path="url(#SVGID_2_)" points="581.224,232.314 579.771,232.314 579.771,231.551 583.521,231.551 583.521,232.314 
		582.068,232.314 582.068,236.295 581.224,236.295 	"/>
	<rect x="584.749" y="231.55" clip-path="url(#SVGID_2_)" width="0.843" height="4.745"/>
	<path clip-path="url(#SVGID_2_)" d="M587.049,233.944c0-0.381,0.062-0.726,0.188-1.035c0.124-0.312,0.298-0.577,0.518-0.795
		c0.223-0.22,0.488-0.389,0.79-0.507c0.31-0.117,0.644-0.179,1.01-0.179c0.372-0.003,0.713,0.05,1.021,0.166
		c0.308,0.113,0.573,0.279,0.797,0.497c0.222,0.222,0.398,0.483,0.521,0.793c0.124,0.308,0.187,0.652,0.187,1.032
		c0,0.371-0.062,0.708-0.187,1.011c-0.123,0.306-0.3,0.566-0.521,0.784c-0.224,0.222-0.489,0.39-0.797,0.514
		c-0.309,0.121-0.649,0.187-1.021,0.189c-0.366,0-0.7-0.058-1.01-0.176c-0.302-0.119-0.567-0.287-0.79-0.503
		c-0.22-0.217-0.394-0.477-0.518-0.782C587.11,234.651,587.049,234.314,587.049,233.944 M587.935,233.891
		c0,0.252,0.036,0.489,0.114,0.702c0.076,0.217,0.19,0.401,0.332,0.556c0.146,0.158,0.314,0.282,0.515,0.369
		c0.196,0.092,0.421,0.134,0.666,0.134c0.244,0,0.469-0.042,0.671-0.134c0.2-0.087,0.371-0.211,0.516-0.369
		c0.143-0.154,0.252-0.339,0.332-0.556c0.079-0.213,0.116-0.45,0.116-0.702c0-0.236-0.037-0.459-0.116-0.664
		c-0.08-0.205-0.189-0.387-0.332-0.542c-0.145-0.152-0.315-0.273-0.516-0.36c-0.202-0.086-0.427-0.129-0.671-0.129
		c-0.245,0-0.47,0.043-0.666,0.129c-0.2,0.087-0.369,0.208-0.515,0.36c-0.142,0.155-0.256,0.337-0.332,0.542
		C587.971,233.432,587.935,233.654,587.935,233.891"/>
	<polygon clip-path="url(#SVGID_2_)" points="593.557,231.55 594.675,231.55 596.974,235.075 596.986,235.075 596.986,231.55 
		597.831,231.55 597.831,236.294 596.758,236.294 594.413,232.655 594.401,232.655 594.401,236.294 593.557,236.294 	"/>
	<polygon clip-path="url(#SVGID_2_)" points="601.687,231.55 602.61,231.55 603.502,234.967 603.517,234.967 604.582,231.55 
		605.412,231.55 606.457,234.967 606.469,234.967 607.402,231.55 608.26,231.55 606.88,236.294 606.075,236.294 604.978,232.682 
		604.961,232.682 603.866,236.294 603.086,236.294 	"/>
	<rect x="609.439" y="231.55" clip-path="url(#SVGID_2_)" width="0.845" height="4.745"/>
	<polygon clip-path="url(#SVGID_2_)" points="612.965,232.314 611.512,232.314 611.512,231.551 615.263,231.551 615.263,232.314 
		613.81,232.314 613.81,236.295 612.965,236.295 	"/>
	<polygon clip-path="url(#SVGID_2_)" points="616.51,231.55 617.354,231.55 617.354,233.441 619.571,233.441 619.571,231.55 
		620.42,231.55 620.42,236.294 619.571,236.294 619.571,234.206 617.354,234.206 617.354,236.294 616.51,236.294 	"/>
</g>
</svg>
